<svg xmlns="http://www.w3.org/2000/svg" viewBox="0 0 126 84"><defs><style>.cls-1{fill:#ffabab}.cls-2{fill:#aaa;opacity:.3}.cls-3{fill:#bf5c5c}.cls-4{fill:#fff}.cls-5{fill:#ff5552}.cls-6{fill:none}.cls-7{fill:#5b1b1b}.cls-8{fill:#efcbcb}</style></defs><title>Booking v3</title><g id="Export"><g id="Bug_movement_1" data-name="Bug movement 1"><path id="Shell_-_Light_color" data-name="Shell - Light color" class="cls-1" d="M22 18v-2h-6v6h8v-4h-2z"/><path id="Shadow" class="cls-2" d="M10 28h20v2H10z"/><path class="cls-3" d="M28 22v-2h-2v4h4v-2h-2z"/><path class="cls-4" d="M20 20v-2h-2v4h4v-2h-2z"/><path id="Shell_-_Standard_color" data-name="Shell - Standard color" class="cls-5" d="M20 22v-2h-2v-2h-4v2h-2v2h-2v4h14v-4h-4z"/><g id="Body_-_Dark_color" data-name="Body - Dark color"><path class="cls-6" d="M26 24h2v2h-2z"/><path class="cls-7" d="M30 18h2v2h-2zM32 20h2v4h-2zM28 24v-2h-2v-2h-2v6H10v2h6v2h2v-2h12v-2h2v-2h-4z"/></g><path id="Eye_-_Light_color" data-name="Eye - Light color" class="cls-8" d="M26 24h2v2h-2z"/></g><g id="Bug_attack_3" data-name="Bug attack 3"><path class="cls-1" d="M106 53v-2h-2v-2h-6v2h2v6h8v-4h-2z"/><path class="cls-3" d="M112 57v-2h-2v4h4v-2h-2z"/><path class="cls-7" d="M114 53h2v2h-2zM116 55h2v4h-2zM112 57h-2v-2h-2v6h-8v2h-2v4h6v-2h4v-2h6v-2h2v-2h-4v-2z"/><path class="cls-7" d="M108 65h2v2h-2zM104 67h2v2h-2z"/><path id="Shadow-2" data-name="Shadow" class="cls-2" d="M94 70h20v2H94z"/><path id="Eye_-_Light_color-2" data-name="Eye - Light color" class="cls-8" d="M110 59h2v2h-2z"/><path class="cls-4" d="M104 53v-2h-2v4h4v-2h-2z"/><path class="cls-5" d="M98 61h10v-4h-2v-2h-2v-2h-4v-2h-2v10"/><path class="cls-8" d="M102 59v-2h-2v-2h-8v2h-2v2h2v2h14v-2h-4z"/></g><g id="Bug_attack_2" data-name="Bug attack 2"><path id="Shell_-_Light_color-2" data-name="Shell - Light color" class="cls-1" d="M64 58v-2h-6v6h8v-4h-2z"/><path id="Shadow-3" data-name="Shadow" class="cls-2" d="M52 70h20v2H52z"/><path class="cls-3" d="M70 62v-2h-2v4h4v-2h-2z"/><path class="cls-4" d="M64 60v-2h-2v4h2v-2z"/><path class="cls-5" d="M64 62v-2h-2v-2h-8v2h-2v6h14v-4h-2z"/><g id="Body_-_Dark_color-2" data-name="Body - Dark color"><path class="cls-6" d="M68 64h2v2h-2z"/><path class="cls-7" d="M72 58h2v2h-2zM74 60h2v4h-2zM70 64v-2h-2v-2h-2v6H52v2h2v4h2v-2h10v-2h6v-2h2v-2h-4zM66 70h2v2h-2z"/></g><path id="Eye_-_Light_color-3" data-name="Eye - Light color" class="cls-8" d="M68 64h2v2h-2z"/><path class="cls-8" d="M58 64v-2h-8v2h-2v2h14v-2h-4z"/></g><g id="Bug_attack_1" data-name="Bug attack 1"><path id="Shell_-_Light_color-3" data-name="Shell - Light color" class="cls-1" d="M22 60v-2h-6v6h8v-4h-2z"/><path id="Shadow-4" data-name="Shadow" class="cls-2" d="M10 70h20v2H10z"/><path class="cls-3" d="M28 64v-2h-2v4h4v-2h-2z"/><path class="cls-4" d="M20 62v-2h-2v4h4v-2h-2z"/><path class="cls-5" d="M20 64v-2h-2v-2h-4v2h-4v6h14v-4h-4z"/><g id="Body_-_Dark_color-3" data-name="Body - Dark color"><path class="cls-6" d="M26 66h2v2h-2z"/><path class="cls-7" d="M30 60h2v2h-2zM32 62h2v4h-2zM28 66v-2h-2v-2h-2v6H10v2h6v2h2v-2h12v-2h2v-2h-4z"/></g><path id="Eye_-_Light_color-4" data-name="Eye - Light color" class="cls-8" d="M26 66h2v2h-2z"/><path id="Eye_-_Light_color-5" data-name="Eye - Light color" class="cls-8" d="M8 66h12v2H8z"/></g><g id="Bug_movement_2" data-name="Bug movement 2"><path id="Shell_-_Light_color-4" data-name="Shell - Light color" class="cls-1" d="M64 18v-2h-6v6h8v-4h-2z"/><path id="Shadow-5" data-name="Shadow" class="cls-2" d="M52 28h20v2H52z"/><path class="cls-3" d="M70 22v-2h-2v4h4v-2h-2z"/><path class="cls-4" d="M62 20v-2h-2v4h4v-2h-2z"/><path id="Shell_-_Standard_color-2" data-name="Shell - Standard color" class="cls-5" d="M62 22v-2h-2v-2h-4v2h-2v2h-2v4h14v-4h-4z"/><g id="Body_-_Dark_color-4" data-name="Body - Dark color"><path class="cls-6" d="M68 24h2v2h-2z"/><path class="cls-7" d="M72 18h2v2h-2zM74 20h2v4h-2zM70 24v-2h-2v-2h-2v6H52v2h2v2h2v-2h6v2h2v-2h8v-2h2v-2h-4z"/></g><path id="Eye_-_Light_color-6" data-name="Eye - Light color" class="cls-8" d="M68 24h2v2h-2z"/></g></g></svg>