<svg id="Bug_-_Walk_-_Frame_1" data-name="Bug - Walk - Frame 1" xmlns="http://www.w3.org/2000/svg" width="84" height="126" viewBox="0 0 84 126"><defs><style>.cls-1{fill:#aaa;opacity:.3}.cls-2{fill:#fe9b00}.cls-3{fill:#fff}.cls-4{fill:#feba02}.cls-5{fill:#fed870}.cls-6{fill:#561600}.cls-7,.cls-8,.cls-9{fill:#a8a8a8}.cls-7{opacity:.5}.cls-9{opacity:.2}.cls-10{fill:#ddd}</style></defs><title>Assets Export</title><g id="Bug_-_Frame_1" data-name="Bug - Frame 1"><path id="Shadow" class="cls-1" d="M9 26h20v2H9z"/><g id="Color_area_-_Grade_3" data-name="Color area - Grade 3"><path class="cls-2" d="M27 20h2v2h-2zM25 18h2v2h-2z"/></g><g id="Color_area_-_White" data-name="Color area - White"><path class="cls-3" d="M19 18h2v2h-2zM17 16h2v2h-2zM25 22h2v2h-2z"/></g><path id="Color_area_-_Grade_2" data-name="Color area - Grade 2" class="cls-4" d="M9 24h14v-4h-4v-2h-2v-2h-4v2h-2v2H9v4z"/><path id="Color_area_-_Grade_1" data-name="Color area - Grade 1" class="cls-5" d="M15 14v2h4v2h2v2h2v-4h-2v-2h-6z"/><g id="Color_area_-_Grade_4" data-name="Color area - Grade 4"><path class="cls-6" d="M29 16h2v2h-2zM31 18h2v4h-2zM27 22v2h-2v-2h2v-2h-2v-2h-2v6H9v2h4v2h2v-2h14v-2h2v-2h-4z"/></g></g><g id="Bug_-_Frame_2" data-name="Bug - Frame 2"><path id="Shadow-2" data-name="Shadow" class="cls-1" d="M51 26h20v1H51z"/><g id="Color_area_-_Grade_3-2" data-name="Color area - Grade 3"><path class="cls-2" d="M69 20h2v2h-2zM67 18h2v2h-2z"/></g><g id="Color_area_-_White-2" data-name="Color area - White"><path class="cls-3" d="M61 18h2v2h-2zM59 16h2v2h-2zM67 22h2v2h-2z"/></g><path id="Color_area_-_Grade_2-2" data-name="Color area - Grade 2" class="cls-4" d="M51 24h14v-4h-4v-2h-2v-2h-4v2h-2v2h-2v4z"/><path id="Color_area_-_Grade_1-2" data-name="Color area - Grade 1" class="cls-5" d="M57 14v2h4v2h2v2h2v-4h-2v-2h-6z"/><g id="Color_area_-_Grade_4-2" data-name="Color area - Grade 4"><path class="cls-6" d="M71 16h2v2h-2zM73 18h2v4h-2zM69 22v2h-2v-2h2v-2h-2v-2h-2v6H51v2h2v1h2v-1h7v1h2v-1h7v-2h2v-2h-4z"/></g></g><g id="Bug_-_Smoking_-_Frame_1" data-name="Bug - Smoking - Frame 1"><g id="Color_area_-_Grade_4-3" data-name="Color area - Grade 4"><path class="cls-6" d="M29 61h2v2h-2zM31 63h2v4h-2z"/></g><path id="Color_area_-_Grade_3-3" data-name="Color area - Grade 3" class="cls-2" d="M23 67h8v2h-8z"/><g id="Ash"><path class="cls-7" d="M10 49h2v2h-2zM6 56h2v2H6z"/><path class="cls-8" d="M23 65h6v2h-6zM14 64h2v2h-2zM21 61h2v2h-2z"/><path class="cls-9" d="M3 48h2v2H3z"/><path class="cls-8" d="M14 58h2v2h-2z"/><path class="cls-7" d="M12 56h2v2h-2z"/><path class="cls-8" d="M21 65h-2v2h-2v2h6v-2h-2v-2z"/></g></g><g id="Bug_-_Smoking_-_Frame_2" data-name="Bug - Smoking - Frame 2"><g id="Color_area_-_Grade_4-4" data-name="Color area - Grade 4"><path class="cls-6" d="M71 61h2v2h-2zM73 63h2v4h-2z"/></g><path id="Color_area_-_Grade_3-4" data-name="Color area - Grade 3" class="cls-2" d="M65 67h8v2h-8z"/><g id="Ash-2" data-name="Ash"><path class="cls-7" d="M48 46h2v2h-2zM51 60h2v2h-2z"/><path class="cls-8" d="M65 65h6v2h-6zM59 67h6v2h-6zM53 62h2v2h-2zM61 59h2v2h-2z"/><path class="cls-9" d="M45 48h2v2h-2z"/><path class="cls-7" d="M56 55h2v2h-2zM45 62h2v2h-2zM44 54h2v2h-2zM58 52h2v2h-2zM49 51h2v2h-2z"/><path class="cls-9" d="M42 42h2v2h-2z"/></g></g><g id="Bug_-_Fly_-_Frame_1-2" data-name="Bug - Fly - Frame 1"><g id="Color_area_-_Grade_1-3" data-name="Color area - Grade 1"><path class="cls-5" d="M21 95h2v4h-2zM19 93h2v2h-2zM13 91v2h2v2h2v-2h2v-2h-6z"/></g><g id="Color_area_-_White-3" data-name="Color area - White"><path class="cls-3" d="M19 95h2v2h-2zM17 93h2v2h-2zM25 101h2v2h-2z"/></g><g id="Color_area_-_Grade_4-5" data-name="Color area - Grade 4"><path class="cls-6" d="M29 95h2v2h-2zM31 97h2v4h-2zM27 101v2h-2v-2h2v-2h-2v-2h-2v6h-4v2h-4v2h-2v2h6v-2h4v-2h6v-2h2v-2h-4z"/><path class="cls-6" d="M23 107h2v2h-2zM19 109h2v2h-2z"/></g><g id="Color_area_-_Grade_3-5" data-name="Color area - Grade 3"><path class="cls-2" d="M27 99h2v2h-2zM25 97h2v2h-2zM21 101h2v2h-2zM19 99v-2h-4v2h2v2h4v-2h-2z"/></g><g id="Colo_area_-_Grade_2" data-name="Colo area - Grade 2"><path class="cls-4" d="M21 99h2v2h-2zM19 97h2v2h-2zM15 95v-2h-2v4h6v-2h-4z"/></g><g id="Wings"><path class="cls-10" d="M17 101v-2h-6v2h4v2h-2v4h2v-2h4v-2h2v-2h-4z"/><path class="cls-3" d="M13 101h2v2h-2zM9 99h2v2H9zM13 103H7v2h2v2h4v-4z"/></g></g><g id="Bug_-_Fly_-_Frame_2-2" data-name="Bug - Fly - Frame 2"><g id="Color_area_-_Grade_1-4" data-name="Color area - Grade 1"><path class="cls-5" d="M63 95h2v4h-2zM61 93h2v2h-2zM55 91v2h2v2h2v-2h2v-2h-6z"/></g><g id="Color_area_-_White-4" data-name="Color area - White"><path class="cls-3" d="M61 95h2v2h-2zM59 93h2v2h-2zM67 101h2v2h-2z"/></g><g id="Color_area_-_Grade_4-6" data-name="Color area - Grade 4"><path class="cls-6" d="M71 95h2v2h-2zM73 97h2v4h-2zM69 101v2h-2v-2h2v-2h-2v-2h-2v6h-4v2h-4v2h-2v2h6v-2h4v-2h6v-2h2v-2h-4z"/><path class="cls-6" d="M65 107h2v2h-2zM61 109h2v2h-2z"/></g><g id="Color_area_-_Grade_3-6" data-name="Color area - Grade 3"><path class="cls-2" d="M69 99h2v2h-2zM67 97h2v2h-2zM63 101h2v2h-2zM61 99v-2h-4v2h2v2h4v-2h-2z"/></g><g id="Color_area_-_Grade_2-3" data-name="Color area - Grade 2"><path class="cls-4" d="M63 99h2v2h-2zM61 97h2v2h-2zM57 95v-2h-2v4h6v-2h-4z"/></g><g id="Wings-2" data-name="Wings"><path class="cls-10" d="M59 101v-2h-2v-2h-4v4h4v2h6v-2h-4z"/><path class="cls-3" d="M57 101h-4v-2h-4v2h-2v2h2v2h6v2h2v-2h4v-2h-4v-2z"/></g></g></svg>