<svg id="Landmine_-_Beam_crash_-_Frame_1" data-name="Landmine - Beam crash - Frame 1" xmlns="http://www.w3.org/2000/svg" width="126" height="42" viewBox="0 0 126 42"><defs><style>.cls-1{fill:#ecffd9}</style></defs><title>Assets Export</title><path class="cls-1" d="M34 33h1v1h-1zM10 25h1v1.01h-1zM15 32.99h1V34h-1zM28 32h1v1.01h-1zM29 35h-1v1h-2v3H15v-1h-1v-2h-1v-1h-1v-1h-2v1.01l1-.01v1.01l1-.01v2h1v2h-1v-1h-2v1h1v1h1v1h16v-1h2v-1h-1v-1h-1v-1h3v-1h-1v-2h1v-1h-2v1zM7 29h4v4H7zM76 33h1v1h-1zM50 27h2v2h-2zM54 28h1v1.01h-1zM56 29.99h1V31h-1zM77 29h1v1.01h-1zM72 35h-1v1h-3v3H58v-3h-1v-1h-1v-2h-1v-1h-1v-1h-2v1.01l1-.01v1.01l1-.01v2h1v5h-2v-1h-2v1h1v1h2v1h16v-1h6v-1h-3v-1h-1v-1h2v-2h1v-1h1v-1h-4v1zM121 31h1v1h-1zM96 26h1v1.01h-1zM90 24.99h1V26h-1z"/><path class="cls-1" d="M114 33h-1v2h-3v4h-10v-5h-1v-1h-1v-4h-1v-1h-1v-1h-2v1.01l1-.01v1.01l1-.01v4h1v2h-2v-1h-3v1h2v1h2v2h-3v1h1v1h2v2h16v-1h6v-1h-3v-1h-1v-1h2v-4h3v-1h2v-1h-7v1zM123 28h1v1.01h-1zM93 24h1v1.01h-1z"/></svg>