<svg id="Bixiette_-_Frame_2" data-name="Bixiette - Frame 2" xmlns="http://www.w3.org/2000/svg" width="168" height="84" viewBox="0 0 168 84"><defs><style>.cls-1,.cls-2,.cls-3{fill:#ffda74}.cls-1{opacity:.5}.cls-2{opacity:.3}</style></defs><title>Assets Export</title><path class="cls-1" d="M14 64h2v2h-2zM20 64h2v2h-2z"/><path class="cls-2" d="M16 64h2v2h-2zM18 62h2v2h-2zM22 64h2v2h-2zM24 62h2v2h-2zM10 64h2v2h-2zM12 62h2v2h-2z"/><path class="cls-3" d="M28 62v2h-4v2h-4v-2h-2v2h-4v-2h-2v2h-2v-4H8v6h2v2h16v-2h2v-2h2v-4h-2zM70 52v-4h-2v4h-2v2h-4v-2h-2v2h-4v-2h-2v2h-2v-4h-2v6h2v4h2v-2h2v4h2v-4h4v4h2v-4h4v2h2v-4h2v-4h-2z"/><path class="cls-3" d="M56 48h2v4h-2zM62 48h2v4h-2z"/><path class="cls-2" d="M70 50.02h2v2h-2zM56 46.01h2v2h-2zM62 46.01h2v2h-2zM68 46.03h2v2h-2zM54 50.02h2v2h-2zM52 52.02h2v2h-2zM66 52h-4v-2h-2v2h-2v2h2v-2h2v2h4v-2h2v-2h-2v2zM100 33.05h2v2h-2z"/><path class="cls-3" d="M100 35h2v4h-2z"/><path class="cls-2" d="M102 31.05h2v2h-2z"/><path class="cls-3" d="M102 33h2v4h-2z"/><path class="cls-2" d="M106 33.05h2v2h-2z"/><path class="cls-3" d="M106 35h2v4h-2z"/><path class="cls-2" d="M96 31.05h2v2h-2z"/><path class="cls-3" d="M96 33h2v6h-2zM112 33h2v4h-2z"/><path class="cls-2" d="M112 31.05h2v2h-2z"/><path class="cls-3" d="M98 29h2v4h-2z"/><path class="cls-2" d="M98 27.04h2v2h-2z"/><path class="cls-3" d="M104 29h2v4h-2z"/><path class="cls-2" d="M104 27.04h2v2h-2z"/><path class="cls-3" d="M110 29h2v4h-2z"/><path class="cls-2" d="M110 27.06h2v2h-2z"/><path class="cls-3" d="M92 31h2v6h-2z"/><path class="cls-2" d="M138 21.05h2v2h-2z"/><path class="cls-3" d="M138 23h2v2h-2z"/><path class="cls-2" d="M140 19.05h2v2h-2z"/><path class="cls-3" d="M140 21h2v2h-2z"/><path class="cls-2" d="M144 21.05h2v2h-2z"/><path class="cls-3" d="M144 23h2v2h-2z"/><path class="cls-2" d="M134 19.05h2v2h-2z"/><path class="cls-3" d="M134 21h2v2h-2zM150 21h2v2h-2z"/><path class="cls-2" d="M150 19.05h2v2h-2z"/><path class="cls-3" d="M136 17h2v2h-2z"/><path class="cls-2" d="M136 15.04h2v2h-2z"/><path class="cls-3" d="M142 17h2v2h-2z"/><path class="cls-2" d="M142 15.04h2v2h-2z"/><path class="cls-3" d="M148 17h2v2h-2z"/><path class="cls-2" d="M148 15.06h2v2h-2z"/></svg>