<svg id="Bixiette_-_Frame_1" data-name="Bixiette - Frame 1" xmlns="http://www.w3.org/2000/svg" width="336" height="168" viewBox="0 0 336 168"><defs><style>.cls-1{fill:#aaa;opacity:.3}.cls-2{fill:#af4f00}.cls-3{fill:#fab900}.cls-4{fill:#892700}.cls-5{fill:#f3980f}.cls-6{fill:#db6d00}.cls-7{fill:#fff}.cls-8{fill:none}.cls-9{fill:#333}.cls-10{fill:#103a22}.cls-11{fill:#b3b3b3}.cls-12{fill:#e6e6e6}</style></defs><title>Assets Export</title><path id="Shadow" class="cls-1" d="M27 66v-2H15v2h-2v2h2v2h12v-2h2v-2h-2z"/><g id="Light_player_color_areas" data-name="Light player color areas"><path class="cls-2" d="M29 48h-6v2h-2v8h8V48zM15 54h2v4h-2zM17 48h2v2h-2z"/></g><path class="cls-3" d="M17 54h4v2h-4zM17 50h4v2h-4z"/><path class="cls-4" d="M17 56h4v2h-4zM17 52h4v2h-4zM19 48h4v2h-4z"/><path class="cls-5" d="M23 54h-4v4h4v-4z"/><path class="cls-6" d="M13 26h2v2h-2z"/><path class="cls-5" d="M19 16h2v2h-2zM23 16h2v2h-2zM19 44v-2h-2v-2h4v-6h2v2h2v-6h-2v2h-6v2h-4v2h-2v-2H9v6h2v2h2v2h4v2h10v-2h-8z"/><path id="Hat_-white" data-name="Hat -white" class="cls-7" d="M33 26v-2h-2v-2h-4v-2H13v2h-2v4H9v4h26v-4h-2z"/><path class="cls-3" d="M19 44h10v-4h-2v-8h-2v4h-4v2h2-2v2h-4v2h2v2z"/><path class="cls-6" d="M21 16h2v4h-2zM15 50h2v4h-2zM25 48v2h-2v6h4v-2h2v-6h-4zM23 30H3v2h2v2h12v-2h6v-2zM13 26h2v2h-2z"/><path class="cls-8" d="M11 40h2v2h-2zM15 24h2v2h-2z"/><path class="cls-9" d="M19 46h6v2h-6zM15 66h2v2h2v-4h2v-4h8v-2H15v8zM15 24h2v2h-2v2h4v-6h-6v4h2v-2zM11 34h2v2h-2zM17 46v-2h-4v-2h-2v-2H9v-6H7v8h2v4h8zM21 34h2v2h-2zM21 38h2v2h-2z"/><path class="cls-9" d="M11 38h2v2h-2zM13 40h8v2h-8zM35 44V30H25v2h2v8h2v4h-2v2h10v-2h-2z"/><path class="cls-10" d="M19 60v2h2v2h8v-2h2v-2H19z"/><path class="cls-3" d="M31 34h2v4h-2z"/><path id="Shadow-2" data-name="Shadow" class="cls-1" d="M71 66v-2H57v2h-2v2h2v2h14v-2h2v-2h-2z"/><g id="Light_player_color_areas-2" data-name="Light player color areas"><path class="cls-2" d="M71 48h-6v2h-2v8h8V48zM57 54h2v4h-2zM59 48h2v2h-2z"/></g><path class="cls-3" d="M59 54h4v2h-4zM59 50h4v2h-4z"/><path class="cls-9" d="M61 46h6v2h-6zM57 58v6h2v2h2v2h2v-4h2v-2h6v-4H57z"/><path class="cls-10" d="M65 62v2h2v2h2v2h2v-6h-6z"/><path class="cls-4" d="M59 56h4v2h-4zM59 52h4v2h-4zM61 48h4v2h-4z"/><path class="cls-5" d="M73 56h-4v4h4v-4zM57 56h-2v4h2v-4z"/><path class="cls-6" d="M57 50h2v4h-2zM71 50v-2h-4v6h2v2h4v-6h-2zM55 52h2v4h-2zM63 16h2v4h-2zM55 26h2v2h-2zM59 34v-2h6v-2H45v2h2v2h12z"/><path class="cls-5" d="M61 16h2v2h-2zM65 16h2v2h-2zM61 44v-2h-2v-2h4v-6h2v2h2v-6h-2v2h-6v2h-4v2h-2v-2h-2v6h2v2h2v2h4v2h10v-2h-8z"/><path id="Hat_-white-2" data-name="Hat -white" class="cls-7" d="M75 26v-2h-2v-2h-4v-2H55v2h-2v4h-2v4h26v-4h-2z"/><path class="cls-3" d="M61 44h10v-4h-2v-8h-2v4h-4v2h2-2v2h-4v2h2v2z"/><path class="cls-6" d="M55 26h2v2h-2z"/><path class="cls-9" d="M57 24h2v2h-2v2h4v-6h-6v4h2v-2zM53 34h2v2h-2zM55 42h-2v-2h-2v-6h-2v8h2v4h8v-2h-4v-2zM63 34h2v2h-2zM63 38h2v2h-2z"/><path class="cls-9" d="M53 38h2v2h-2zM55 40h8v2h-8zM77 44V30H67v2h2v8h2v4h-2v2h10v-2h-2z"/><path class="cls-3" d="M73 34h2v4h-2z"/><path id="Shadow-3" data-name="Shadow" class="cls-1" d="M113 66v-2H99v2h-2v2h2v2h14v-2h2v-2h-2z"/><g id="Light_player_color_areas-3" data-name="Light player color areas"><path class="cls-2" d="M113 48h-6v2h-2v8h8V48zM99 50h2v8h-2zM101 48h2v2h-2z"/></g><path class="cls-3" d="M101 54h4v2h-4zM101 50h4v2h-4z"/><path class="cls-9" d="M103 46h6v2h-6zM99 58v6h2v2h2v2h2v-6h8v-4H99z"/><path class="cls-10" d="M111 62v-2h-4v2h-2v6h2v-2h4v-2h2v-2h-2z"/><path class="cls-6" d="M115 51v-2h-2v-1h-4v2h1v2h3v2h4v-3h-2zM97 52h-2v4h4v-6h-2v2zM99 48h2v2h-2z"/><path class="cls-4" d="M101 56h4v2h-4zM101 52h4v2h-4zM103 48h4v2h-4z"/><path class="cls-5" d="M119 54h-4v4h4v-4zM97 54h-4v4h4v-4z"/><path class="cls-6" d="M105 16h2v4h-2zM97 26h2v2h-2zM101 34v-2h6v-2H87v2h2v2h12z"/><path class="cls-5" d="M103 16h2v2h-2zM107 16h2v2h-2zM103 44v-2h-2v-2h4v-6h2v2h2v-6h-2v2h-6v2h-4v2h-2v-2h-2v6h2v2h2v2h4v2h10v-2h-8z"/><path id="Hat_-white-3" data-name="Hat -white" class="cls-7" d="M117 26v-2h-2v-2h-4v-2H97v2h-2v4h-2v4h26v-4h-2z"/><path class="cls-3" d="M103 44h10v-4h-2v-8h-2v4h-4v2h2-2v2h-4v2h2v2z"/><path class="cls-6" d="M97 26h2v2h-2z"/><path class="cls-9" d="M99 24h2v2h-2v2h4v-6h-6v4h2v-2zM95 34h2v2h-2zM97 42h-2v-2h-2v-6h-2v8h2v4h8v-2h-4v-2zM105 34h2v2h-2zM105 38h2v2h-2z"/><path class="cls-9" d="M95 38h2v2h-2zM97 40h8v2h-8zM119 44V30h-10v2h2v8h2v4h-2v2h10v-2h-2z"/><path class="cls-3" d="M115 34h2v4h-2z"/><g id="Player_character_-_Movement_2" data-name="Player character - Movement 2"><path id="Shadow-4" data-name="Shadow" class="cls-1" d="M155 66v-2h-14v2h-2v2h2v2h14v-2h2v-2h-2z"/><g id="Light_player_color_areas-4" data-name="Light player color areas"><path class="cls-2" d="M155 48h-6v2h-2v8h8V48zM141 50h2v8h-2zM143 48h2v2h-2z"/></g><path class="cls-3" d="M143 54h4v2h-4zM143 50h4v2h-4z"/><path class="cls-9" d="M145 46h6v2h-6zM141 60h2v2h-2z"/><path class="cls-9" d="M141 58v4h2v2h2v2h2v2h2v-6h6v-4h-14z"/><path class="cls-10" d="M153 62v-2h-4v2h-2v2h-2v2h8v-2h2v-2h-2z"/><path class="cls-6" d="M157 50v-1h-2v-1h-4v2h1v1h3v1h4v-2h-2zM141 48v1h-3v2h-2v3h4v-2h1v-2h2v-2h-2z"/><path class="cls-4" d="M143 56h4v2h-4zM143 52h4v2h-4zM145 48h4v2h-4z"/><path class="cls-5" d="M161 52h-4v4h4v-4zM139 52h-4v4h4v-4z"/><path class="cls-6" d="M147 16h2v4h-2zM139 26h2v2h-2zM143 34v-2h6v-2h-20v2h2v2h12z"/><path class="cls-5" d="M145 16h2v2h-2zM149 16h2v2h-2zM145 44v-2h-2v-2h4v-6h2v2h2v-6h-2v2h-6v2h-4v2h-2v-2h-2v6h2v2h2v2h4v2h10v-2h-8z"/><path id="Hat_-white-4" data-name="Hat -white" class="cls-7" d="M159 26v-2h-2v-2h-4v-2h-14v2h-2v4h-2v4h26v-4h-2z"/><path class="cls-3" d="M145 44h10v-4h-2v-8h-2v4h-4v2h2-2v2h-4v2h2v2z"/><path class="cls-6" d="M139 26h2v2h-2z"/><path class="cls-9" d="M141 24h2v2h-2v2h4v-6h-6v4h2v-2zM137 34h2v2h-2zM139 42h-2v-2h-2v-6h-2v8h2v4h8v-2h-4v-2zM147 34h2v2h-2zM147 38h2v2h-2z"/><path class="cls-9" d="M137 38h2v2h-2zM139 40h8v2h-8zM161 44V30h-10v2h2v8h2v4h-2v2h10v-2h-2z"/><path class="cls-3" d="M157 34h2v4h-2z"/></g><g id="Player_character_-_Movement_2-2" data-name="Player character - Movement 2"><path id="Shadow-5" data-name="Shadow" class="cls-1" d="M197 66v-2h-14v2h-2v2h2v2h14v-2h2v-2h-2z"/><g id="Light_player_color_areas-5" data-name="Light player color areas"><path class="cls-2" d="M197 48h-6v2h-2v8h8V48zM183 50h2v8h-2zM185 48h2v2h-2z"/></g><path class="cls-3" d="M185 54h4v2h-4zM185 50h4v2h-4z"/><path class="cls-9" d="M187 46h6v2h-6zM183 58v4h2v2h2v2h4v-4h6v-4h-14z"/><path class="cls-10" d="M195 62v-2h-2v2h-2v6h2v-2h2v-2h2v-2h-2z"/><path class="cls-6" d="M199 51v-2h-2v-1h-4v2h1v2h3v2h4v-3h-2zM181 52h-2v4h4v-6h-2v2zM183 48h2v2h-2z"/><path class="cls-4" d="M185 56h4v2h-4zM185 52h4v2h-4zM187 48h4v2h-4z"/><path class="cls-5" d="M203 54h-4v4h4v-4zM181 54h-4v4h4v-4z"/><path class="cls-6" d="M189 16h2v4h-2zM181 26h2v2h-2zM185 34v-2h6v-2h-20v2h2v2h12z"/><path class="cls-5" d="M187 16h2v2h-2zM191 16h2v2h-2zM187 44v-2h-2v-2h4v-6h2v2h2v-6h-2v2h-6v2h-4v2h-2v-2h-2v6h2v2h2v2h4v2h10v-2h-8z"/><path id="Hat_-white-5" data-name="Hat -white" class="cls-7" d="M201 26v-2h-2v-2h-4v-2h-14v2h-2v4h-2v4h26v-4h-2z"/><path class="cls-3" d="M187 44h10v-4h-2v-8h-2v4h-4v2h2-2v2h-4v2h2v2z"/><path class="cls-6" d="M181 26h2v2h-2z"/><path class="cls-9" d="M183 24h2v2h-2v2h4v-6h-6v4h2v-2zM179 34h2v2h-2zM181 42h-2v-2h-2v-6h-2v8h2v4h8v-2h-4v-2zM189 34h2v2h-2zM189 38h2v2h-2z"/><path class="cls-9" d="M179 38h2v2h-2zM181 40h8v2h-8zM203 44V30h-10v2h2v8h2v4h-2v2h10v-2h-2z"/><path class="cls-3" d="M199 34h2v4h-2z"/></g><g id="Player_character_-_Movement_2-3" data-name="Player character - Movement 2"><path id="Shadow-6" data-name="Shadow" class="cls-1" d="M239 66v-2h-14v2h-2v2h2v2h14v-2h2v-2h-2z"/><g id="Light_player_color_areas-6" data-name="Light player color areas"><path class="cls-2" d="M239 48h-6v2h-2v8h8V48zM225 54h2v4h-2zM227 48h2v2h-2z"/></g><path class="cls-3" d="M227 54h4v2h-4zM227 50h4v2h-4z"/><path class="cls-9" d="M229 46h6v2h-6zM225 58v6h2v2h2v2h2v-4h2v-2h6v-4h-14z"/><path class="cls-10" d="M233 62v2h2v2h2v2h2v-6h-6z"/><path class="cls-4" d="M227 56h4v2h-4zM227 52h4v2h-4zM229 48h4v2h-4z"/><path class="cls-5" d="M241 56h-4v4h4v-4zM225 56h-2v4h2v-4z"/><path class="cls-6" d="M239 50v-2h-4v6h2v2h4v-6h-2zM225 50v2h-2v4h2v-2h2v-4h-2zM231 16h2v4h-2zM223 26h2v2h-2zM227 34v-2h6v-2h-20v2h2v2h12z"/><path class="cls-5" d="M229 16h2v2h-2zM233 16h2v2h-2zM229 44v-2h-2v-2h4v-6h2v2h2v-6h-2v2h-6v2h-4v2h-2v-2h-2v6h2v2h2v2h4v2h10v-2h-8z"/><path id="Hat_-white-6" data-name="Hat -white" class="cls-7" d="M243 26v-2h-2v-2h-4v-2h-14v2h-2v4h-2v4h26v-4h-2z"/><path class="cls-3" d="M229 44h10v-4h-2v-8h-2v4h-4v2h2-2v2h-4v2h2v2z"/><path class="cls-6" d="M223 26h2v2h-2z"/><path class="cls-9" d="M225 24h2v2h-2v2h4v-6h-6v4h2v-2zM221 34h2v2h-2zM223 42h-2v-2h-2v-6h-2v8h2v4h8v-2h-4v-2zM231 34h2v2h-2zM231 38h2v2h-2z"/><path class="cls-9" d="M221 38h2v2h-2zM223 40h8v2h-8zM245 44V30h-10v2h2v8h2v4h-2v2h10v-2h-2z"/><path class="cls-3" d="M241 34h2v4h-2z"/></g><g id="Player_character_-_Movement_2-4" data-name="Player character - Movement 2"><path id="Shadow-7" data-name="Shadow" class="cls-1" d="M281 66v-2h-14v2h-2v2h2v2h14v-2h2v-2h-2z"/><g id="Light_player_color_areas-7" data-name="Light player color areas"><path class="cls-2" d="M281 48h-6v2h-2v8h8V48zM267 54h2v4h-2zM269 48h2v2h-2z"/></g><path class="cls-3" d="M269 54h4v2h-4zM269 50h4v2h-4z"/><path class="cls-9" d="M271 46h6v2h-6zM267 58v-2h-2v8h2v2h2v-2h2v-4h8v2h2v-4h-14z"/><path class="cls-10" d="M281 64v-2h-2v-2h-8v2h2v2h2v2h8v-2h-2z"/><path class="cls-4" d="M269 56h4v2h-4zM269 52h4v2h-4zM271 48h4v2h-4z"/><path class="cls-5" d="M275 54h-4v4h4v-4z"/><path class="cls-6" d="M267 50h2v4h-2zM281 48h-4v2h-2v6h4v-2h2v-6zM273 16h2v4h-2zM265 26h2v2h-2zM269 34v-2h6v-2h-20v2h2v2h12z"/><path class="cls-5" d="M271 16h2v2h-2zM275 16h2v2h-2zM271 44v-2h-2v-2h4v-6h2v2h2v-6h-2v2h-6v2h-4v2h-2v-2h-2v6h2v2h2v2h4v2h10v-2h-8z"/><path id="Hat_-white-7" data-name="Hat -white" class="cls-7" d="M285 26v-2h-2v-2h-4v-2h-14v2h-2v4h-2v4h26v-4h-2z"/><path class="cls-3" d="M271 44h10v-4h-2v-8h-2v4h-4v2h2-2v2h-4v2h2v2z"/><path class="cls-6" d="M265 26h2v2h-2z"/><path class="cls-9" d="M267 24h2v2h-2v2h4v-6h-6v4h2v-2zM263 34h2v2h-2zM265 42h-2v-2h-2v-6h-2v8h2v4h8v-2h-4v-2zM273 34h2v2h-2zM273 38h2v2h-2z"/><path class="cls-9" d="M263 38h2v2h-2zM265 40h8v2h-8zM287 44V30h-10v2h2v8h2v4h-2v2h10v-2h-2z"/><path class="cls-3" d="M283 34h2v4h-2z"/></g><g id="Player_character_-_Movement_2-5" data-name="Player character - Movement 2"><path id="Shadow-8" data-name="Shadow" class="cls-1" d="M323 66v-2h-12v2h-2v2h2v2h12v-2h2v-2h-2z"/><g id="Light_player_color_areas-8" data-name="Light player color areas"><path class="cls-2" d="M323 48h-6v2h-2v8h8V48zM309 54h2v4h-2zM311 48h2v2h-2z"/></g><path class="cls-3" d="M311 54h4v2h-4zM311 50h4v2h-4z"/><path class="cls-9" d="M313 46h6v2h-6zM309 58v6h4v-2h2v-2h8v-2h-14z"/><path class="cls-9" d="M321 60h2v2h-2z"/><path class="cls-10" d="M325 62v-2h-10v2h2v2h10v-2h-2z"/><path class="cls-6" d="M309 50h2v4h-2zM323 48h-4v2h-2v1h-1v4h3v-1h2v-1h2v-5z"/><path class="cls-4" d="M311 56h4v2h-4zM311 52h4v2h-4zM313 48h4v2h-4z"/><path class="cls-5" d="M316 51h-4v4h4v-4z"/><path class="cls-6" d="M315 16h2v4h-2zM307 26h2v2h-2zM311 34v-2h6v-2h-20v2h2v2h12z"/><path class="cls-5" d="M313 16h2v2h-2zM317 16h2v2h-2zM313 44v-2h-2v-2h4v-6h2v2h2v-6h-2v2h-6v2h-4v2h-2v-2h-2v6h2v2h2v2h4v2h10v-2h-8z"/><path id="Hat_-white-8" data-name="Hat -white" class="cls-7" d="M327 26v-2h-2v-2h-4v-2h-14v2h-2v4h-2v4h26v-4h-2z"/><path class="cls-3" d="M313 44h10v-4h-2v-8h-2v4h-4v2h2-2v2h-4v2h2v2z"/><path class="cls-6" d="M307 26h2v2h-2z"/><path class="cls-9" d="M309 24h2v2h-2v2h4v-6h-6v4h2v-2zM305 34h2v2h-2zM307 42h-2v-2h-2v-6h-2v8h2v4h8v-2h-4v-2zM315 34h2v2h-2zM315 38h2v2h-2z"/><path class="cls-9" d="M305 38h2v2h-2zM307 40h8v2h-8zM329 44V30h-10v2h2v8h2v4h-2v2h10v-2h-2z"/><path class="cls-3" d="M325 34h2v4h-2z"/></g><path id="Shadow-9" data-name="Shadow" class="cls-1" d="M27 150v-2H15v2h-2v2h2v2h12v-2h2v-2h-2z"/><g id="Light_player_color_areas-9" data-name="Light player color areas"><path class="cls-2" d="M29 132h-6v2h-2v8h8v-10zM15 138h2v4h-2zM17 132h2v2h-2z"/></g><path class="cls-3" d="M17 138h4v2h-4zM17 134h4v2h-4z"/><path class="cls-4" d="M17 140h4v2h-4zM17 136h4v2h-4zM19 132h4v2h-4z"/><path class="cls-6" d="M13 110h2v2h-2z"/><path class="cls-5" d="M19 100h2v2h-2zM23 100h2v2h-2zM19 128v-2h-2v-2h4v-6h2v2h2v-6h-2v2h-6v2h-4v2h-2v-2H9v6h2v2h2v2h4v2h10v-2h-8z"/><path id="Hat_-white-9" data-name="Hat -white" class="cls-7" d="M33 110v-2h-2v-2h-4v-2H13v2h-2v4H9v4h26v-4h-2z"/><path class="cls-3" d="M19 128h10v-4h-2v-8h-2v4h-4v2h2-2v2h-4v2h2v2z"/><path class="cls-10" d="M19 144v2h2v2h8v-2h2v-2H19z"/><path class="cls-3" d="M31 118h2v4h-2z"/><path class="cls-8" d="M11 124h2v2h-2zM15 108h2v2h-2z"/><path class="cls-9" d="M19 130h6v2h-6zM15 150h2v2h2v-4h2v-4h8v-2H15v8zM15 108h2v2h-2v2h4v-6h-6v4h2v-2zM11 118h2v2h-2zM17 130v-2h-4v-2h-2v-2H9v-6H7v8h2v4h8zM21 118h2v2h-2zM21 122h2v2h-2z"/><path class="cls-9" d="M11 122h2v2h-2zM13 124h8v2h-8zM35 128v-14H25v2h2v8h2v4h-2v2h10v-2h-2z"/><path class="cls-11" d="M25 143h-1v1h-6v-1h-1v-1h-1v2h1v1h1v1h6v-1h1v-1h1v-2h-1v1z"/><path class="cls-12" d="M25 138v-1h-1v-1h-6v1h-1v1h-1v4h1v1h1v1h6v-1h1v-1h1v-4h-1zm-2 4h-4v-4h4v4z"/><path class="cls-11" d="M19 138h4v4h-4z"/><path class="cls-5" d="M23 138h-4v4h4v-4z"/><path class="cls-6" d="M21 100h2v4h-2zM15 134h2v4h-2zM25 132v2h-2v6h4v-2h2v-6h-4zM23 114H3v2h2v2h12v-2h6v-2zM13 110h2v2h-2z"/><path id="Shadow-10" data-name="Shadow" class="cls-1" d="M71 151v-2H57v2h-2v2h2v2h14v-2h2v-2h-2z"/><g id="Light_player_color_areas-10" data-name="Light player color areas"><path class="cls-2" d="M71 133h-6v2h-2v8h8v-10zM57 139h2v4h-2zM59 133h2v2h-2z"/></g><path class="cls-3" d="M59 139h4v2h-4zM59 135h4v2h-4z"/><path class="cls-9" d="M61 131h6v2h-6zM57 143v6h2v2h2v2h2v-4h2v-2h6v-4H57z"/><path class="cls-10" d="M65 147v2h2v2h2v2h2v-6h-6z"/><path class="cls-4" d="M59 141h4v2h-4zM59 137h4v2h-4zM61 133h4v2h-4z"/><path class="cls-5" d="M57 141h-2v4h2v-4z"/><path class="cls-6" d="M57 135h2v4h-2zM55 137h2v4h-2zM63 101h2v4h-2zM55 111h2v2h-2zM59 119v-2h6v-2H45v2h2v2h12z"/><path class="cls-5" d="M61 101h2v2h-2zM65 101h2v2h-2zM61 129v-2h-2v-2h4v-6h2v2h2v-6h-2v2h-6v2h-4v2h-2v-2h-2v6h2v2h2v2h4v2h10v-2h-8z"/><path id="Hat_-white-10" data-name="Hat -white" class="cls-7" d="M75 111v-2h-2v-2h-4v-2H55v2h-2v4h-2v4h26v-4h-2z"/><path class="cls-3" d="M61 129h10v-4h-2v-8h-2v4h-4v2h2-2v2h-4v2h2v2z"/><path class="cls-6" d="M55 111h2v2h-2z"/><path class="cls-9" d="M57 109h2v2h-2v2h4v-6h-6v4h2v-2zM53 119h2v2h-2zM55 127h-2v-2h-2v-6h-2v8h2v4h8v-2h-4v-2zM63 119h2v2h-2zM63 123h2v2h-2z"/><path class="cls-9" d="M53 123h2v2h-2zM55 125h8v2h-8zM77 129v-14H67v2h2v8h2v4h-2v2h10v-2h-2z"/><path class="cls-3" d="M73 119h2v4h-2z"/><path class="cls-11" d="M75 146h-1v1h-6v-1h-1v-1h-1v2h1v1h1v1h6v-1h1v-1h1v-2h-1v1z"/><path class="cls-12" d="M75 141v-1h-1v-1h-6v1h-1v1h-1v4h1v1h1v1h6v-1h1v-1h1v-4h-1zm-2 4h-4v-4h4v4z"/><path class="cls-11" d="M69 141h4v4h-4z"/><path class="cls-5" d="M73 141h-4v4h4v-4z"/><path class="cls-6" d="M71 135v-2h-4v6h2v2h4v-6h-2z"/><path id="Shadow-11" data-name="Shadow" class="cls-1" d="M113 151v-2H99v2h-2v2h2v2h14v-2h2v-2h-2z"/><g id="Light_player_color_areas-11" data-name="Light player color areas"><path class="cls-2" d="M113 133h-6v2h-2v8h8v-10zM99 135h2v8h-2zM101 133h2v2h-2z"/></g><path class="cls-3" d="M101 139h4v2h-4zM101 135h4v2h-4z"/><path class="cls-9" d="M103 131h6v2h-6zM99 143v6h2v2h2v2h2v-6h8v-4H99z"/><path class="cls-10" d="M111 147v-2h-4v2h-2v6h2v-2h4v-2h2v-2h-2z"/><path class="cls-6" d="M97 137h-2v4h4v-6h-2v2zM99 133h2v2h-2z"/><path class="cls-4" d="M101 141h4v2h-4zM101 137h4v2h-4zM103 133h4v2h-4z"/><path class="cls-5" d="M97 139h-4v4h4v-4z"/><path class="cls-6" d="M105 101h2v4h-2zM97 111h2v2h-2zM101 119v-2h6v-2H87v2h2v2h12z"/><path class="cls-5" d="M103 101h2v2h-2zM107 101h2v2h-2zM103 129v-2h-2v-2h4v-6h2v2h2v-6h-2v2h-6v2h-4v2h-2v-2h-2v6h2v2h2v2h4v2h10v-2h-8z"/><path id="Hat_-white-11" data-name="Hat -white" class="cls-7" d="M117 111v-2h-2v-2h-4v-2H97v2h-2v4h-2v4h26v-4h-2z"/><path class="cls-3" d="M103 129h10v-4h-2v-8h-2v4h-4v2h2-2v2h-4v2h2v2z"/><path class="cls-6" d="M97 111h2v2h-2z"/><path class="cls-9" d="M99 109h2v2h-2v2h4v-6h-6v4h2v-2zM95 119h2v2h-2zM97 127h-2v-2h-2v-6h-2v8h2v4h8v-2h-4v-2zM105 119h2v2h-2zM105 123h2v2h-2z"/><path class="cls-9" d="M95 123h2v2h-2zM97 125h8v2h-8zM119 129v-14h-10v2h2v8h2v4h-2v2h10v-2h-2z"/><path class="cls-3" d="M115 119h2v4h-2z"/><path class="cls-11" d="M121 144h-1v1h-6v-1h-1v-1h-1v2h1v1h1v1h6v-1h1v-1h1v-2h-1v1z"/><path class="cls-12" d="M121 139v-1h-1v-1h-6v1h-1v1h-1v4h1v1h1v1h6v-1h1v-1h1v-4h-1zm-2 4h-4v-4h4v4z"/><path class="cls-11" d="M115 139h4v4h-4z"/><path class="cls-6" d="M115 136v-2h-2v-1h-4v2h1v2h3v2h4v-3h-2z"/><path class="cls-5" d="M119 139h-4v4h4v-4z"/><g id="Player_character_-_Movement_2-6" data-name="Player character - Movement 2"><path id="Shadow-12" data-name="Shadow" class="cls-1" d="M155 151v-2h-14v2h-2v2h2v2h14v-2h2v-2h-2z"/><g id="Light_player_color_areas-12" data-name="Light player color areas"><path class="cls-2" d="M155 133h-6v2h-2v8h8v-10zM141 135h2v8h-2zM143 133h2v2h-2z"/></g><path class="cls-3" d="M143 139h4v2h-4zM143 135h4v2h-4z"/><path class="cls-9" d="M145 131h6v2h-6zM141 145h2v2h-2z"/><path class="cls-9" d="M141 143v4h2v2h2v2h2v2h2v-6h6v-4h-14z"/><path class="cls-10" d="M153 147v-2h-4v2h-2v2h-2v2h8v-2h2v-2h-2z"/><path class="cls-6" d="M141 133v1h-3v2h-2v3h4v-2h1v-2h2v-2h-2z"/><path class="cls-4" d="M143 141h4v2h-4zM143 137h4v2h-4zM145 133h4v2h-4z"/><path class="cls-5" d="M139 137h-4v4h4v-4z"/><path class="cls-6" d="M147 101h2v4h-2zM139 111h2v2h-2zM143 119v-2h6v-2h-20v2h2v2h12z"/><path class="cls-5" d="M145 101h2v2h-2zM149 101h2v2h-2zM145 129v-2h-2v-2h4v-6h2v2h2v-6h-2v2h-6v2h-4v2h-2v-2h-2v6h2v2h2v2h4v2h10v-2h-8z"/><path id="Hat_-white-12" data-name="Hat -white" class="cls-7" d="M159 111v-2h-2v-2h-4v-2h-14v2h-2v4h-2v4h26v-4h-2z"/><path class="cls-3" d="M145 129h10v-4h-2v-8h-2v4h-4v2h2-2v2h-4v2h2v2z"/><path class="cls-6" d="M139 111h2v2h-2z"/><path class="cls-9" d="M141 109h2v2h-2v2h4v-6h-6v4h2v-2zM137 119h2v2h-2zM139 127h-2v-2h-2v-6h-2v8h2v4h8v-2h-4v-2zM147 119h2v2h-2zM147 123h2v2h-2z"/><path class="cls-9" d="M137 123h2v2h-2zM139 125h8v2h-8zM161 129v-14h-10v2h2v8h2v4h-2v2h10v-2h-2z"/><path class="cls-3" d="M157 119h2v4h-2z"/><path class="cls-11" d="M163 142h-1v1h-6v-1h-1v-1h-1v2h1v1h1v1h6v-1h1v-1h1v-2h-1v1z"/><path class="cls-12" d="M163 137v-1h-1v-1h-6v1h-1v1h-1v4h1v1h1v1h6v-1h1v-1h1v-4h-1zm-2 4h-4v-4h4v4z"/><path class="cls-11" d="M157 137h4v4h-4z"/><path class="cls-6" d="M157 135v-1h-2v-1h-4v2h1v1h3v1h4v-2h-2z"/><path class="cls-5" d="M161 137h-4v4h4v-4z"/></g><g id="Player_character_-_Movement_2-7" data-name="Player character - Movement 2"><path id="Shadow-13" data-name="Shadow" class="cls-1" d="M197 150v-2h-14v2h-2v2h2v2h14v-2h2v-2h-2z"/><g id="Light_player_color_areas-13" data-name="Light player color areas"><path class="cls-2" d="M197 132h-6v2h-2v8h8v-10zM183 134h2v8h-2zM185 132h2v2h-2z"/></g><path class="cls-3" d="M185 138h4v2h-4zM185 134h4v2h-4z"/><path class="cls-9" d="M187 130h6v2h-6zM183 142v4h2v2h2v2h4v-4h6v-4h-14z"/><path class="cls-10" d="M195 146v-2h-2v2h-2v6h2v-2h2v-2h2v-2h-2z"/><path class="cls-6" d="M181 136h-2v4h4v-6h-2v2zM183 132h2v2h-2z"/><path class="cls-4" d="M185 140h4v2h-4zM185 136h4v2h-4zM187 132h4v2h-4z"/><path class="cls-5" d="M181 138h-4v4h4v-4z"/><path class="cls-6" d="M189 100h2v4h-2zM181 110h2v2h-2zM185 118v-2h6v-2h-20v2h2v2h12z"/><path class="cls-5" d="M187 100h2v2h-2zM191 100h2v2h-2zM187 128v-2h-2v-2h4v-6h2v2h2v-6h-2v2h-6v2h-4v2h-2v-2h-2v6h2v2h2v2h4v2h10v-2h-8z"/><path id="Hat_-white-13" data-name="Hat -white" class="cls-7" d="M201 110v-2h-2v-2h-4v-2h-14v2h-2v4h-2v4h26v-4h-2z"/><path class="cls-3" d="M187 128h10v-4h-2v-8h-2v4h-4v2h2-2v2h-4v2h2v2z"/><path class="cls-6" d="M181 110h2v2h-2z"/><path class="cls-9" d="M183 108h2v2h-2v2h4v-6h-6v4h2v-2zM179 118h2v2h-2zM181 126h-2v-2h-2v-6h-2v8h2v4h8v-2h-4v-2zM189 118h2v2h-2zM189 122h2v2h-2z"/><path class="cls-9" d="M179 122h2v2h-2zM181 124h8v2h-8zM203 128v-14h-10v2h2v8h2v4h-2v2h10v-2h-2z"/><path class="cls-3" d="M199 118h2v4h-2z"/><path class="cls-11" d="M205 143h-1v1h-6v-1h-1v-1h-1v2h1v1h1v1h6v-1h1v-1h1v-2h-1v1z"/><path class="cls-12" d="M205 138v-1h-1v-1h-6v1h-1v1h-1v4h1v1h1v1h6v-1h1v-1h1v-4h-1zm-2 4h-4v-4h4v4z"/><path class="cls-11" d="M199 138h4v4h-4z"/><path class="cls-6" d="M199 135v-2h-2v-1h-4v2h1v2h3v2h4v-3h-2z"/><path class="cls-5" d="M203 138h-4v4h4v-4z"/></g><g id="Player_character_-_Movement_2-8" data-name="Player character - Movement 2"><path id="Shadow-14" data-name="Shadow" class="cls-1" d="M239 150v-2h-14v2h-2v2h2v2h14v-2h2v-2h-2z"/><g id="Light_player_color_areas-14" data-name="Light player color areas"><path class="cls-2" d="M239 132h-6v2h-2v8h8v-10zM225 138h2v4h-2zM227 132h2v2h-2z"/></g><path class="cls-3" d="M227 138h4v2h-4zM227 134h4v2h-4z"/><path class="cls-9" d="M229 130h6v2h-6zM225 142v6h2v2h2v2h2v-4h2v-2h6v-4h-14z"/><path class="cls-10" d="M233 146v2h2v2h2v2h2v-6h-6z"/><path class="cls-4" d="M227 140h4v2h-4zM227 136h4v2h-4zM229 132h4v2h-4z"/><path class="cls-5" d="M225 140h-2v4h2v-4z"/><path class="cls-6" d="M225 134v2h-2v4h2v-2h2v-4h-2zM231 100h2v4h-2zM223 110h2v2h-2zM227 118v-2h6v-2h-20v2h2v2h12z"/><path class="cls-5" d="M229 100h2v2h-2zM233 100h2v2h-2zM229 128v-2h-2v-2h4v-6h2v2h2v-6h-2v2h-6v2h-4v2h-2v-2h-2v6h2v2h2v2h4v2h10v-2h-8z"/><path id="Hat_-white-14" data-name="Hat -white" class="cls-7" d="M243 110v-2h-2v-2h-4v-2h-14v2h-2v4h-2v4h26v-4h-2z"/><path class="cls-3" d="M229 128h10v-4h-2v-8h-2v4h-4v2h2-2v2h-4v2h2v2z"/><path class="cls-6" d="M223 110h2v2h-2z"/><path class="cls-9" d="M225 108h2v2h-2v2h4v-6h-6v4h2v-2zM221 118h2v2h-2zM223 126h-2v-2h-2v-6h-2v8h2v4h8v-2h-4v-2zM231 118h2v2h-2zM231 122h2v2h-2z"/><path class="cls-9" d="M221 122h2v2h-2zM223 124h8v2h-8zM245 128v-14h-10v2h2v8h2v4h-2v2h10v-2h-2z"/><path class="cls-3" d="M241 118h2v4h-2z"/><path class="cls-11" d="M243 145h-1v1h-6v-1h-1v-1h-1v2h1v1h1v1h6v-1h1v-1h1v-2h-1v1z"/><path class="cls-12" d="M243 140v-1h-1v-1h-6v1h-1v1h-1v4h1v1h1v1h6v-1h1v-1h1v-4h-1zm-2 4h-4v-4h4v4z"/><path class="cls-11" d="M237 140h4v4h-4z"/><path class="cls-5" d="M241 140h-4v4h4v-4z"/><path class="cls-6" d="M239 134v-2h-4v6h2v2h4v-6h-2z"/></g><g id="Player_character_-_Movement_2-9" data-name="Player character - Movement 2"><path id="Shadow-15" data-name="Shadow" class="cls-1" d="M281 151v-2h-14v2h-2v2h2v2h14v-2h2v-2h-2z"/><g id="Light_player_color_areas-15" data-name="Light player color areas"><path class="cls-2" d="M281 133h-6v2h-2v8h8v-10zM267 139h2v4h-2zM269 133h2v2h-2z"/></g><path class="cls-3" d="M269 139h4v2h-4zM269 135h4v2h-4z"/><path class="cls-9" d="M271 131h6v2h-6zM267 143v-2h-2v8h2v2h2v-2h2v-4h8v2h2v-4h-14z"/><path class="cls-10" d="M281 149v-2h-2v-2h-8v2h2v2h2v2h8v-2h-2z"/><path class="cls-4" d="M269 141h4v2h-4zM269 137h4v2h-4zM271 133h4v2h-4z"/><path class="cls-6" d="M267 135h2v4h-2zM273 101h2v4h-2zM265 111h2v2h-2zM269 119v-2h6v-2h-20v2h2v2h12z"/><path class="cls-5" d="M271 101h2v2h-2zM275 101h2v2h-2zM271 129v-2h-2v-2h4v-6h2v2h2v-6h-2v2h-6v2h-4v2h-2v-2h-2v6h2v2h2v2h4v2h10v-2h-8z"/><path id="Hat_-white-15" data-name="Hat -white" class="cls-7" d="M285 111v-2h-2v-2h-4v-2h-14v2h-2v4h-2v4h26v-4h-2z"/><path class="cls-3" d="M271 129h10v-4h-2v-8h-2v4h-4v2h2-2v2h-4v2h2v2z"/><path class="cls-6" d="M265 111h2v2h-2z"/><path class="cls-9" d="M267 109h2v2h-2v2h4v-6h-6v4h2v-2zM263 119h2v2h-2zM265 127h-2v-2h-2v-6h-2v8h2v4h8v-2h-4v-2zM273 119h2v2h-2zM273 123h2v2h-2z"/><path class="cls-9" d="M263 123h2v2h-2zM265 125h8v2h-8zM287 129v-14h-10v2h2v8h2v4h-2v2h10v-2h-2z"/><path class="cls-3" d="M283 119h2v4h-2z"/><path class="cls-11" d="M277 144h-1v1h-6v-1h-1v-1h-1v2h1v1h1v1h6v-1h1v-1h1v-2h-1v1z"/><path class="cls-12" d="M277 139v-1h-1v-1h-6v1h-1v1h-1v4h1v1h1v1h6v-1h1v-1h1v-4h-1zm-2 4h-4v-4h4v4z"/><path class="cls-11" d="M271 139h4v4h-4z"/><path class="cls-5" d="M275 139h-4v4h4v-4z"/><path class="cls-6" d="M281 133h-4v2h-2v6h4v-2h2v-6z"/></g><g id="Player_character_-_Movement_2-10" data-name="Player character - Movement 2"><path id="Shadow-16" data-name="Shadow" class="cls-1" d="M323 151v-2h-12v2h-2v2h2v2h12v-2h2v-2h-2z"/><g id="Light_player_color_areas-16" data-name="Light player color areas"><path class="cls-2" d="M323 133h-6v2h-2v8h8v-10zM309 139h2v4h-2zM311 133h2v2h-2z"/></g><path class="cls-3" d="M311 139h4v2h-4zM311 135h4v2h-4z"/><path class="cls-9" d="M313 131h6v2h-6zM309 143v6h4v-2h2v-2h8v-2h-14z"/><path class="cls-9" d="M321 145h2v2h-2z"/><path class="cls-10" d="M325 147v-2h-10v2h2v2h10v-2h-2z"/><path class="cls-6" d="M309 135h2v4h-2z"/><path class="cls-4" d="M311 141h4v2h-4zM311 137h4v2h-4zM313 133h4v2h-4z"/><path class="cls-6" d="M315 101h2v4h-2zM307 111h2v2h-2zM311 119v-2h6v-2h-20v2h2v2h12z"/><path class="cls-5" d="M313 101h2v2h-2zM317 101h2v2h-2zM313 129v-2h-2v-2h4v-6h2v2h2v-6h-2v2h-6v2h-4v2h-2v-2h-2v6h2v2h2v2h4v2h10v-2h-8z"/><path id="Hat_-white-16" data-name="Hat -white" class="cls-7" d="M327 111v-2h-2v-2h-4v-2h-14v2h-2v4h-2v4h26v-4h-2z"/><path class="cls-3" d="M313 129h10v-4h-2v-8h-2v4h-4v2h2-2v2h-4v2h2v2z"/><path class="cls-6" d="M307 111h2v2h-2z"/><path class="cls-9" d="M309 109h2v2h-2v2h4v-6h-6v4h2v-2zM305 119h2v2h-2zM307 127h-2v-2h-2v-6h-2v8h2v4h8v-2h-4v-2zM315 119h2v2h-2zM315 123h2v2h-2z"/><path class="cls-9" d="M305 123h2v2h-2zM307 125h8v2h-8zM329 129v-14h-10v2h2v8h2v4h-2v2h10v-2h-2z"/><path class="cls-3" d="M325 119h2v4h-2z"/><path class="cls-11" d="M318 141h-1v1h-6v-1h-1v-1h-1v2h1v1h1v1h6v-1h1v-1h1v-2h-1v1z"/><path class="cls-12" d="M318 136v-1h-1v-1h-6v1h-1v1h-1v4h1v1h1v1h6v-1h1v-1h1v-4h-1zm-2 4h-4v-4h4v4z"/><path class="cls-11" d="M312 136h4v4h-4z"/><path class="cls-6" d="M323 133h-4v2h-2v1h-1v4h3v-1h2v-1h2v-5z"/><path class="cls-5" d="M316 136h-4v4h4v-4z"/></g></svg>