<svg id="Bixiette_-_Frame_1" data-name="Bixiette - Frame 1" xmlns="http://www.w3.org/2000/svg" width="336" height="168" viewBox="0 0 336 168"><defs><style>.cls-1{fill:#aaa;opacity:.3}.cls-2{fill:#af4f00}.cls-3{fill:#fab900}.cls-4{fill:#333}.cls-5{fill:#103a22}.cls-6{fill:#892700}.cls-7{fill:#f3980f}.cls-8{fill:#db6d00}.cls-9{fill:#681e7a}.cls-10{fill:#b3b3b3}.cls-11{fill:#e6e6e6}</style></defs><title>Assets Export</title><path id="Shadow" class="cls-1" d="M24 66v-2H12v2h-2v2h2v2h12v-2h2v-2h-2z"/><g id="Light_player_color_areas" data-name="Light player color areas"><path class="cls-2" d="M26 48h-6v2h-2v8h8V48zM12 54h2v4h-2zM14 48h2v2h-2z"/></g><g id="Light_orange_areas" data-name="Light orange areas"><path class="cls-3" d="M14 54h4v2h-4zM14 50h4v2h-4zM26 21h2v2h-2zM24 19h2v2h-2zM26 33h2v4h-2zM16 34v-2h-4v-2h-2v2H8v10h2v2h8v-2h2v-2h2v-6h-6z"/></g><g id="Medium_player_color_areas" data-name="Medium player color areas"><path class="cls-4" d="M16 46h6v2h-6zM10 48h2v-2h2v-2h-4v4zM8 42h2v2H8zM28 15h-4v4h2v2h4v-4h-2v-2zM10 34h2v2h-2zM18 34h2v2h-2z"/><path class="cls-4" d="M28 25v-2h-2v-2H10v2H8v2H6v17h2V30h2v-2h2v2h4v2h6v3h2v13h2v-4h2v-5h2V25h-2zm0 12h-2v-4h2v4z"/><path class="cls-4" d="M18 38h2v2h-2zM10 38h2v2h-2zM12 40h6v2h-6zM12 58v8h2v2h2v-4h2v-4h8v-2H12z"/><path class="cls-5" d="M16 60v2h2v2h8v-2h2v-2H16z"/></g><g id="Dark_orange_areas" data-name="Dark orange areas"><path class="cls-6" d="M14 56h4v2h-4zM14 52h4v2h-4zM16 48h4v2h-4z"/><path class="cls-7" d="M8 30h2v2H8zM10 28h2v2h-2zM18 44v-2h2v-2h2v-5h2v9h-2v2h-8v-2h4zM12 30h4v2h-4zM16 32h6v2h-6zM20 54h-4v4h4v-4z"/></g><path class="cls-8" d="M12 50h2v4h-2zM26 48h-4v2h-2v6h4v-2h2v-6z"/><g id="Player_character_-_Movement_2" data-name="Player character - Movement 2"><path id="Shadow-2" data-name="Shadow" class="cls-1" d="M68 66v-2H54v2h-2v2h2v2h14v-2h2v-2h-2z"/><g id="Light_player_color_areas-2" data-name="Light player color areas"><path class="cls-2" d="M68 48h-6v2h-2v8h8V48zM54 54h2v4h-2zM56 48h2v2h-2z"/></g><g id="Light_orange_areas-2" data-name="Light orange areas"><path class="cls-3" d="M56 54h4v2h-4zM56 50h4v2h-4zM68 21h2v2h-2zM66 19h2v2h-2zM68 33h2v4h-2zM58 34v-2h-4v-2h-2v2h-2v10h2v2h8v-2h2v-2h2v-6h-6z"/></g><g id="Medium_player_color_areas-2" data-name="Medium player color areas"><path class="cls-4" d="M58 46h6v2h-6zM52 48h2v-2h2v-2h-4v4zM50 42h2v2h-2zM70 15h-4v4h2v2h4v-4h-2v-2zM52 34h2v2h-2zM60 34h2v2h-2z"/><path class="cls-4" d="M70 25v-2h-2v-2H52v2h-2v2h-2v17h2V30h2v-2h2v2h4v2h6v3h2v13h2v-4h2v-5h2V25h-2zm0 12h-2v-4h2v4z"/><path class="cls-4" d="M60 38h2v2h-2zM52 38h2v2h-2zM54 40h6v2h-6zM54 58v6h2v2h2v2h2v-4h2v-2h6v-4H54z"/><path class="cls-5" d="M62 62v2h2v2h2v2h2v-6h-6z"/></g><g id="Dark_orange_areas-2" data-name="Dark orange areas"><path class="cls-6" d="M56 56h4v2h-4zM56 52h4v2h-4zM58 48h4v2h-4z"/><path class="cls-7" d="M50 30h2v2h-2zM52 28h2v2h-2zM60 44v-2h2v-2h2v-5h2v9h-2v2h-8v-2h4zM54 30h4v2h-4zM58 32h6v2h-6zM70 56h-4v4h4v-4zM54 56h-2v4h2v-4z"/></g><path class="cls-8" d="M68 50v-2h-4v6h2v2h4v-6h-2zM54 50v2h-2v4h2v-2h2v-4h-2z"/></g><g id="Player_character_-_Movement_2-2" data-name="Player character - Movement 2"><path id="Shadow-3" data-name="Shadow" class="cls-1" d="M110 66v-2H96v2h-2v2h2v2h14v-2h2v-2h-2z"/><g id="Light_player_color_areas-3" data-name="Light player color areas"><path class="cls-2" d="M110 48h-6v2h-2v8h8V48zM96 50h2v8h-2zM98 48h2v2h-2z"/></g><g id="Light_orange_areas-3" data-name="Light orange areas"><path class="cls-3" d="M98 54h4v2h-4zM98 50h4v2h-4zM110 21h2v2h-2zM108 19h2v2h-2zM110 33h2v4h-2zM100 34v-2h-4v-2h-2v2h-2v10h2v2h8v-2h2v-2h2v-6h-6z"/></g><g id="Medium_player_color_areas-3" data-name="Medium player color areas"><path class="cls-4" d="M100 46h6v2h-6zM94 48h2v-2h2v-2h-4v4zM92 42h2v2h-2zM112 15h-4v4h2v2h4v-4h-2v-2zM94 34h2v2h-2zM102 34h2v2h-2z"/><path class="cls-4" d="M112 25v-2h-2v-2H94v2h-2v2h-2v17h2V30h2v-2h2v2h4v2h6v3h2v13h2v-4h2v-5h2V25h-2zm0 12h-2v-4h2v4z"/><path class="cls-4" d="M102 38h2v2h-2zM94 38h2v2h-2zM96 40h6v2h-6zM96 58v6h2v2h2v2h2v-6h8v-4H96z"/><path class="cls-5" d="M108 62v-2h-4v2h-2v6h2v-2h4v-2h2v-2h-2z"/></g><path class="cls-8" d="M112 51v-2h-2v-1h-4v2h1v2h3v2h4v-3h-2zM94 50v2h-2v4h4v-6h-2zM96 48h2v2h-2z"/><g id="Dark_orange_areas-3" data-name="Dark orange areas"><path class="cls-6" d="M98 56h4v2h-4zM98 52h4v2h-4zM100 48h4v2h-4z"/><path class="cls-7" d="M92 30h2v2h-2zM94 28h2v2h-2zM102 44v-2h2v-2h2v-5h2v9h-2v2h-8v-2h4zM96 30h4v2h-4zM100 32h6v2h-6zM116 54h-4v4h4v-4zM94 54h-4v4h4v-4z"/></g></g><g id="Player_character_-_Movement_2-3" data-name="Player character - Movement 2"><path id="Shadow-4" data-name="Shadow" class="cls-1" d="M152 66v-2h-14v2h-2v2h2v2h14v-2h2v-2h-2z"/><g id="Light_player_color_areas-4" data-name="Light player color areas"><path class="cls-2" d="M152 48h-6v2h-2v8h8V48zM138 50h2v8h-2zM140 48h2v2h-2z"/></g><g id="Light_orange_areas-4" data-name="Light orange areas"><path class="cls-3" d="M140 54h4v2h-4zM140 50h4v2h-4zM152 21h2v2h-2zM150 19h2v2h-2zM152 33h2v4h-2zM142 34v-2h-4v-2h-2v2h-2v10h2v2h8v-2h2v-2h2v-6h-6z"/></g><g id="Medium_player_color_areas-4" data-name="Medium player color areas"><path class="cls-4" d="M142 46h6v2h-6zM136 48h2v-2h2v-2h-4v4zM134 42h2v2h-2zM154 15h-4v4h2v2h4v-4h-2v-2zM136 34h2v2h-2zM144 34h2v2h-2z"/><path class="cls-4" d="M154 25v-2h-2v-2h-16v2h-2v2h-2v17h2V30h2v-2h2v2h4v2h6v3h2v13h2v-4h2v-5h2V25h-2zm0 12h-2v-4h2v4z"/><path class="cls-4" d="M144 38h2v2h-2zM136 38h2v2h-2zM138 40h6v2h-6zM138 60h2v2h-2z"/><path class="cls-4" d="M138 58v4h2v2h2v2h2v2h2v-6h6v-4h-14z"/><path class="cls-5" d="M150 62v-2h-4v2h-2v2h-2v2h8v-2h2v-2h-2z"/></g><path class="cls-8" d="M154 50v-1h-2v-1h-4v2h1v1h3v1h4v-2h-2zM138 48v1h-3v2h-2v3h4v-2h1v-2h2v-2h-2z"/><g id="Dark_orange_areas-4" data-name="Dark orange areas"><path class="cls-6" d="M140 56h4v2h-4zM140 52h4v2h-4zM142 48h4v2h-4z"/><path class="cls-7" d="M134 30h2v2h-2zM136 28h2v2h-2zM144 44v-2h2v-2h2v-5h2v9h-2v2h-8v-2h4zM138 30h4v2h-4zM142 32h6v2h-6zM158 52h-4v4h4v-4zM136 52h-4v4h4v-4z"/></g></g><g id="Player_character_-_Movement_2-4" data-name="Player character - Movement 2"><path id="Shadow-5" data-name="Shadow" class="cls-1" d="M194 66v-2h-14v2h-2v2h2v2h14v-2h2v-2h-2z"/><g id="Light_player_color_areas-5" data-name="Light player color areas"><path class="cls-2" d="M194 48h-6v2h-2v8h8V48zM180 50h2v8h-2zM182 48h2v2h-2z"/></g><g id="Light_orange_areas-5" data-name="Light orange areas"><path class="cls-3" d="M182 54h4v2h-4zM182 50h4v2h-4zM194 21h2v2h-2zM192 19h2v2h-2zM194 33h2v4h-2zM184 34v-2h-4v-2h-2v2h-2v10h2v2h8v-2h2v-2h2v-6h-6z"/></g><g id="Medium_player_color_areas-5" data-name="Medium player color areas"><path class="cls-4" d="M184 46h6v2h-6zM178 48h2v-2h2v-2h-4v4zM176 42h2v2h-2zM196 15h-4v4h2v2h4v-4h-2v-2zM178 34h2v2h-2zM186 34h2v2h-2z"/><path class="cls-4" d="M196 25v-2h-2v-2h-16v2h-2v2h-2v17h2V30h2v-2h2v2h4v2h6v4h2v12h2v-4h2v-5h2V25h-2zm0 12h-2v-4h2v4z"/><path class="cls-4" d="M186 38h2v2h-2zM178 38h2v2h-2zM180 40h6v2h-6zM180 60h2v2h-2z"/><path class="cls-4" d="M180 58v4h2v2h2v2h4v-4h6v-4h-14z"/><path class="cls-5" d="M192 62v-2h-2v2h-2v6h2v-2h2v-2h2v-2h-2z"/></g><path class="cls-8" d="M196 51v-2h-2v-1h-4v2h1v2h3v2h4v-3h-2zM178 52h-2v4h4v-6h-2v2zM180 48h2v2h-2z"/><g id="Dark_orange_areas-5" data-name="Dark orange areas"><path class="cls-6" d="M182 56h4v2h-4zM182 52h4v2h-4zM184 48h4v2h-4z"/><path class="cls-7" d="M176 30h2v2h-2zM178 28h2v2h-2zM186 44v-2h2v-2h2v-5h2v9h-2v2h-8v-2h4zM180 30h4v2h-4zM184 32h6v2h-6zM200 54h-4v4h4v-4zM178 54h-4v4h4v-4z"/></g></g><g id="Player_character_-_Movement_2-5" data-name="Player character - Movement 2"><path id="Shadow-6" data-name="Shadow" class="cls-1" d="M236 66v-2h-14v2h-2v2h2v2h14v-2h2v-2h-2z"/><g id="Light_player_color_areas-6" data-name="Light player color areas"><path class="cls-2" d="M236 48h-6v2h-2v8h8V48zM222 54h2v4h-2zM224 48h2v2h-2z"/></g><g id="Light_orange_areas-6" data-name="Light orange areas"><path class="cls-3" d="M224 54h4v2h-4zM224 50h4v2h-4zM236 21h2v2h-2zM234 19h2v2h-2zM236 33h2v4h-2zM226 34v-2h-4v-2h-2v2h-2v10h2v2h8v-2h2v-2h2v-6h-6z"/></g><g id="Medium_player_color_areas-6" data-name="Medium player color areas"><path class="cls-4" d="M226 46h6v2h-6zM220 48h2v-2h2v-2h-4v4zM218 42h2v2h-2zM238 15h-4v4h2v2h4v-4h-2v-2zM220 34h2v2h-2zM228 34h2v2h-2z"/><path class="cls-4" d="M238 25v-2h-2v-2h-16v2h-2v2h-2v17h2V30h2v-2h2v2h4v2h6v4h2v12h2v-4h2v-5h2V25h-2zm0 12h-2v-4h2v4z"/><path class="cls-4" d="M228 38h2v2h-2zM220 38h2v2h-2zM222 40h6v2h-6zM222 58v6h2v2h2v2h2v-4h2v-2h6v-4h-14z"/><path class="cls-5" d="M230 62v2h2v2h2v2h2v-6h-6z"/></g><g id="Dark_orange_areas-6" data-name="Dark orange areas"><path class="cls-6" d="M224 56h4v2h-4zM224 52h4v2h-4zM226 48h4v2h-4z"/><path class="cls-7" d="M218 30h2v2h-2zM220 28h2v2h-2zM228 44v-2h2v-2h2v-5h2v9h-2v2h-8v-2h4zM222 30h4v2h-4zM226 32h6v2h-6zM238 56h-4v4h4v-4zM222 56h-2v4h2v-4z"/></g><path class="cls-8" d="M236 50v-2h-4v6h2v2h4v-6h-2zM222 50v2h-2v4h2v-2h2v-4h-2z"/></g><g id="Player_character_-_Movement_2-6" data-name="Player character - Movement 2"><path id="Shadow-7" data-name="Shadow" class="cls-1" d="M276 66v-2h-12v2h-2v2h2v2h12v-2h2v-2h-2z"/><g id="Light_player_color_areas-7" data-name="Light player color areas"><path class="cls-2" d="M278 48h-6v2h-2v8h8V48zM264 54h2v4h-2zM266 48h2v2h-2z"/></g><g id="Light_orange_areas-7" data-name="Light orange areas"><path class="cls-3" d="M266 54h4v2h-4zM266 50h4v2h-4zM278 21h2v2h-2zM276 19h2v2h-2zM278 33h2v4h-2zM268 34v-2h-4v-2h-2v2h-2v10h2v2h8v-2h2v-2h2v-6h-6z"/></g><g id="Medium_player_color_areas-7" data-name="Medium player color areas"><path class="cls-4" d="M268 46h6v2h-6zM262 48h2v-2h2v-2h-4v4zM260 42h2v2h-2zM280 15h-4v4h2v2h4v-4h-2v-2zM262 34h2v2h-2zM270 34h2v2h-2z"/><path class="cls-4" d="M280 25v-2h-2v-2h-16v2h-2v2h-2v17h2V30h2v-2h2v2h4v2h6v4h2v12h2v-4h2v-5h2V25h-2zm0 12h-2v-4h2v4z"/><path class="cls-4" d="M270 38h2v2h-2zM262 38h2v2h-2zM264 40h6v2h-6zM264 58v-2h-2v8h2v2h2v-2h2v-4h8v2h2v-4h-14z"/><path class="cls-5" d="M278 64v-2h-2v-2h-8v2h2v2h2v2h8v-2h-2z"/></g><g id="Dark_orange_areas-7" data-name="Dark orange areas"><path class="cls-6" d="M266 56h4v2h-4zM266 52h4v2h-4zM268 48h4v2h-4z"/><path class="cls-7" d="M260 30h2v2h-2zM262 28h2v2h-2zM270 44v-2h2v-2h2v-5h2v9h-2v2h-8v-2h4zM264 30h4v2h-4zM268 32h6v2h-6zM272 54h-4v4h4v-4z"/></g><path class="cls-8" d="M264 50h2v4h-2zM278 48h-4v2h-2v6h4v-2h2v-6z"/></g><g id="Player_character_-_Movement_2-7" data-name="Player character - Movement 2"><path id="Shadow-8" data-name="Shadow" class="cls-1" d="M318 66v-2h-12v2h-2v2h2v2h12v-2h2v-2h-2z"/><g id="Light_player_color_areas-8" data-name="Light player color areas"><path class="cls-2" d="M320 48h-6v2h-2v8h8V48zM306 54h2v4h-2zM308 48h2v2h-2z"/></g><g id="Light_orange_areas-8" data-name="Light orange areas"><path class="cls-3" d="M308 54h4v2h-4zM308 50h4v2h-4zM320 21h2v2h-2zM318 19h2v2h-2zM320 33h2v4h-2zM310 34v-2h-4v-2h-2v2h-2v10h2v2h8v-2h2v-2h2v-6h-6z"/></g><g id="Medium_player_color_areas-8" data-name="Medium player color areas"><path class="cls-4" d="M310 46h6v2h-6zM304 48h2v-2h2v-2h-4v4zM302 42h2v2h-2zM322 15h-4v4h2v2h4v-4h-2v-2zM304 34h2v2h-2zM312 34h2v2h-2z"/><path class="cls-4" d="M322 25v-2h-2v-2h-16v2h-2v2h-2v17h2V30h2v-2h2v2h4v2h6v4h2v12h2v-4h2v-5h2V25h-2zm0 12h-2v-4h2v4z"/><path class="cls-4" d="M312 38h2v2h-2zM304 38h2v2h-2zM306 40h6v2h-6zM306 58v6h4v-2h4v-2h6v-2h-14z"/><path class="cls-4" d="M318 60h2v2h-2z"/><path class="cls-5" d="M322 62v-2h-10v2h2v2h10v-2h-2z"/></g><path class="cls-8" d="M306 50h2v4h-2zM320 48h-4v2h-2v1h-3v4h5v-1h2v-1h2v-5z"/><g id="Dark_orange_areas-8" data-name="Dark orange areas"><path class="cls-6" d="M308 56h4v2h-4zM308 52h4v2h-4zM310 48h4v2h-4z"/><path class="cls-7" d="M302 30h2v2h-2zM304 28h2v2h-2zM312 44v-2h2v-2h2v-5h2v9h-2v2h-8v-2h4zM306 30h4v2h-4zM310 32h6v2h-6zM313 51h-4v4h4v-4z"/></g></g><path id="Shadow-9" data-name="Shadow" class="cls-1" d="M24 150v-2H12v2h-2v2h2v2h12v-2h2v-2h-2z"/><g id="Light_player_color_areas-9" data-name="Light player color areas"><path class="cls-2" d="M26 132h-6v2h-2v8h8v-10zM12 138h2v4h-2zM14 132h2v2h-2z"/></g><g id="Light_orange_areas-9" data-name="Light orange areas"><path class="cls-3" d="M14 138h4v2h-4zM14 134h4v2h-4zM26 105h2v2h-2zM24 103h2v2h-2zM26 117h2v4h-2zM16 118v-2h-4v-2h-2v2H8v10h2v2h8v-2h2v-2h2v-6h-6z"/></g><g id="Medium_player_color_areas-9" data-name="Medium player color areas"><path class="cls-4" d="M16 130h6v2h-6zM10 132h2v-2h2v-2h-4v4zM8 126h2v2H8zM28 99h-4v4h2v2h4v-4h-2v-2zM10 118h2v2h-2zM18 118h2v2h-2z"/><path class="cls-4" d="M28 109v-2h-2v-2H10v2H8v2H6v17h2v-12h2v-2h2v2h4v2h6v3h2v13h2v-4h2v-5h2v-14h-2zm0 12h-2v-4h2v4z"/><path class="cls-4" d="M18 122h2v2h-2zM10 122h2v2h-2zM12 124h6v2h-6zM12 142v8h2v2h2v-4h2v-4h8v-2H12z"/><path class="cls-5" d="M16 144v2h2v2h8v-2h2v-2H16z"/></g><g id="Dark_orange_areas-9" data-name="Dark orange areas"><path class="cls-9" d="M14 140h4v2h-4z"/><path class="cls-6" d="M14 136h4v2h-4zM16 132h4v2h-4z"/><path class="cls-7" d="M8 114h2v2H8zM10 112h2v2h-2zM18 128v-2h2v-2h2v-5h2v9h-2v2h-8v-2h4zM12 114h4v2h-4zM16 116h6v2h-6z"/><path class="cls-10" d="M22 143h-1v1h-6v-1h-1v-1h-1v2h1v1h1v1h6v-1h1v-1h1v-2h-1v1z"/><path class="cls-11" d="M22 138v-1h-1v-1h-6v1h-1v1h-1v4h1v1h1v1h6v-1h1v-1h1v-4h-1zm-2 4h-4v-4h4v4z"/><path class="cls-10" d="M16 138h4v4h-4z"/><path class="cls-7" d="M20 138h-4v4h4v-4z"/></g><path class="cls-8" d="M12 134h2v4h-2zM26 132h-4v2h-2v6h4v-2h2v-6z"/><g id="Player_character_-_Movement_2-8" data-name="Player character - Movement 2"><path id="Shadow-10" data-name="Shadow" class="cls-1" d="M68 150v-2H54v2h-2v2h2v2h14v-2h2v-2h-2z"/><g id="Light_player_color_areas-10" data-name="Light player color areas"><path class="cls-2" d="M68 132h-6v2h-2v8h8v-10zM54 138h2v4h-2zM56 132h2v2h-2z"/></g><g id="Light_orange_areas-10" data-name="Light orange areas"><path class="cls-3" d="M56 138h4v2h-4zM56 134h4v2h-4zM68 105h2v2h-2zM66 103h2v2h-2zM68 117h2v4h-2zM58 118v-2h-4v-2h-2v2h-2v10h2v2h8v-2h2v-2h2v-6h-6z"/></g><g id="Medium_player_color_areas-10" data-name="Medium player color areas"><path class="cls-4" d="M58 130h6v2h-6zM52 132h2v-2h2v-2h-4v4zM50 126h2v2h-2zM70 99h-4v4h2v2h4v-4h-2v-2zM52 118h2v2h-2zM60 118h2v2h-2z"/><path class="cls-4" d="M70 109v-2h-2v-2H52v2h-2v2h-2v17h2v-12h2v-2h2v2h4v2h6v3h2v13h2v-4h2v-5h2v-14h-2zm0 12h-2v-4h2v4z"/><path class="cls-4" d="M60 122h2v2h-2zM52 122h2v2h-2zM54 124h6v2h-6zM54 142v6h2v2h2v2h2v-4h2v-2h6v-4H54z"/><path class="cls-5" d="M62 146v2h2v2h2v2h2v-6h-6z"/></g><g id="Dark_orange_areas-10" data-name="Dark orange areas"><path class="cls-6" d="M56 140h4v2h-4zM56 136h4v2h-4zM58 132h4v2h-4z"/><path class="cls-7" d="M50 114h2v2h-2zM52 112h2v2h-2zM60 128v-2h2v-2h2v-5h2v9h-2v2h-8v-2h4zM54 114h4v2h-4zM58 116h6v2h-6zM54 140h-2v4h2v-4z"/><path class="cls-10" d="M72 145h-1v1h-6v-1h-1v-1h-1v2h1v1h1v1h6v-1h1v-1h1v-2h-1v1z"/><path class="cls-11" d="M72 140v-1h-1v-1h-6v1h-1v1h-1v4h1v1h1v1h6v-1h1v-1h1v-4h-1zm-2 4h-4v-4h4v4z"/><path class="cls-10" d="M66 140h4v4h-4z"/><path class="cls-7" d="M70 140h-4v4h4v-4z"/></g><path class="cls-8" d="M68 134v-2h-4v6h2v2h4v-6h-2zM54 134v2h-2v4h2v-2h2v-4h-2z"/></g><g id="Player_character_-_Movement_2-9" data-name="Player character - Movement 2"><path id="Shadow-11" data-name="Shadow" class="cls-1" d="M110 150v-2H96v2h-2v2h2v2h14v-2h2v-2h-2z"/><g id="Light_player_color_areas-11" data-name="Light player color areas"><path class="cls-2" d="M110 132h-6v2h-2v8h8v-10zM96 134h2v8h-2zM98 132h2v2h-2z"/></g><g id="Light_orange_areas-11" data-name="Light orange areas"><path class="cls-3" d="M98 138h4v2h-4zM98 134h4v2h-4zM110 105h2v2h-2zM108 103h2v2h-2zM110 117h2v4h-2zM100 118v-2h-4v-2h-2v2h-2v10h2v2h8v-2h2v-2h2v-6h-6z"/></g><g id="Medium_player_color_areas-11" data-name="Medium player color areas"><path class="cls-4" d="M100 130h6v2h-6zM94 132h2v-2h2v-2h-4v4zM92 126h2v2h-2zM112 99h-4v4h2v2h4v-4h-2v-2zM94 118h2v2h-2zM102 118h2v2h-2z"/><path class="cls-4" d="M112 109v-2h-2v-2H94v2h-2v2h-2v17h2v-12h2v-2h2v2h4v2h6v3h2v13h2v-4h2v-5h2v-14h-2zm0 12h-2v-4h2v4z"/><path class="cls-4" d="M102 122h2v2h-2zM94 122h2v2h-2zM96 124h6v2h-6zM96 142v6h2v2h2v2h2v-6h8v-4H96z"/><path class="cls-5" d="M108 146v-2h-4v2h-2v6h2v-2h4v-2h2v-2h-2z"/></g><path class="cls-8" d="M94 134v2h-2v4h4v-6h-2zM96 132h2v2h-2z"/><g id="Dark_orange_areas-11" data-name="Dark orange areas"><path class="cls-6" d="M98 140h4v2h-4zM98 136h4v2h-4zM100 132h4v2h-4z"/><path class="cls-7" d="M92 114h2v2h-2zM94 112h2v2h-2zM102 128v-2h2v-2h2v-5h2v9h-2v2h-8v-2h4zM96 114h4v2h-4zM100 116h6v2h-6zM94 138h-4v4h4v-4z"/><path class="cls-10" d="M118 143h-1v1h-6v-1h-1v-1h-1v2h1v1h1v1h6v-1h1v-1h1v-2h-1v1z"/><path class="cls-11" d="M118 138v-1h-1v-1h-6v1h-1v1h-1v4h1v1h1v1h6v-1h1v-1h1v-4h-1zm-2 4h-4v-4h4v4z"/><path class="cls-10" d="M112 138h4v4h-4z"/><path class="cls-7" d="M116 138h-4v4h4v-4z"/></g><path class="cls-8" d="M112 135v-2h-2v-1h-4v2h1v2h3v2h4v-3h-2z"/></g><g id="Player_character_-_Movement_2-10" data-name="Player character - Movement 2"><path id="Shadow-12" data-name="Shadow" class="cls-1" d="M152 150v-2h-14v2h-2v2h2v2h14v-2h2v-2h-2z"/><g id="Light_player_color_areas-12" data-name="Light player color areas"><path class="cls-2" d="M152 132h-6v2h-2v8h8v-10zM138 134h2v8h-2zM140 132h2v2h-2z"/></g><g id="Light_orange_areas-12" data-name="Light orange areas"><path class="cls-3" d="M140 138h4v2h-4zM140 134h4v2h-4zM152 105h2v2h-2zM150 103h2v2h-2zM152 117h2v4h-2zM142 118v-2h-4v-2h-2v2h-2v10h2v2h8v-2h2v-2h2v-6h-6z"/></g><g id="Medium_player_color_areas-12" data-name="Medium player color areas"><path class="cls-4" d="M142 130h6v2h-6zM136 132h2v-2h2v-2h-4v4zM134 126h2v2h-2zM154 99h-4v4h2v2h4v-4h-2v-2zM136 118h2v2h-2zM144 118h2v2h-2z"/><path class="cls-4" d="M154 109v-2h-2v-2h-16v2h-2v2h-2v17h2v-12h2v-2h2v2h4v2h6v3h2v13h2v-4h2v-5h2v-14h-2zm0 12h-2v-4h2v4z"/><path class="cls-4" d="M144 122h2v2h-2zM136 122h2v2h-2zM138 124h6v2h-6zM138 144h2v2h-2z"/><path class="cls-4" d="M138 142v4h2v2h2v2h2v2h2v-6h6v-4h-14z"/><path class="cls-5" d="M150 146v-2h-4v2h-2v2h-2v2h8v-2h2v-2h-2z"/></g><path class="cls-8" d="M138 132v1h-3v2h-2v3h4v-2h1v-2h2v-2h-2z"/><g id="Dark_orange_areas-12" data-name="Dark orange areas"><path class="cls-6" d="M140 140h4v2h-4zM140 136h4v2h-4zM142 132h4v2h-4z"/><path class="cls-7" d="M134 114h2v2h-2zM136 112h2v2h-2zM144 128v-2h2v-2h2v-5h2v9h-2v2h-8v-2h4zM138 114h4v2h-4zM142 116h6v2h-6zM136 136h-4v4h4v-4z"/><path class="cls-10" d="M160 141h-1v1h-6v-1h-1v-1h-1v2h1v1h1v1h6v-1h1v-1h1v-2h-1v1z"/><path class="cls-11" d="M160 136v-1h-1v-1h-6v1h-1v1h-1v4h1v1h1v1h6v-1h1v-1h1v-4h-1zm-2 4h-4v-4h4v4z"/><path class="cls-10" d="M154 136h4v4h-4z"/><path class="cls-7" d="M158 136h-4v4h4v-4z"/></g><path class="cls-8" d="M154 134v-1h-2v-1h-4v2h1v1h3v1h4v-2h-2z"/></g><g id="Player_character_-_Movement_2-11" data-name="Player character - Movement 2"><path id="Shadow-13" data-name="Shadow" class="cls-1" d="M194 150v-2h-14v2h-2v2h2v2h14v-2h2v-2h-2z"/><g id="Light_player_color_areas-13" data-name="Light player color areas"><path class="cls-2" d="M194 132h-6v2h-2v8h8v-10zM180 134h2v8h-2zM182 132h2v2h-2z"/></g><g id="Light_orange_areas-13" data-name="Light orange areas"><path class="cls-3" d="M182 138h4v2h-4zM182 134h4v2h-4zM194 105h2v2h-2zM192 103h2v2h-2zM194 117h2v4h-2zM184 118v-2h-4v-2h-2v2h-2v10h2v2h8v-2h2v-2h2v-6h-6z"/></g><g id="Medium_player_color_areas-13" data-name="Medium player color areas"><path class="cls-4" d="M184 130h6v2h-6zM178 132h2v-2h2v-2h-4v4zM176 126h2v2h-2zM196 99h-4v4h2v2h4v-4h-2v-2zM178 118h2v2h-2zM186 118h2v2h-2z"/><path class="cls-4" d="M196 109v-2h-2v-2h-16v2h-2v2h-2v17h2v-12h2v-2h2v2h4v2h6v4h2v12h2v-4h2v-5h2v-14h-2zm0 12h-2v-4h2v4z"/><path class="cls-4" d="M186 122h2v2h-2zM178 122h2v2h-2zM180 124h6v2h-6zM180 144h2v2h-2z"/><path class="cls-4" d="M180 142v4h2v2h2v2h4v-4h6v-4h-14z"/><path class="cls-5" d="M192 146v-2h-2v2h-2v6h2v-2h2v-2h2v-2h-2z"/></g><path class="cls-8" d="M178 136h-2v4h4v-6h-2v2zM180 132h2v2h-2z"/><g id="Dark_orange_areas-13" data-name="Dark orange areas"><path class="cls-6" d="M182 140h4v2h-4zM182 136h4v2h-4zM184 132h4v2h-4z"/><path class="cls-7" d="M176 114h2v2h-2zM178 112h2v2h-2zM186 128v-2h2v-2h2v-5h2v9h-2v2h-8v-2h4zM180 114h4v2h-4zM184 116h6v2h-6zM178 138h-4v4h4v-4z"/><path class="cls-10" d="M202 143h-1v1h-6v-1h-1v-1h-1v2h1v1h1v1h6v-1h1v-1h1v-2h-1v1z"/><path class="cls-11" d="M202 138v-1h-1v-1h-6v1h-1v1h-1v4h1v1h1v1h6v-1h1v-1h1v-4h-1zm-2 4h-4v-4h4v4z"/><path class="cls-10" d="M196 138h4v4h-4z"/><path class="cls-7" d="M200 138h-4v4h4v-4z"/></g><path class="cls-8" d="M196 135v-2h-2v-1h-4v2h1v2h3v2h4v-3h-2z"/></g><g id="Player_character_-_Movement_2-12" data-name="Player character - Movement 2"><path id="Shadow-14" data-name="Shadow" class="cls-1" d="M236 150v-2h-14v2h-2v2h2v2h14v-2h2v-2h-2z"/><g id="Light_player_color_areas-14" data-name="Light player color areas"><path class="cls-2" d="M236 132h-6v2h-2v8h8v-10zM222 138h2v4h-2zM224 132h2v2h-2z"/></g><g id="Light_orange_areas-14" data-name="Light orange areas"><path class="cls-3" d="M224 138h4v2h-4zM224 134h4v2h-4zM236 105h2v2h-2zM234 103h2v2h-2zM236 117h2v4h-2zM226 118v-2h-4v-2h-2v2h-2v10h2v2h8v-2h2v-2h2v-6h-6z"/></g><g id="Medium_player_color_areas-14" data-name="Medium player color areas"><path class="cls-4" d="M226 130h6v2h-6zM220 132h2v-2h2v-2h-4v4zM218 126h2v2h-2zM238 99h-4v4h2v2h4v-4h-2v-2zM220 118h2v2h-2zM228 118h2v2h-2z"/><path class="cls-4" d="M238 109v-2h-2v-2h-16v2h-2v2h-2v17h2v-12h2v-2h2v2h4v2h6v4h2v12h2v-4h2v-5h2v-14h-2zm0 12h-2v-4h2v4z"/><path class="cls-4" d="M228 122h2v2h-2zM220 122h2v2h-2zM222 124h6v2h-6zM222 142v6h2v2h2v2h2v-4h2v-2h6v-4h-14z"/><path class="cls-5" d="M230 146v2h2v2h2v2h2v-6h-6z"/></g><g id="Dark_orange_areas-14" data-name="Dark orange areas"><path class="cls-6" d="M224 140h4v2h-4zM224 136h4v2h-4zM226 132h4v2h-4z"/><path class="cls-7" d="M218 114h2v2h-2zM220 112h2v2h-2zM228 128v-2h2v-2h2v-5h2v9h-2v2h-8v-2h4zM222 114h4v2h-4zM226 116h6v2h-6zM222 140h-2v4h2v-4z"/><path class="cls-10" d="M240 145h-1v1h-6v-1h-1v-1h-1v2h1v1h1v1h6v-1h1v-1h1v-2h-1v1z"/><path class="cls-11" d="M240 140v-1h-1v-1h-6v1h-1v1h-1v4h1v1h1v1h6v-1h1v-1h1v-4h-1zm-2 4h-4v-4h4v4z"/><path class="cls-10" d="M234 140h4v4h-4z"/><path class="cls-7" d="M238 140h-4v4h4v-4z"/></g><path class="cls-8" d="M222 134v2h-2v4h2v-2h2v-4h-2zM236 134v-2h-4v6h2v2h4v-6h-2z"/></g><g id="Player_character_-_Movement_2-13" data-name="Player character - Movement 2"><path id="Shadow-15" data-name="Shadow" class="cls-1" d="M276 150v-2h-12v2h-2v2h2v2h12v-2h2v-2h-2z"/><g id="Light_player_color_areas-15" data-name="Light player color areas"><path class="cls-2" d="M278 132h-6v2h-2v8h8v-10zM264 138h2v4h-2zM266 132h2v2h-2z"/></g><g id="Light_orange_areas-15" data-name="Light orange areas"><path class="cls-3" d="M266 138h4v2h-4zM266 134h4v2h-4zM278 105h2v2h-2zM276 103h2v2h-2zM278 117h2v4h-2zM268 118v-2h-4v-2h-2v2h-2v10h2v2h8v-2h2v-2h2v-6h-6z"/></g><g id="Medium_player_color_areas-15" data-name="Medium player color areas"><path class="cls-4" d="M268 130h6v2h-6zM262 132h2v-2h2v-2h-4v4zM260 126h2v2h-2zM280 99h-4v4h2v2h4v-4h-2v-2zM262 118h2v2h-2zM270 118h2v2h-2z"/><path class="cls-4" d="M280 109v-2h-2v-2h-16v2h-2v2h-2v17h2v-12h2v-2h2v2h4v2h6v4h2v12h2v-4h2v-5h2v-14h-2zm0 12h-2v-4h2v4z"/><path class="cls-4" d="M270 122h2v2h-2zM262 122h2v2h-2zM264 124h6v2h-6zM264 142v-2h-2v8h2v2h2v-2h2v-4h8v2h2v-4h-14z"/><path class="cls-5" d="M278 148v-2h-2v-2h-8v2h2v2h2v2h8v-2h-2z"/></g><g id="Dark_orange_areas-15" data-name="Dark orange areas"><path class="cls-9" d="M266 140h4v2h-4z"/><path class="cls-6" d="M266 136h4v2h-4zM268 132h4v2h-4z"/><path class="cls-7" d="M260 114h2v2h-2zM262 112h2v2h-2zM270 128v-2h2v-2h2v-5h2v9h-2v2h-8v-2h4zM264 114h4v2h-4zM268 116h6v2h-6z"/><path class="cls-10" d="M274 143h-1v1h-6v-1h-1v-1h-1v2h1v1h1v1h6v-1h1v-1h1v-2h-1v1z"/><path class="cls-11" d="M274 138v-1h-1v-1h-6v1h-1v1h-1v4h1v1h1v1h6v-1h1v-1h1v-4h-1zm-2 4h-4v-4h4v4z"/><path class="cls-10" d="M268 138h4v4h-4z"/><path class="cls-7" d="M272 138h-4v4h4v-4z"/></g><path class="cls-8" d="M264 134h2v4h-2zM278 132h-4v2h-2v6h4v-2h2v-6z"/></g><g id="Player_character_-_Movement_2-14" data-name="Player character - Movement 2"><path id="Shadow-16" data-name="Shadow" class="cls-1" d="M318 150v-2h-12v2h-2v2h2v2h12v-2h2v-2h-2z"/><g id="Light_player_color_areas-16" data-name="Light player color areas"><path class="cls-2" d="M320 132h-6v2h-2v8h8v-10zM306 138h2v4h-2zM308 132h2v2h-2z"/></g><g id="Light_orange_areas-16" data-name="Light orange areas"><path class="cls-3" d="M308 138h4v2h-4zM308 134h4v2h-4zM320 105h2v2h-2zM318 103h2v2h-2zM320 117h2v4h-2zM310 118v-2h-4v-2h-2v2h-2v10h2v2h8v-2h2v-2h2v-6h-6z"/></g><g id="Medium_player_color_areas-16" data-name="Medium player color areas"><path class="cls-4" d="M310 130h6v2h-6zM304 132h2v-2h2v-2h-4v4zM302 126h2v2h-2zM322 99h-4v4h2v2h4v-4h-2v-2zM304 118h2v2h-2zM312 118h2v2h-2z"/><path class="cls-4" d="M322 109v-2h-2v-2h-16v2h-2v2h-2v17h2v-12h2v-2h2v2h4v2h6v4h2v12h2v-4h2v-5h2v-14h-2zm0 12h-2v-4h2v4z"/><path class="cls-4" d="M312 122h2v2h-2zM304 122h2v2h-2zM306 124h6v2h-6zM306 142v6h4v-2h4v-2h6v-2h-14z"/><path class="cls-4" d="M318 144h2v2h-2z"/><path class="cls-5" d="M322 146v-2h-10v2h2v2h10v-2h-2z"/></g><path class="cls-8" d="M306 134h2v4h-2z"/><g id="Dark_orange_areas-16" data-name="Dark orange areas"><path class="cls-9" d="M310 132h4v2h-4zM308 140h4v2h-4zM308 136h4v2h-4z"/><path class="cls-7" d="M302 114h2v2h-2zM304 112h2v2h-2zM312 128v-2h2v-2h2v-5h2v9h-2v2h-8v-2h4zM306 114h4v2h-4zM310 116h6v2h-6z"/><path class="cls-10" d="M315 140h-1v1h-6v-1h-1v-1h-1v2h1v1h1v1h6v-1h1v-1h1v-2h-1v1z"/><path class="cls-11" d="M315 135v-1h-1v-1h-6v1h-1v1h-1v4h1v1h1v1h6v-1h1v-1h1v-4h-1zm-2 4h-4v-4h4v4z"/><path class="cls-10" d="M309 135h4v4h-4z"/><path class="cls-7" d="M313 135h-4v4h4v-4z"/></g><path class="cls-8" d="M320 132h-4v2h-2v1h-1v4h3v-1h2v-1h2v-5z"/></g></svg>