<svg id="Effects_-_Losing_snippets_-_Frame_1" data-name="Effects - Losing snippets - Frame 1" xmlns="http://www.w3.org/2000/svg" width="252" height="42" viewBox="0 0 252 42"><defs><style>.cls-1{fill:#ffda74}.cls-2{fill:#fbb03b}</style></defs><title>Assets Export</title><path class="cls-1" d="M99 8h16v10H99z"/><path class="cls-2" d="M115 8v9h-15V8h15m1-1H99v11h17V7z"/><path class="cls-2" d="M102 14h5v1h-5zM102 12h7v1h-7zM102 10h5v1h-5zM110 12h3v1h-3zM108 14h5v1h-5z"/><path class="cls-1" d="M11 10h25v16H11z"/><path class="cls-2" d="M35 11v14H12V11h23m1-1H11v16h25V10z"/><path class="cls-2" d="M14 21h7v2h-7zM14 17h14v2H14zM14 13h9v2h-9zM30 17h3v2h-3zM23 21h10v2H23z"/><path class="cls-1" d="M46 16h25v16H46z"/><path class="cls-2" d="M70 17v14H47V17h23m1-1H46v16h25V16z"/><path class="cls-2" d="M49 27h7v2h-7zM49 23h14v2H49zM49 19h9v2h-9zM65 23h3v2h-3zM58 27h10v2H58z"/><path class="cls-1" d="M89 15h16v10H89z"/><path class="cls-2" d="M105 15v9H90v-9h15m1-1H89v11h17V14z"/><path class="cls-2" d="M92 21h5v1h-5zM92 19h7v1h-7zM92 17h5v1h-5zM100 19h3v1h-3zM98 21h5v1h-5z"/><path class="cls-1" d="M145 8h16v10h-16z"/><path class="cls-2" d="M161 8v9h-15V8h15m1-1h-17v11h17V7z"/><path class="cls-2" d="M148 14h5v1h-5zM148 12h7v1h-7zM148 10h5v1h-5zM156 12h3v1h-3zM154 14h5v1h-5z"/><path class="cls-1" d="M143 25h16v10h-16z"/><path class="cls-2" d="M159 25v9h-15v-9h15m1-1h-17v11h17V24z"/><path class="cls-2" d="M146 31h5v1h-5zM146 29h7v1h-7zM146 27h5v1h-5zM154 29h3v1h-3zM152 31h5v1h-5z"/><path class="cls-1" d="M180 6h7v6h-7z"/><path class="cls-2" d="M187 6v5h-6V6h6m1-1h-8v7h8V5z"/><path class="cls-2" d="M182 9h4v1h-4zM182 7h2v1h-2z"/><path class="cls-1" d="M174 19h7v6h-7z"/><path class="cls-2" d="M181 19v5h-6v-5h6m1-1h-8v7h8v-7z"/><path class="cls-2" d="M176 22h4v1h-4zM176 20h2v1h-2z"/><path class="cls-1" d="M238 16h7v6h-7z"/><path class="cls-2" d="M245 16v5h-6v-5h6m1-1h-8v7h8v-7z"/><path class="cls-2" d="M240 19h4v1h-4zM240 17h2v1h-2z"/><path class="cls-1" d="M239 32h7v6h-7z"/><path class="cls-2" d="M246 32v5h-6v-5h6m1-1h-8v7h8v-7z"/><path class="cls-2" d="M241 35h4v1h-4zM241 33h2v1h-2z"/></svg>