<svg id="Snippets_-_Frame_1" data-name="Snippets - Frame 1" xmlns="http://www.w3.org/2000/svg" width="168" height="42" viewBox="0 0 168 42"><defs><style>.cls-1{fill:#aaa;opacity:.6}.cls-2{fill:#ffda74}.cls-3{fill:#fbb03b}</style></defs><title>Assets Export</title><path class="cls-1" d="M8 30v2h2v2h21v-2h2v-2h-2v-2H10v2H8z"/><path class="cls-2" d="M8 14h25v16H8z"/><path class="cls-3" d="M32 15v14H9V15h23m1-1H8v16h25V14z"/><path class="cls-3" d="M11 25h7v2h-7zM11 21h14v2H11zM11 17h9v2h-9zM27 21h3v2h-3zM20 25h10v2H20z"/><path class="cls-1" d="M51 30v2h2v2h19v-2h2v-2h-2v-2H53v2h-2z"/><path class="cls-2" d="M50 13h25v16H50z"/><path class="cls-3" d="M74 14v14H51V14h23m1-1H50v16h25V13z"/><path class="cls-3" d="M53 24h7v2h-7zM53 20h14v2H53zM53 16h9v2h-9zM69 20h3v2h-3zM62 24h10v2H62z"/><path class="cls-2" d="M92 12h25v16H92z"/><path class="cls-3" d="M116 13v14H93V13h23m1-1H92v16h25V12z"/><path class="cls-3" d="M95 23h7v2h-7zM95 19h14v2H95zM95 15h9v2h-9zM111 19h3v2h-3zM104 23h10v2h-10z"/><path class="cls-1" d="M94 30v2h2v2h17v-2h2v-2h-2v-2H96v2h-2z"/><path class="cls-2" d="M134 11h25v16h-25z"/><path class="cls-3" d="M158 12v14h-23V12h23m1-1h-25v16h25V11z"/><path class="cls-3" d="M137 22h7v2h-7zM137 18h14v2h-14zM137 14h9v2h-9zM153 18h3v2h-3zM146 22h10v2h-10z"/><path class="cls-1" d="M137 30v2h2v2h15v-2h2v-2h-2v-2h-15v2h-2z"/></svg>