<svg xmlns="http://www.w3.org/2000/svg" viewBox="0 0 44.5 44"><defs><style>.cls-1{isolation:isolate}.cls-2{fill:#4a4151}.cls-3,.cls-7{fill:#322838}.cls-4,.cls-7{mix-blend-mode:darken}.cls-5{fill:url(#linear-gradient)}.cls-6{mask:url(#mask)}.cls-7{opacity:.5}.cls-8{filter:url(#luminosity-invert)}</style><linearGradient id="linear-gradient" x1="22" y1="33.95" x2="22" y2=".99" gradientUnits="userSpaceOnUse"><stop offset="0" stop-color="#4a4151" stop-opacity="0"/><stop offset="1" stop-color="#4a4151"/></linearGradient><filter id="luminosity-invert" filterUnits="userSpaceOnUse" color-interpolation-filters="sRGB"><feColorMatrix values="-1 0 0 0 1 0 -1 0 0 1 0 0 -1 0 1 0 0 0 1 0"/></filter></defs><title>Game 1.8 export</title><g class="cls-1"><g id="Game_field" data-name="Game field"><rect class="cls-2" x="1" y="1" width="42" height="42" rx="2.3" ry="2.3"/><path class="cls-3" d="M40.7 2A1.3 1.3 0 0 1 42 3.3v37.4a1.3 1.3 0 0 1-1.3 1.3H3.3A1.3 1.3 0 0 1 2 40.7V3.3A1.3 1.3 0 0 1 3.3 2h37.4m0-2H3.3A3.3 3.3 0 0 0 0 3.3v37.4A3.3 3.3 0 0 0 3.3 44h37.4a3.3 3.3 0 0 0 3.3-3.3V3.3A3.3 3.3 0 0 0 40.7 0z"/><g class="cls-4"><rect class="cls-5" width="44" height="44" rx="3.3" ry="3.3"/><rect class="cls-6 cls-7" width="44" height="44" rx="3.3" ry="3.3"/></g></g></g></svg>