<svg xmlns="http://www.w3.org/2000/svg" xmlns:xlink="http://www.w3.org/1999/xlink" viewBox="0 0 161 44"><defs><style>.cls-1{isolation:isolate}.cls-2{fill:#594858}.cls-3,.cls-6,.cls-7{mix-blend-mode:darken}.cls-4{fill:url(#linear-gradient)}.cls-5{mask:url(#mask)}.cls-6{fill:#322838;opacity:.5}.cls-7{opacity:.3;fill:url(#linear-gradient-2)}.cls-12,.cls-8,.cls-9{fill:none;stroke-linecap:round;stroke-linejoin:round}.cls-12,.cls-8{stroke:#322838}.cls-8{stroke-width:8px}.cls-9{stroke:#594858;stroke-width:4px}.cls-10{fill:url(#linear-gradient-3)}.cls-11{fill:url(#linear-gradient-4)}.cls-12{stroke-width:2px}.cls-13,.cls-14{opacity:.6}.cls-13{fill:url(#linear-gradient-5)}.cls-14{fill:url(#linear-gradient-6)}.cls-15{filter:url(#luminosity-invert)}</style><linearGradient id="linear-gradient" x1="80" y1="30.46" x2="80" y2="5.74" gradientUnits="userSpaceOnUse"><stop offset="0" stop-color="#4a4151" stop-opacity="0"/><stop offset="1" stop-color="#4a4151"/></linearGradient><filter id="luminosity-invert" filterUnits="userSpaceOnUse" color-interpolation-filters="sRGB"><feColorMatrix values="-1 0 0 0 1 0 -1 0 0 1 0 0 -1 0 1 0 0 0 1 0"/></filter><linearGradient id="linear-gradient-2" x1="80" y1="38" x2="80" y2="5" gradientUnits="userSpaceOnUse"><stop offset="0" stop-color="#322838" stop-opacity=".3"/><stop offset="1" stop-color="#322838"/></linearGradient><linearGradient id="linear-gradient-3" x1="-1391" y1="21" x2="-1546" y2="21" gradientTransform="matrix(-1 0 0 1 -1388 0)" gradientUnits="userSpaceOnUse"><stop offset="0" stop-color="#594858" stop-opacity="0"/><stop offset=".05" stop-color="#7d6c75" stop-opacity=".58"/><stop offset=".08" stop-color="#958488" stop-opacity=".96"/><stop offset=".23" stop-color="#594858" stop-opacity="0"/></linearGradient><linearGradient id="linear-gradient-4" x1="-1391" y1="21" x2="-1546" y2="21" gradientTransform="matrix(-1 0 0 1 -1388 0)" gradientUnits="userSpaceOnUse"><stop offset=".77" stop-color="#594858" stop-opacity="0"/><stop offset=".92" stop-color="#958488" stop-opacity=".96"/><stop offset=".95" stop-color="#7d6c75" stop-opacity=".58"/><stop offset="1" stop-color="#594858" stop-opacity="0"/></linearGradient><linearGradient id="linear-gradient-5" x1="77" y1="4" x2="119" y2="4" gradientUnits="userSpaceOnUse"><stop offset="0" stop-color="#5e4d5c" stop-opacity="0"/><stop offset=".55" stop-color="#97868a"/><stop offset="1" stop-color="#5e4d5c" stop-opacity="0"/></linearGradient><linearGradient id="linear-gradient-6" y1="38" y2="38" xlink:href="#linear-gradient-5"/></defs><title>Game 1.8 export</title><g class="cls-1"><g id="Roundcounter_background" data-name="Roundcounter background"><g id="left"><path class="cls-2" d="M144 38H16L5 32 4 17 16 5h128l12 11-3 15-9 7z"/><g class="cls-3"><path class="cls-4" d="M144 38H16L5 32 4 17 16 5h128l12 11-3 15-9 7z"/><path class="cls-5 cls-6" d="M144 38H16L5 32 4 17 16 5h128l12 11-3 15-9 7z"/></g><path class="cls-7" d="M144 38H16L5 32 4 17 16 5h128l12 11-3 15-9 7z"/><path class="cls-8" d="M4 16.57L16 6h128l12 12.85-9 9.08-6-4.97 5-4.98 11 9.16L143 40H15L4 32V16.57z"/><path class="cls-8" d="M4 14.57L16 4h128l12 12.85-9 9.08-6-4.97 5-4.98 11 9.16L143 38H15L4 30V14.57z"/><path class="cls-9" d="M4 14.57L16 4h128l12 12.85-9 9.08-6-4.97 5-4.98 11 9.16L143 38H15L4 30V14.57z"/><path class="cls-10" d="M143 39H15a1 1 0 0 1-.59-.19l-11-8A1 1 0 0 1 3 30V14.57a1 1 0 0 1 .34-.75l12-10.57A1 1 0 0 1 16 3h128a1 1 0 0 1 .73.32l12 12.85a1 1 0 0 1 0 1.39l-3.28 3.31 4.21 3.51a1 1 0 0 1 0 1.5l-14 12.86a1 1 0 0 1-.66.26zM15.32 37h127.29l12.87-11.82-3.48-2.89-4.3 4.34a1 1 0 0 1-1.35.07l-6-5a1 1 0 0 1-.07-1.48l5-5a1 1 0 0 1 1.35-.06l5.25 4.37 2.73-2.75L143.57 5H16.38L5 15v14.49zm127.17-16.11l4.45 3.68 3.53-3.57-4.41-3.67z"/><path class="cls-11" d="M143 39H15a1 1 0 0 1-.59-.19l-11-8A1 1 0 0 1 3 30V14.57a1 1 0 0 1 .34-.75l12-10.57A1 1 0 0 1 16 3h128a1 1 0 0 1 .73.32l12 12.85a1 1 0 0 1 0 1.39l-3.28 3.31 4.21 3.51a1 1 0 0 1 0 1.5l-14 12.86a1 1 0 0 1-.66.26zM15.32 37h127.29l12.87-11.82-3.48-2.89-4.3 4.34a1 1 0 0 1-1.35.07l-6-5a1 1 0 0 1-.07-1.48l5-5a1 1 0 0 1 1.35-.06l5.25 4.37 2.73-2.75L143.57 5H16.38L5 15v14.49zm127.17-16.11l4.45 3.68 3.53-3.57-4.41-3.67z"/><path class="cls-12" d="M152.19 16.44l-5 5M156.19 20.44l-5 5"/><path class="cls-13" d="M77 3h42v2H77z"/><path class="cls-14" d="M77 37h42v2H77z"/></g></g></g></svg>