<svg xmlns="http://www.w3.org/2000/svg" xmlns:xlink="http://www.w3.org/1999/xlink" viewBox="0 0 44 44"><defs><style>.cls-1{isolation:isolate}.cls-2,.cls-6{fill:#651928}.cls-3{fill:url(#linear-gradient)}.cls-13,.cls-4,.cls-7{opacity:.5}.cls-11,.cls-13,.cls-15,.cls-4,.cls-6,.cls-7,.cls-8{mix-blend-mode:darken}.cls-4{fill:url(#linear-gradient-2)}.cls-5{fill:url(#linear-gradient-3)}.cls-7{fill:url(#linear-gradient-4)}.cls-9{fill:#7ca8fd}.cls-10{fill:url(#linear-gradient-5)}.cls-11,.cls-15{opacity:.4}.cls-11{fill:url(#linear-gradient-6)}.cls-12{fill:url(#linear-gradient-7)}.cls-13{fill:url(#linear-gradient-8)}.cls-14{fill:url(#linear-gradient-9)}.cls-15{fill:url(#linear-gradient-10)}</style><linearGradient id="linear-gradient" x1="22" y1="1.5" x2="22" y2="42.5" gradientUnits="userSpaceOnUse"><stop offset="0" stop-color="#963a4c"/><stop offset=".41" stop-color="#963a4c" stop-opacity=".99"/><stop offset=".56" stop-color="#963a4c" stop-opacity=".94"/><stop offset=".67" stop-color="#963a4c" stop-opacity=".86"/><stop offset=".76" stop-color="#963a4c" stop-opacity=".75"/><stop offset=".83" stop-color="#963a4c" stop-opacity=".6"/><stop offset=".9" stop-color="#963a4c" stop-opacity=".42"/><stop offset=".95" stop-color="#963a4c" stop-opacity=".21"/><stop offset="1" stop-color="#963a4c" stop-opacity="0"/></linearGradient><linearGradient id="linear-gradient-2" x1="22" y1="42" x2="22" y2="14" gradientUnits="userSpaceOnUse"><stop offset="0" stop-color="#651928"/><stop offset="1" stop-color="#651928" stop-opacity="0"/></linearGradient><linearGradient id="linear-gradient-3" x1="1743.78" y1="1413.94" x2="1743.78" y2="1432.1" gradientTransform="rotate(-90 174.975 1586.915)" gradientUnits="userSpaceOnUse"><stop offset="0" stop-color="#695a6a"/><stop offset="1" stop-color="#695a6a" stop-opacity="0"/></linearGradient><linearGradient id="linear-gradient-4" x1="1744.85" y1="1432.1" x2="1744.85" y2="1413.95" gradientTransform="rotate(-90 174.975 1586.915)" gradientUnits="userSpaceOnUse"><stop offset="0" stop-color="#322838" stop-opacity=".5"/><stop offset="1" stop-color="#322838"/></linearGradient><linearGradient id="linear-gradient-5" x1="-1356.58" y1="1263.38" x2="-1356.58" y2="1282.89" gradientTransform="translate(1375.02 -1261.37)" xlink:href="#linear-gradient-3"/><linearGradient id="linear-gradient-6" x1="-1356.58" y1="1281.89" x2="-1356.58" y2="1262.38" gradientTransform="translate(1375.02 -1261.37)" xlink:href="#linear-gradient-4"/><linearGradient id="linear-gradient-7" x1="1735.23" y1="1385.29" x2="1735.23" y2="1407.24" gradientTransform="rotate(90 1567.335 -140.275)" xlink:href="#linear-gradient-3"/><linearGradient id="linear-gradient-8" x1="1733.93" y1="1407.24" x2="1733.93" y2="1385.29" gradientTransform="rotate(90 1567.335 -140.275)" xlink:href="#linear-gradient-4"/><linearGradient id="linear-gradient-9" x1="-1382.34" y1="1273.88" x2="-1382.34" y2="1293.39" gradientTransform="rotate(180 -679.95 657.825)" xlink:href="#linear-gradient-3"/><linearGradient id="linear-gradient-10" x1="-1382.34" y1="1294.39" x2="-1382.34" y2="1274.88" gradientTransform="rotate(180 -679.95 657.825)" xlink:href="#linear-gradient-4"/></defs><title>Game 1.8 export</title><g class="cls-1"><g id="Red_stone_-_Alive" data-name="Red stone - Alive"><rect class="cls-2" x="2" y="2" width="40" height="40" rx="3" ry="3"/><rect class="cls-3" x="1.5" y="1.5" width="41" height="41" rx="3.5" ry="3.5"/><path class="cls-2" d="M39 2a3 3 0 0 1 3 3v34a3 3 0 0 1-3 3H5a3 3 0 0 1-3-3V5a3 3 0 0 1 3-3h34m0-1H5a4 4 0 0 0-4 4v34a4 4 0 0 0 4 4h34a4 4 0 0 0 4-4V5a4 4 0 0 0-4-4z"/><path class="cls-4" d="M4 32a2.94 2.94 0 0 0 3 3h30a2.76 2.76 0 0 0 3-3V14l2 3v22a3 3 0 0 1-3 3H5a3 3 0 0 1-3-3V17l2-3v18z"/><path class="cls-5" d="M4.74 25.14A34.18 34.18 0 0 1 7 21.51l1-1.41a1.81 1.81 0 0 1 2.8-.25 19.66 19.66 0 0 0 2.41 2.06 3 3 0 0 0 1-.68 2.87 2.87 0 0 1 3.34-.38L19.3 22c1 .62 1.14.44.31-.4l-1.9-1.91a2.85 2.85 0 0 0-3-.75 2.75 2.75 0 0 1-3-.79L8.2 14.34a5.11 5.11 0 0 0-2.91-1.59 2.65 2.65 0 0 1-2-2.1l-.75-2.88C2.24 6.63 2 6.66 2 7.84v9.38c0 1.18.58 1.37 1.29.43l.6-.79c.71-.94 1.75-1.2 2.32-.58A2.51 2.51 0 0 1 6 19.17l-1.48 2.22c-.66 1-1.5 1.52-1.86 1.21S2 23 2 24.19v4.13c0 1.18.44 1.28 1 .24z"/><path class="cls-6" d="M4.74 24.07A34.18 34.18 0 0 1 7 20.44L8 19a1.81 1.81 0 0 1 2.8-.25 19.66 19.66 0 0 0 2.41 2.06 3 3 0 0 0 1-.68 2.87 2.87 0 0 1 3.34-.38l1.8 1.11c1 .62 1.14.44.31-.4l-1.9-1.91a2.85 2.85 0 0 0-3-.75 2.75 2.75 0 0 1-3-.79L8.2 13.28a5.11 5.11 0 0 0-2.91-1.59 2.65 2.65 0 0 1-2-2.1L2.54 6.7C2.24 5.56 2 5.59 2 6.77v9.38c0 1.18.58 1.37 1.29.43l.6-.79c.71-.94 1.75-1.2 2.32-.58A2.51 2.51 0 0 1 6 18.1l-1.48 2.22c-.66 1-1.5 1.52-1.86 1.21S2 21.94 2 23.12v4.13c0 1.18.44 1.28 1 .24z"/><path class="cls-7" d="M4.74 24.07A34.18 34.18 0 0 1 7 20.44L8 19a1.81 1.81 0 0 1 2.8-.25 19.66 19.66 0 0 0 2.41 2.06 3 3 0 0 0 1-.68 2.87 2.87 0 0 1 3.34-.38l1.8 1.11c1 .62 1.14.44.31-.4l-1.9-1.91a2.85 2.85 0 0 0-3-.75 2.75 2.75 0 0 1-3-.79L8.2 13.28a5.11 5.11 0 0 0-2.91-1.59 2.65 2.65 0 0 1-2-2.1L2.54 6.7C2.24 5.56 2 5.59 2 6.77v9.38c0 1.18.58 1.37 1.29.43l.6-.79c.71-.94 1.75-1.2 2.32-.58A2.51 2.51 0 0 1 6 18.1l-1.48 2.22c-.66 1-1.5 1.52-1.86 1.21S2 21.94 2 23.12v4.13c0 1.18.44 1.28 1 .24z"/><path class="cls-8 cls-9" d="M3.07 23.12v-.44a3.4 3.4 0 0 0 2-1.32c-.49.78-1 1.6-1.29 2.23L3.07 25v-1.88zm10.15-3.57c-.22-.21-.59-.55-.94-.84a4 4 0 0 0 1.49.36 3.36 3.36 0 0 0-.37.32zm-6.2-1a3.46 3.46 0 0 0 0-4 2.1 2.1 0 0 0-1.56-.68 3.11 3.11 0 0 0-2.37 1.3v-3.68a3 3 0 0 0 2.19 1.26A4.24 4.24 0 0 1 7.42 14l3.17 3.38a2.85 2.85 0 0 0-1.11-.23 2.9 2.9 0 0 0-2.36 1.25z"/><path class="cls-10" d="M7.76 3.2a6 6 0 0 1 2.75 2.5l2.29 4.56a4.55 4.55 0 0 0 1.69 2c.44.13.77 1.14.74 2.23v.94a5.44 5.44 0 0 0 1.33 3.42l2 2.08c.76.79.83.73.15-.13l-1.18-1.48a4.4 4.4 0 0 1-.71-3.48v-.13a7.64 7.64 0 0 1 2.05-3.21 6.71 6.71 0 0 0 1.91-3.24l.59-2.93a3.42 3.42 0 0 1 2.33-2.42l6.07-1.47c1.07-.26 1-.46-.06-.46l-11.62.06c-1.1 0-1.2.43-.23.94l.42.22a3.12 3.12 0 0 1 1.76 2 17.36 17.36 0 0 1-.45 3l-.12.51a4.58 4.58 0 0 1-1.48 2.55 2.47 2.47 0 0 1-2.06.12 5.47 5.47 0 0 1-1.88-2.29l-1.4-3a3 3 0 0 1 .1-2.92c.52-.62 0-1.12-1-1.11H7.12C6 2.18 6 2.51 7 2.9z"/><path class="cls-6" d="M7.76 2.2a6 6 0 0 1 2.75 2.5l2.29 4.56a4.55 4.55 0 0 0 1.69 2c.44.13.77 1.14.74 2.23v.94a5.44 5.44 0 0 0 1.33 3.42l2 2.08c.76.79.83.73.15-.13l-1.18-1.48a4.4 4.4 0 0 1-.71-3.48v-.13a7.64 7.64 0 0 1 2.05-3.21 6.71 6.71 0 0 0 1.91-3.24l.59-2.93a3.42 3.42 0 0 1 2.33-2.42l6.07-1.47c1.07-.26 1-.46-.06-.46l-11.62.06c-1.1 0-1.2.43-.23.94l.42.22a3.12 3.12 0 0 1 1.76 2 17.36 17.36 0 0 1-.45 3l-.12.51a4.58 4.58 0 0 1-1.48 2.55 2.47 2.47 0 0 1-2.06.12 5.47 5.47 0 0 1-1.88-2.29l-1.4-3a3 3 0 0 1 .1-2.92c.52-.62 0-1.12-1-1.11H7.12C6 1.19 6 1.51 7 1.91z"/><path class="cls-11" d="M7.76 2.2a6 6 0 0 1 2.75 2.5l2.29 4.56a4.55 4.55 0 0 0 1.69 2c.44.13.77 1.14.74 2.23v.94a5.44 5.44 0 0 0 1.33 3.42l2 2.08c.76.79.83.73.15-.13l-1.18-1.48a4.4 4.4 0 0 1-.71-3.48v-.13a7.64 7.64 0 0 1 2.05-3.21 6.71 6.71 0 0 0 1.91-3.24l.59-2.93a3.42 3.42 0 0 1 2.33-2.42l6.07-1.47c1.07-.26 1-.46-.06-.46l-11.62.06c-1.1 0-1.2.43-.23.94l.42.22a3.12 3.12 0 0 1 1.76 2 17.36 17.36 0 0 1-.45 3l-.12.51a4.58 4.58 0 0 1-1.48 2.55 2.47 2.47 0 0 1-2.06.12 5.47 5.47 0 0 1-1.88-2.29l-1.4-3a3 3 0 0 1 .1-2.92c.52-.62 0-1.12-1-1.11H7.12C6 1.19 6 1.51 7 1.91z"/><path class="cls-8 cls-2" d="M16.24 13.54a5.3 5.3 0 0 0-.32-2 3.28 3.28 0 0 0 .93.13 3.79 3.79 0 0 0 .64-.05 9.52 9.52 0 0 0-1.26 2v-.08zm-4.83-9.29a6.73 6.73 0 0 0-1.78-2.08h2.1a3.94 3.94 0 0 0-.29 2.14zM21 3.8a3.73 3.73 0 0 0-1.21-1.74h3.44A4.5 4.5 0 0 0 21 3.8z"/><path class="cls-12" d="M38.47 19.11a41.34 41.34 0 0 1-2.7 4.39l-1.23 1.7a2.19 2.19 0 0 1-3.38.3 23.78 23.78 0 0 0-2.92-2.5 3.61 3.61 0 0 0-1.15.83 3.47 3.47 0 0 1-4 .46L20.86 23c-1.21-.75-1.38-.53-.38.48l2.29 2.31a3.45 3.45 0 0 0 3.64.91 3.33 3.33 0 0 1 3.59 1l4.27 4.55a6.18 6.18 0 0 0 3.52 1.93c1 0 2 1.17 2.41 2.54l.91 3.48c.36 1.38.66 1.34.66-.08V28.68c0-1.42-.7-1.66-1.56-.52l-.73 1c-.86 1.13-2.12 1.45-2.81.71s-.59-2.32.21-3.49l1.84-2.69c.8-1.17 1.81-1.83 2.25-1.47s.79-.5.79-1.92v-5c0-1.42-.53-1.55-1.18-.29z"/><path class="cls-6" d="M38.47 17.81a41.34 41.34 0 0 1-2.7 4.39l-1.23 1.7a2.19 2.19 0 0 1-3.38.3 23.78 23.78 0 0 0-2.91-2.49 3.61 3.61 0 0 0-1.15.83A3.47 3.47 0 0 1 23 23l-2.18-1.34c-1.21-.75-1.38-.53-.38.48l2.29 2.31a3.45 3.45 0 0 0 3.64.91 3.33 3.33 0 0 1 3.59 1l4.27 4.55a6.18 6.18 0 0 0 3.57 1.89c1 0 2 1.17 2.41 2.54l.91 3.48c.36 1.38.66 1.34.66-.08V27.39c0-1.42-.7-1.66-1.56-.52l-.73 1c-.86 1.13-2.12 1.45-2.81.71s-.59-2.32.21-3.49l1.84-2.69c.8-1.17 1.81-1.83 2.25-1.47s.79-.5.79-1.92V14c0-1.42-.53-1.55-1.18-.29z"/><path class="cls-13" d="M38.47 17.81a41.34 41.34 0 0 1-2.7 4.39l-1.23 1.7a2.19 2.19 0 0 1-3.38.3 23.78 23.78 0 0 0-2.91-2.49 3.61 3.61 0 0 0-1.15.83A3.47 3.47 0 0 1 23 23l-2.18-1.34c-1.21-.75-1.38-.53-.38.48l2.29 2.31a3.45 3.45 0 0 0 3.64.91 3.33 3.33 0 0 1 3.59 1l4.27 4.55a6.18 6.18 0 0 0 3.57 1.89c1 0 2 1.17 2.41 2.54l.91 3.48c.36 1.38.66 1.34.66-.08V27.39c0-1.42-.7-1.66-1.56-.52l-.73 1c-.86 1.13-2.12 1.45-2.81.71s-.59-2.32.21-3.49l1.84-2.69c.8-1.17 1.81-1.83 2.25-1.47s.79-.5.79-1.92V14c0-1.42-.53-1.55-1.18-.29z"/><path class="cls-8 cls-9" d="M40.48 33a3.64 3.64 0 0 0-2.65-1.53A5.13 5.13 0 0 1 35.22 30l-3.84-4.09a3.45 3.45 0 0 0 1.34.27 3.51 3.51 0 0 0 2.86-1.5l.11-.16a4.18 4.18 0 0 0 0 4.89 2.54 2.54 0 0 0 1.89.82 3.76 3.76 0 0 0 2.86-1.57V33zm-11.13-8.71a4.82 4.82 0 0 0-1.8-.44 4.14 4.14 0 0 0 .45-.38l.21-.2c.31.27.71.63 1.14 1.02zm8.71-3.19c.59-.94 1.17-1.93 1.56-2.69l.87-1.68v2.81a4.1 4.1 0 0 0-2.43 1.56z"/><path class="cls-14" d="M33.12 40.57a6 6 0 0 1-2.75-2.5l-2.29-4.56a4.55 4.55 0 0 0-1.69-2c-.44-.13-.77-1.14-.74-2.23v-.94a5.44 5.44 0 0 0-1.33-3.42l-2-2.08c-.76-.79-.83-.73-.15.13l1.18 1.48a4.4 4.4 0 0 1 .65 3.44V28a7.64 7.64 0 0 1-2 3.24 6.71 6.71 0 0 0-2 3.25l-.59 2.93a3.42 3.42 0 0 1-2.33 2.42L11 41.31c-1.07.26-1 .46.06.46l11.62-.06c1.1 0 1.2-.43.23-.94l-.42-.22a3.12 3.12 0 0 1-1.76-2 17.36 17.36 0 0 1 .45-3l.16-.55a4.58 4.58 0 0 1 1.48-2.55 2.47 2.47 0 0 1 2.06-.12 5.47 5.47 0 0 1 1.88 2.29l1.4 3a3 3 0 0 1-.1 2.92c-.52.62 0 1.12 1 1.11h4.65c1.1 0 1.16-.33.13-.72z"/><path class="cls-6" d="M33.12 39.58a6 6 0 0 1-2.75-2.5l-2.29-4.56a4.55 4.55 0 0 0-1.69-2c-.44-.13-.77-1.14-.74-2.23v-.94a5.44 5.44 0 0 0-1.33-3.42l-2-2.08c-.76-.79-.83-.73-.15.13l1.18 1.48A4.4 4.4 0 0 1 24 26.9v.1a7.64 7.64 0 0 1-2 3.24 6.71 6.71 0 0 0-2 3.25l-.59 2.93a3.42 3.42 0 0 1-2.33 2.42L11 40.31c-1.07.26-1 .46.06.46l11.62-.06c1.1 0 1.2-.43.23-.94l-.42-.22a3.12 3.12 0 0 1-1.76-2 17.36 17.36 0 0 1 .45-3l.16-.55a4.58 4.58 0 0 1 1.48-2.55 2.47 2.47 0 0 1 2.06-.12 5.47 5.47 0 0 1 1.88 2.29l1.4 3a3 3 0 0 1-.1 2.92c-.52.62 0 1.12 1 1.11h4.65c1.1 0 1.16-.33.13-.72z"/><path class="cls-15" d="M33.12 39.58a6 6 0 0 1-2.75-2.5l-2.29-4.56a4.55 4.55 0 0 0-1.69-2c-.44-.13-.77-1.14-.74-2.23v-.94a5.44 5.44 0 0 0-1.33-3.42l-2-2.08c-.76-.79-.83-.73-.15.13l1.18 1.48A4.4 4.4 0 0 1 24 26.9v.1a7.64 7.64 0 0 1-2 3.24 6.71 6.71 0 0 0-2 3.25l-.59 2.93a3.42 3.42 0 0 1-2.33 2.42L11 40.31c-1.07.26-1 .46.06.46l11.62-.06c1.1 0 1.2-.43.23-.94l-.42-.22a3.12 3.12 0 0 1-1.76-2 17.36 17.36 0 0 1 .45-3l.16-.55a4.58 4.58 0 0 1 1.48-2.55 2.47 2.47 0 0 1 2.06-.12 5.47 5.47 0 0 1 1.88 2.29l1.4 3a3 3 0 0 1-.1 2.92c-.52.62 0 1.12 1 1.11h4.65c1.1 0 1.16-.33.13-.72z"/><path class="cls-8 cls-2" d="M17.6 39.74A4.5 4.5 0 0 0 19.83 38 3.73 3.73 0 0 0 21 39.72zm11.55-.13a4 4 0 0 0 .29-2.14v.06a6.74 6.74 0 0 0 1.78 2.08h-2.1zM25 30.26a3.29 3.29 0 0 0-1-.13 3.79 3.79 0 0 0-.64.05 9.55 9.55 0 0 0 1.25-2v.06a5.3 5.3 0 0 0 .39 2.02z"/></g></g></svg>