<svg xmlns="http://www.w3.org/2000/svg" xmlns:xlink="http://www.w3.org/1999/xlink" viewBox="0 0 44 44"><defs><style>.cls-1{isolation:isolate}.cls-2,.cls-6{fill:#193364}.cls-3{fill:url(#linear-gradient)}.cls-11,.cls-4,.cls-7{opacity:.5}.cls-11,.cls-4,.cls-6,.cls-7,.cls-8,.cls-9{mix-blend-mode:darken}.cls-4{fill:url(#linear-gradient-2)}.cls-5{fill:url(#linear-gradient-3)}.cls-7{fill:url(#linear-gradient-4)}.cls-9{fill:#322838}.cls-10{fill:url(#linear-gradient-5)}.cls-11{fill:url(#linear-gradient-6)}</style><linearGradient id="linear-gradient" x1="22" y1="1.5" x2="22" y2="42.5" gradientUnits="userSpaceOnUse"><stop offset="0" stop-color="#4469af"/><stop offset=".4" stop-color="#4469af" stop-opacity=".99"/><stop offset=".55" stop-color="#4469af" stop-opacity=".95"/><stop offset=".65" stop-color="#4469af" stop-opacity=".88"/><stop offset=".73" stop-color="#4469af" stop-opacity=".79"/><stop offset=".8" stop-color="#4469af" stop-opacity=".66"/><stop offset=".87" stop-color="#4469af" stop-opacity=".51"/><stop offset=".93" stop-color="#4469af" stop-opacity=".32"/><stop offset=".98" stop-color="#4469af" stop-opacity=".11"/><stop offset="1" stop-color="#4469af" stop-opacity="0"/></linearGradient><linearGradient id="linear-gradient-2" x1="22" y1="42" x2="22" y2="14" gradientUnits="userSpaceOnUse"><stop offset="0" stop-color="#193364"/><stop offset="1" stop-color="#193364" stop-opacity="0"/></linearGradient><linearGradient id="linear-gradient-3" x1="2476.44" y1="1245.61" x2="2476.44" y2="1269.58" gradientTransform="matrix(-1 0 0 1 2498.85 -1241.6)" gradientUnits="userSpaceOnUse"><stop offset="0" stop-color="#695a6a"/><stop offset="1" stop-color="#695a6a" stop-opacity="0"/></linearGradient><linearGradient id="linear-gradient-4" x1="2476.44" y1="1268.16" x2="2476.44" y2="1244.19" gradientTransform="matrix(-1 0 0 1 2498.85 -1241.6)" gradientUnits="userSpaceOnUse"><stop offset="0" stop-color="#322838" stop-opacity="0"/><stop offset=".14" stop-color="#322838" stop-opacity=".24"/><stop offset=".46" stop-color="#322838" stop-opacity=".66"/><stop offset=".75" stop-color="#322838" stop-opacity=".91"/><stop offset="1" stop-color="#322838"/></linearGradient><linearGradient id="linear-gradient-5" x1="2358.73" y1="1159.16" x2="2358.73" y2="1184.68" gradientTransform="rotate(-90 612.545 1769.765)" xlink:href="#linear-gradient-3"/><linearGradient id="linear-gradient-6" x1="2360.25" y1="1184.68" x2="2360.25" y2="1159.16" gradientTransform="rotate(-90 612.545 1769.765)" xlink:href="#linear-gradient-4"/></defs><title>Game 1.8 export</title><g class="cls-1"><g id="Blue_stone_-_Alive" data-name="Blue stone - Alive"><rect class="cls-2" x="2" y="2" width="40" height="40" rx="3" ry="3"/><rect class="cls-3" x="1.5" y="1.5" width="41" height="41" rx="3.5" ry="3.5"/><path class="cls-2" d="M39 2a3 3 0 0 1 3 3v34a3 3 0 0 1-3 3H5a3 3 0 0 1-3-3V5a3 3 0 0 1 3-3h34m0-1H5a4 4 0 0 0-4 4v34a4 4 0 0 0 4 4h34a4 4 0 0 0 4-4V5a4 4 0 0 0-4-4z"/><path class="cls-4" d="M4 32a2.94 2.94 0 0 0 3 3h30a2.76 2.76 0 0 0 3-3V14l2 3v22a3 3 0 0 1-3 3H5a3 3 0 0 1-3-3V17l2-3v18z"/><path class="cls-5" d="M30.15 8c-1.28.9-3.28 2.48-4.46 3.51l-1.1 1a5.84 5.84 0 0 0-1.74 4.68s.8 5.54.8 5.89-2.27.92-2.27.92A8.85 8.85 0 0 0 17 27l-.05.08c-.89 1.28-1.12 1.16-.51-.28l.68-1.6A5.91 5.91 0 0 1 20 22.07c1-.29 1.34-1.73.81-3.2L20.13 17a2.24 2.24 0 0 0-3.26-1.37 8.64 8.64 0 0 0-3.26 4l-2.51 7c-.53 1.47-.73 1.42-.46-.12L12 19a9.17 9.17 0 0 1 2.68-4.63l1.58-1.33a4.34 4.34 0 0 0 1.59-3.93 8.5 8.5 0 0 0-2.48-3.62c-1-.84-.61-1.53 1-1.53h4.33c1.56 0 2 .92.87 2.05l-.12.12C20.38 7.31 20 9 20.73 10s2.19.87 3.35-.18l1.56-1.41c1.16-1 1.83-2.46 1.5-3.13S27.8 4 29.36 4H33c1.56 0 1.8.74.52 1.64z"/><path class="cls-6" d="M30.15 6.6c-1.28.9-3.28 2.48-4.46 3.51l-1.1 1a5.84 5.84 0 0 0-1.74 4.68s.8 5.54.8 5.89-2.27.92-2.27.92a8.85 8.85 0 0 0-4.38 3l-.05.08c-.89 1.28-1.12 1.16-.51-.28l.68-1.6A5.91 5.91 0 0 1 20 20.64c1-.29 1.34-1.73.81-3.2l-.68-1.84a2.24 2.24 0 0 0-3.26-1.37 8.64 8.64 0 0 0-3.26 4l-2.51 7c-.53 1.47-.73 1.42-.46-.12L12 17.63A9.17 9.17 0 0 1 14.66 13l1.58-1.33a4.34 4.34 0 0 0 1.59-3.93 8.5 8.5 0 0 0-2.48-3.62c-1-.84-.61-1.53 1-1.53h4.35c1.56 0 2 .92.87 2.05l-.12.12c-1.07 1.13-1.45 2.83-.72 3.78s2.19.87 3.35-.18l1.56-1.41c1.16-1 1.83-2.46 1.5-3.13s.67-1.23 2.23-1.23H33c1.56 0 1.8.74.52 1.64z"/><path class="cls-7" d="M30.15 6.6c-1.28.9-3.28 2.48-4.46 3.51l-1.1 1a5.84 5.84 0 0 0-1.74 4.68s.8 5.54.8 5.89-2.27.92-2.27.92a8.85 8.85 0 0 0-4.38 3l-.05.08c-.89 1.28-1.12 1.16-.51-.28l.68-1.6A5.91 5.91 0 0 1 20 20.64c1-.29 1.34-1.73.81-3.2l-.68-1.84a2.24 2.24 0 0 0-3.26-1.37 8.64 8.64 0 0 0-3.26 4l-2.51 7c-.53 1.47-.73 1.42-.46-.12L12 17.63A9.17 9.17 0 0 1 14.66 13l1.58-1.33a4.34 4.34 0 0 0 1.59-3.93 8.5 8.5 0 0 0-2.48-3.62c-1-.84-.61-1.53 1-1.53h4.35c1.56 0 2 .92.87 2.05l-.12.12c-1.07 1.13-1.45 2.83-.72 3.78s2.19.87 3.35-.18l1.56-1.41c1.16-1 1.83-2.46 1.5-3.13s.67-1.23 2.23-1.23H33c1.56 0 1.8.74.52 1.64z"/><path class="cls-8 cls-2" d="M21.83 21a3.15 3.15 0 0 0 .22-.38v-.06.34zm-.44-6A3.73 3.73 0 0 0 18 12.51a3.51 3.51 0 0 0-.6.05 6.23 6.23 0 0 0 1.92-3.67 3 3 0 0 0 2.81 1.74 3.87 3.87 0 0 0 1.07-.15 7.48 7.48 0 0 0-1.8 4.45zM19 6.76A10.26 10.26 0 0 0 17.26 4h3A5.28 5.28 0 0 0 19 6.76zm8.84-.22a4.29 4.29 0 0 0 .8-2.47 4.06 4.06 0 0 1 .72-.07h2l-2 1.43c-.47.31-.99.7-1.53 1.11z"/><path class="cls-9" d="M39.58 2c.78 0 .8.17 0 .35l-1.33.31a11.07 11.07 0 0 0-2.61 1l-10.11 6c-.67.4-.8.25-.28-.34l3.19-3.59A2.69 2.69 0 0 0 29 3.36l-.08-.24a.93.93 0 0 1 1-1.31zM17.2 3c-.78 0-1 .56-.48 1.15l3.83 4.37c.52.59.68.48.37-.23l-.43-1a1.66 1.66 0 0 1 .65-2l3.46-2.06c.67-.4.58-.69-.2-.64z"/><path class="cls-10" d="M6.21 31.81c1-1.36 2.64-3.5 3.74-4.75l1-1.17a6.21 6.21 0 0 1 5-1.85s5.9.85 6.27.85 1-2.42 1-2.42a9.42 9.42 0 0 1 3.23-4.66l.08-.06c1.37-1 1.23-1.2-.3-.55l-1.7.72A6.29 6.29 0 0 0 21.17 21c-.31 1-1.84 1.42-3.41.86l-2-.71a2.38 2.38 0 0 1-1.46-3.47 9.19 9.19 0 0 1 4.24-3.47L26 11.54c1.6-.54 1.54-.79-.1-.54l-8 1.42a9.76 9.76 0 0 0-4.9 2.9L11.6 17a4.62 4.62 0 0 1-4.18 1.69 9 9 0 0 1-3.86-2.64c-.89-1.11-1.62-.65-1.62 1v4.69c0 1.66 1 2.08 2.18.93l.13-.13c1.2-1.15 3-1.5 4-.78s.92 2.33-.19 3.56L6.58 27C5.47 28.24 4 29 3.25 28.6s-1.31.71-1.31 2.4v3.83c0 1.66.79 1.92 1.75.56z"/><path class="cls-6" d="M6.21 30.3c1-1.36 2.64-3.5 3.74-4.75l1-1.17a6.21 6.21 0 0 1 5-1.85s5.9.85 6.27.85 1-2.42 1-2.42a9.42 9.42 0 0 1 3.23-4.66l.08-.06c1.37-1 1.23-1.2-.3-.55l-1.7.72a6.29 6.29 0 0 0-3.34 3.06c-.31 1-1.84 1.42-3.41.86l-2-.71a2.38 2.38 0 0 1-1.46-3.47 9.19 9.19 0 0 1 4.24-3.47L26 10c1.57-.56 1.51-.78-.13-.49L18 11a9.76 9.76 0 0 0-5 2.81l-1.4 1.68a4.62 4.62 0 0 1-4.18 1.69 9 9 0 0 1-3.86-2.64c-.89-1.11-1.62-.65-1.62 1v4.69c0 1.66 1 2.08 2.18.93l.14-.16c1.2-1.15 3-1.5 4-.78s.92 2.33-.19 3.56l-1.5 1.66c-1.12 1.23-2.62 2-3.34 1.59s-1.31.71-1.31 2.38v3.83c0 1.66.79 1.92 1.75.56z"/><path class="cls-11" d="M6.21 30.3c1-1.36 2.64-3.5 3.74-4.75l1-1.17a6.21 6.21 0 0 1 5-1.85s5.9.85 6.27.85 1-2.42 1-2.42a9.42 9.42 0 0 1 3.23-4.66l.08-.06c1.37-1 1.23-1.2-.3-.55l-1.7.72a6.29 6.29 0 0 0-3.34 3.06c-.31 1-1.84 1.42-3.41.86l-2-.71a2.38 2.38 0 0 1-1.46-3.47 9.19 9.19 0 0 1 4.24-3.47L26 10c1.57-.56 1.51-.78-.13-.49L18 11a9.76 9.76 0 0 0-5 2.81l-1.4 1.68a4.62 4.62 0 0 1-4.18 1.69 9 9 0 0 1-3.86-2.64c-.89-1.11-1.62-.65-1.62 1v4.69c0 1.66 1 2.08 2.18.93l.14-.16c1.2-1.15 3-1.5 4-.78s.92 2.33-.19 3.56l-1.5 1.66c-1.12 1.23-2.62 2-3.34 1.59s-1.31.71-1.31 2.38v3.83c0 1.66.79 1.92 1.75.56z"/><path class="cls-8 cls-2" d="M3.46 29.46a4.31 4.31 0 0 1 .06-.78h.17a4.65 4.65 0 0 0 2.46-.85C5.71 28.42 5.3 29 5 29.42l-1.54 2.15v-2.11zm6.88-6.59a4 4 0 0 0 .14-1.53A3.2 3.2 0 0 0 9.16 19a3.3 3.3 0 0 0-.51-.3 6.72 6.72 0 0 0 3.9-2 3.7 3.7 0 0 0 .18 1.93A4.13 4.13 0 0 0 15.09 21a8.05 8.05 0 0 0-4.76 1.87zM21 21.71a3.4 3.4 0 0 0 .48-.28l-.11.33zM3.46 16.58a11 11 0 0 0 2.92 1.84 5.7 5.7 0 0 0-2.92 1.32v-3.16z"/><path class="cls-9" d="M1.32 40.34c0 .83.19.85.37 0L2 39a11.79 11.79 0 0 1 1.11-2.78l6.4-10.8c.42-.72.26-.85-.36-.3l-3.82 3.4a2.87 2.87 0 0 1-2.57.48H2.5a1 1 0 0 0-1.4 1zM2.37 16.51c0-.83.6-1.06 1.23-.51l4.66 4.08c.63.55.51.72-.25.39L7 20a1.77 1.77 0 0 0-2.16.69l-2.2 3.68c-.43.71-.74.62-.69-.21z"/></g></g></svg>