<svg xmlns="http://www.w3.org/2000/svg" xmlns:xlink="http://www.w3.org/1999/xlink" viewBox="0 0 44 44"><defs><style>.cls-1{isolation:isolate}.cls-2,.cls-6{fill:#193364}.cls-3{fill:url(#linear-gradient)}.cls-13,.cls-4,.cls-7{opacity:.5}.cls-11,.cls-13,.cls-15,.cls-4,.cls-6,.cls-7,.cls-8{mix-blend-mode:darken}.cls-4{fill:url(#linear-gradient-2)}.cls-5{fill:url(#linear-gradient-3)}.cls-7{fill:url(#linear-gradient-4)}.cls-9{fill:#7ca8fd}.cls-10{fill:url(#linear-gradient-5)}.cls-11,.cls-15{opacity:.4}.cls-11{fill:url(#linear-gradient-6)}.cls-12{fill:url(#linear-gradient-7)}.cls-13{fill:url(#linear-gradient-8)}.cls-14{fill:url(#linear-gradient-9)}.cls-15{fill:url(#linear-gradient-10)}</style><linearGradient id="linear-gradient" x1="22" y1="1.5" x2="22" y2="42.5" gradientUnits="userSpaceOnUse"><stop offset="0" stop-color="#4469af"/><stop offset=".4" stop-color="#4469af" stop-opacity=".99"/><stop offset=".55" stop-color="#4469af" stop-opacity=".95"/><stop offset=".65" stop-color="#4469af" stop-opacity=".88"/><stop offset=".73" stop-color="#4469af" stop-opacity=".79"/><stop offset=".8" stop-color="#4469af" stop-opacity=".66"/><stop offset=".87" stop-color="#4469af" stop-opacity=".51"/><stop offset=".93" stop-color="#4469af" stop-opacity=".32"/><stop offset=".98" stop-color="#4469af" stop-opacity=".11"/><stop offset="1" stop-color="#4469af" stop-opacity="0"/></linearGradient><linearGradient id="linear-gradient-2" x1="22" y1="42" x2="22" y2="14" gradientUnits="userSpaceOnUse"><stop offset="0" stop-color="#193364"/><stop offset="1" stop-color="#193364" stop-opacity="0"/></linearGradient><linearGradient id="linear-gradient-3" x1="1850.17" y1="1421.17" x2="1850.17" y2="1439.32" gradientTransform="rotate(-90 224.975 1643.915)" gradientUnits="userSpaceOnUse"><stop offset="0" stop-color="#695a6a"/><stop offset="1" stop-color="#695a6a" stop-opacity="0"/></linearGradient><linearGradient id="linear-gradient-4" x1="1851.24" y1="1439.32" x2="1851.24" y2="1421.17" gradientTransform="rotate(-90 224.975 1643.915)" gradientUnits="userSpaceOnUse"><stop offset="0" stop-color="#322838" stop-opacity=".5"/><stop offset="1" stop-color="#322838"/></linearGradient><linearGradient id="linear-gradient-5" x1="-1356.36" y1="1263.99" x2="-1356.36" y2="1283.5" gradientTransform="translate(1375.02 -1261.37)" xlink:href="#linear-gradient-3"/><linearGradient id="linear-gradient-6" x1="-1356.36" y1="1282.5" x2="-1356.36" y2="1263" gradientTransform="translate(1375.02 -1261.37)" xlink:href="#linear-gradient-4"/><linearGradient id="linear-gradient-7" x1="1728.84" y1="1492.06" x2="1728.84" y2="1514.01" gradientTransform="rotate(90 1617.335 -83.275)" xlink:href="#linear-gradient-3"/><linearGradient id="linear-gradient-8" x1="1727.55" y1="1514.01" x2="1727.55" y2="1492.06" gradientTransform="rotate(90 1617.335 -83.275)" xlink:href="#linear-gradient-4"/><linearGradient id="linear-gradient-9" x1="-1282.56" y1="1387.27" x2="-1282.56" y2="1406.78" gradientTransform="rotate(180 -629.95 714.825)" xlink:href="#linear-gradient-3"/><linearGradient id="linear-gradient-10" x1="-1282.56" y1="1407.77" x2="-1282.56" y2="1388.26" gradientTransform="rotate(180 -629.95 714.825)" xlink:href="#linear-gradient-4"/></defs><title>Game 1.8 export</title><g class="cls-1"><g id="Blue_stone_-_Alive" data-name="Blue stone - Alive"><rect class="cls-2" x="2" y="2" width="40" height="40" rx="3" ry="3"/><rect class="cls-3" x="1.5" y="1.5" width="41" height="41" rx="3.5" ry="3.5"/><path class="cls-2" d="M39 2a3 3 0 0 1 3 3v34a3 3 0 0 1-3 3H5a3 3 0 0 1-3-3V5a3 3 0 0 1 3-3h34m0-1H5a4 4 0 0 0-4 4v34a4 4 0 0 0 4 4h34a4 4 0 0 0 4-4V5a4 4 0 0 0-4-4z"/><path class="cls-4" d="M4 32a2.94 2.94 0 0 0 3 3h30a2.76 2.76 0 0 0 3-3V14l2 3v22a3 3 0 0 1-3 3H5a3 3 0 0 1-3-3V17l2-3v18z"/><path class="cls-5" d="M5 25.75a34.18 34.18 0 0 1 2.23-3.63l1-1.41a1.81 1.81 0 0 1 2.8-.25 19.66 19.66 0 0 0 2.41 2.06 3 3 0 0 0 1-.68 2.87 2.87 0 0 1 3.34-.38l1.8 1.11c1 .62 1.14.44.31-.4l-1.9-1.91a2.85 2.85 0 0 0-3-.75 2.75 2.75 0 0 1-3-.79L8.42 15a5.11 5.11 0 0 0-2.91-1.59 2.65 2.65 0 0 1-2-2.1l-.75-2.93c-.3-1.14-.54-1.11-.54.07v9.38c0 1.18.58 1.37 1.29.43l.6-.79c.71-.94 1.75-1.2 2.32-.58a2.51 2.51 0 0 1-.18 2.89L4.74 22c-.66 1-1.5 1.52-1.86 1.21s-.65.41-.65 1.59v4.13c0 1.18.44 1.28 1 .24z"/><path class="cls-6" d="M5 24.68a34.18 34.18 0 0 1 2.23-3.63l1-1.41a1.81 1.81 0 0 1 2.8-.25 19.66 19.66 0 0 0 2.41 2.06 3 3 0 0 0 1-.68 2.87 2.87 0 0 1 3.34-.38l1.8 1.11c1 .62 1.14.44.31-.4l-1.9-1.91a2.85 2.85 0 0 0-3-.75 2.75 2.75 0 0 1-3-.79l-3.57-3.76a5.11 5.11 0 0 0-2.91-1.59 2.65 2.65 0 0 1-2-2.1l-.75-2.89c-.3-1.14-.54-1.11-.54.07v9.38c0 1.18.58 1.37 1.29.43l.6-.79c.71-.94 1.75-1.2 2.32-.58a2.51 2.51 0 0 1-.18 2.89l-1.51 2.23c-.66 1-1.5 1.52-1.86 1.21s-.65.41-.65 1.59v4.13c0 1.18.44 1.28 1 .24z"/><path class="cls-7" d="M5 24.68a34.18 34.18 0 0 1 2.23-3.63l1-1.41a1.81 1.81 0 0 1 2.8-.25 19.66 19.66 0 0 0 2.41 2.06 3 3 0 0 0 1-.68 2.87 2.87 0 0 1 3.34-.38l1.8 1.11c1 .62 1.14.44.31-.4l-1.9-1.91a2.85 2.85 0 0 0-3-.75 2.75 2.75 0 0 1-3-.79l-3.57-3.76a5.11 5.11 0 0 0-2.91-1.59 2.65 2.65 0 0 1-2-2.1l-.75-2.89c-.3-1.14-.54-1.11-.54.07v9.38c0 1.18.58 1.37 1.29.43l.6-.79c.71-.94 1.75-1.2 2.32-.58a2.51 2.51 0 0 1-.18 2.89l-1.51 2.23c-.66 1-1.5 1.52-1.86 1.21s-.65.41-.65 1.59v4.13c0 1.18.44 1.28 1 .24z"/><path class="cls-8 cls-9" d="M3.29 23.73v-.44A3.4 3.4 0 0 0 5.3 22c-.49.78-1 1.6-1.29 2.23l-.72 1.36v-1.86zm10.15-3.57c-.26-.22-.59-.52-.94-.84a4 4 0 0 0 1.49.36 3.41 3.41 0 0 0-.37.32zm-6.2-1a3.46 3.46 0 0 0 0-4 2.1 2.1 0 0 0-1.56-.68 3.11 3.11 0 0 0-2.37 1.3V12.1a3 3 0 0 0 2.19 1.26 4.24 4.24 0 0 1 2.16 1.26L10.82 18a2.86 2.86 0 0 0-1.11-.23A2.9 2.9 0 0 0 7.34 19z"/><path class="cls-10" d="M8 3.81a6 6 0 0 1 2.75 2.5L13 10.87a4.55 4.55 0 0 0 1.69 2c.44.13.77 1.14.74 2.23v.94a5.44 5.44 0 0 0 1.33 3.42l2 2.08c.76.79.83.73.15-.13L17.77 20a4.4 4.4 0 0 1-.71-3.48v-.13a7.64 7.64 0 0 1 2.05-3.21 6.71 6.71 0 0 0 1.91-3.24L21.66 7A3.42 3.42 0 0 1 24 4.55l6.07-1.47c1.07-.26 1-.46-.06-.46l-11.62.06c-1.1 0-1.2.43-.23.94l.42.22a3.12 3.12 0 0 1 1.76 2 17.36 17.36 0 0 1-.45 3l-.12.51A4.58 4.58 0 0 1 18.28 12a2.47 2.47 0 0 1-2.06.12 5.47 5.47 0 0 1-1.88-2.32l-1.4-3A3 3 0 0 1 13 3.9c.52-.62 0-1.12-1-1.11H7.35c-1.1 0-1.16.33-.13.72z"/><path class="cls-6" d="M8 2.82a6 6 0 0 1 2.75 2.5L13 9.87a4.55 4.55 0 0 0 1.69 2c.44.13.77 1.14.74 2.23v.94a5.44 5.44 0 0 0 1.33 3.42l2 2.08c.76.79.83.73.15-.13L17.77 19a4.4 4.4 0 0 1-.71-3.48v-.13a7.64 7.64 0 0 1 2.05-3.21 6.71 6.71 0 0 0 1.96-3.28l.59-2.9A3.42 3.42 0 0 1 24 3.55l6.07-1.47c1.07-.26 1-.46-.06-.46l-11.62.06c-1.1 0-1.2.43-.23.94l.42.22a3.12 3.12 0 0 1 1.76 2 17.36 17.36 0 0 1-.45 3l-.12.51A4.58 4.58 0 0 1 18.28 11a2.47 2.47 0 0 1-2.06.12 5.47 5.47 0 0 1-1.88-2.32l-1.4-3A3 3 0 0 1 13 2.9c.52-.62 0-1.12-1-1.11H7.35c-1.1 0-1.16.33-.13.72z"/><path class="cls-11" d="M8 2.82a6 6 0 0 1 2.75 2.5L13 9.87a4.55 4.55 0 0 0 1.69 2c.44.13.77 1.14.74 2.23v.94a5.44 5.44 0 0 0 1.33 3.42l2 2.08c.76.79.83.73.15-.13L17.77 19a4.4 4.4 0 0 1-.71-3.48v-.13a7.64 7.64 0 0 1 2.05-3.21 6.71 6.71 0 0 0 1.96-3.28l.59-2.9A3.42 3.42 0 0 1 24 3.55l6.07-1.47c1.07-.26 1-.46-.06-.46l-11.62.06c-1.1 0-1.2.43-.23.94l.42.22a3.12 3.12 0 0 1 1.76 2 17.36 17.36 0 0 1-.45 3l-.12.51A4.58 4.58 0 0 1 18.28 11a2.47 2.47 0 0 1-2.06.12 5.47 5.47 0 0 1-1.88-2.32l-1.4-3A3 3 0 0 1 13 2.9c.52-.62 0-1.12-1-1.11H7.35c-1.1 0-1.16.33-.13.72z"/><path class="cls-8 cls-2" d="M16.46 14.16a5.3 5.3 0 0 0-.32-2 3.28 3.28 0 0 0 .93.13 3.79 3.79 0 0 0 .64-.05 9.53 9.53 0 0 0-1.26 2v-.08zm-4.83-9.3a6.73 6.73 0 0 0-1.78-2.07H12a4 4 0 0 0-.29 2.14zm9.64-.45a3.73 3.73 0 0 0-1.21-1.74h3.44a4.5 4.5 0 0 0-2.23 1.74z"/><path class="cls-12" d="M38.69 19.72A41.34 41.34 0 0 1 36 24.11l-1.23 1.7a2.19 2.19 0 0 1-3.38.3 23.78 23.78 0 0 0-2.91-2.49 3.61 3.61 0 0 0-1.15.83 3.47 3.47 0 0 1-4 .46l-2.18-1.34c-1.21-.75-1.38-.53-.38.48L23 26.36a3.45 3.45 0 0 0 3.64.91 3.33 3.33 0 0 1 3.59 1l4.27 4.55A6.18 6.18 0 0 0 38 34.7c1 0 2 1.17 2.41 2.54l.91 3.48c.36 1.38.66 1.34.66-.08V29.29c0-1.42-.7-1.66-1.56-.52l-.73 1c-.86 1.13-2.12 1.45-2.81.71s-.59-2.32.21-3.49L39 24.25c.8-1.17 1.81-1.83 2.25-1.47s.79-.5.79-1.92v-5c0-1.42-.53-1.55-1.18-.29z"/><path class="cls-6" d="M38.69 18.43A41.34 41.34 0 0 1 36 22.82l-1.23 1.7a2.19 2.19 0 0 1-3.38.3 23.78 23.78 0 0 0-2.91-2.49 3.61 3.61 0 0 0-1.15.83 3.47 3.47 0 0 1-4 .46l-2.18-1.34c-1.21-.75-1.38-.53-.38.48L23 25.07a3.45 3.45 0 0 0 3.64.91 3.33 3.33 0 0 1 3.59 1l4.27 4.55a6.18 6.18 0 0 0 3.5 1.88c1 0 2 1.17 2.41 2.54l.91 3.48c.36 1.38.66 1.34.66-.08V28c0-1.42-.7-1.66-1.56-.52l-.73 1c-.86 1.13-2.12 1.45-2.81.71s-.59-2.32.21-3.49L39 23c.8-1.17 1.81-1.83 2.25-1.47S42 21 42 19.58v-5c0-1.42-.53-1.55-1.18-.29z"/><path class="cls-13" d="M38.69 18.43A41.34 41.34 0 0 1 36 22.82l-1.23 1.7a2.19 2.19 0 0 1-3.38.3 23.78 23.78 0 0 0-2.91-2.49 3.61 3.61 0 0 0-1.15.83 3.47 3.47 0 0 1-4 .46l-2.18-1.34c-1.21-.75-1.38-.53-.38.48L23 25.07a3.45 3.45 0 0 0 3.64.91 3.33 3.33 0 0 1 3.59 1l4.27 4.55a6.18 6.18 0 0 0 3.5 1.88c1 0 2 1.17 2.41 2.54l.91 3.48c.36 1.38.66 1.34.66-.08V28c0-1.42-.7-1.66-1.56-.52l-.73 1c-.86 1.13-2.12 1.45-2.81.71s-.59-2.32.21-3.49L39 23c.8-1.17 1.81-1.83 2.25-1.47S42 21 42 19.58v-5c0-1.42-.53-1.55-1.18-.29z"/><path class="cls-8 cls-9" d="M40.71 33.64a3.64 3.64 0 0 0-2.65-1.53 5.13 5.13 0 0 1-2.61-1.52l-3.84-4.09a3.45 3.45 0 0 0 1.34.27 3.51 3.51 0 0 0 2.86-1.5l.12-.16A4.18 4.18 0 0 0 36 30a2.53 2.53 0 0 0 1.89.82 3.76 3.76 0 0 0 2.86-1.57v4.38zm-11.14-8.73a4.81 4.81 0 0 0-1.8-.44 4.14 4.14 0 0 0 .45-.38l.21-.2c.31.26.72.63 1.14 1.02zm8.71-3.19c.59-.94 1.17-1.94 1.56-2.69l.87-1.68V20.13a4.1 4.1 0 0 0-2.43 1.58z"/><path class="cls-14" d="M33.34 41.19a6 6 0 0 1-2.75-2.5l-2.29-4.56a4.55 4.55 0 0 0-1.69-2c-.45-.13-.78-1.13-.75-2.26v-.94a5.44 5.44 0 0 0-1.33-3.42l-2-2.08c-.76-.79-.83-.73-.15.13L23.56 25a4.4 4.4 0 0 1 .71 3.48v.13a7.64 7.64 0 0 1-2.05 3.21 6.71 6.71 0 0 0-1.91 3.24L19.67 38a3.42 3.42 0 0 1-2.33 2.42l-6.07 1.47c-1.07.26-1 .46.06.46l11.62-.06c1.1 0 1.2-.43.23-.94l-.42-.22a3.12 3.12 0 0 1-1.76-2 17.36 17.36 0 0 1 .45-3l.12-.51A4.58 4.58 0 0 1 23.05 33a2.47 2.47 0 0 1 2.06-.12A5.47 5.47 0 0 1 27 35.2l1.4 3a3 3 0 0 1-.1 2.92c-.52.62 0 1.12 1 1.11H34c1.1 0 1.16-.33.13-.72z"/><path class="cls-6" d="M33.34 40.19a6 6 0 0 1-2.75-2.5l-2.29-4.56a4.55 4.55 0 0 0-1.69-2c-.45-.13-.78-1.13-.75-2.25v-.94a5.44 5.44 0 0 0-1.33-3.42l-2-2.08c-.76-.79-.83-.73-.15.13L23.56 24a4.4 4.4 0 0 1 .71 3.48v.13a7.64 7.64 0 0 1-2.05 3.21 6.71 6.71 0 0 0-1.91 3.24L19.67 37a3.42 3.42 0 0 1-2.33 2.42l-6.07 1.47c-1.07.26-1 .46.06.46l11.62-.06c1.1 0 1.2-.43.23-.94l-.42-.22a3.12 3.12 0 0 1-1.76-2 17.36 17.36 0 0 1 .45-3l.12-.51A4.58 4.58 0 0 1 23.05 32a2.47 2.47 0 0 1 2.06-.12A5.47 5.47 0 0 1 27 34.2l1.4 3a3 3 0 0 1-.1 2.92c-.52.62 0 1.12 1 1.11H34c1.1 0 1.16-.33.13-.72z"/><path class="cls-15" d="M33.34 40.19a6 6 0 0 1-2.75-2.5l-2.29-4.56a4.55 4.55 0 0 0-1.69-2c-.45-.13-.78-1.13-.75-2.25v-.94a5.44 5.44 0 0 0-1.33-3.42l-2-2.08c-.76-.79-.83-.73-.15.13L23.56 24a4.4 4.4 0 0 1 .71 3.48v.13a7.64 7.64 0 0 1-2.05 3.21 6.71 6.71 0 0 0-1.91 3.24L19.67 37a3.42 3.42 0 0 1-2.33 2.42l-6.07 1.47c-1.07.26-1 .46.06.46l11.62-.06c1.1 0 1.2-.43.23-.94l-.42-.22a3.12 3.12 0 0 1-1.76-2 17.36 17.36 0 0 1 .45-3l.12-.51A4.58 4.58 0 0 1 23.05 32a2.47 2.47 0 0 1 2.06-.12A5.47 5.47 0 0 1 27 34.2l1.4 3a3 3 0 0 1-.1 2.92c-.52.62 0 1.12 1 1.11H34c1.1 0 1.16-.33.13-.72z"/><path class="cls-8 cls-2" d="M17.82 40.35a4.5 4.5 0 0 0 2.23-1.76 3.73 3.73 0 0 0 1.21 1.74zm11.55-.13a4 4 0 0 0 .29-2.14v.06a6.73 6.73 0 0 0 1.78 2.08h-2.1zm-4.2-9.35a3.28 3.28 0 0 0-.93-.13 3.79 3.79 0 0 0-.64.05 9.52 9.52 0 0 0 1.25-2v.06a5.3 5.3 0 0 0 .33 2.02z"/></g></g></svg>