<svg xmlns="http://www.w3.org/2000/svg" viewBox="0 0 252 336"><defs><style>.cls-1{fill:#ffdc31}.cls-2,.cls-4{fill:#fbb03b}.cls-2{opacity:.3}.cls-3,.cls-6,.cls-7{fill:#ffda74}.cls-5{fill:#7f5100}.cls-6{opacity:.3}.cls-7{opacity:.5}</style></defs><title>new</title><g id="Export"><g id="Player_character_-_Movement_1" data-name="Player character - Movement 1"><path class="cls-1" d="M26 28h34v2H26zM26 34h34v2H26zM26 40h34v2H26zM26 46h34v2H26zM26 52h34v2H26zM26 58h34v2H26zM26 64h34v2H26z"/></g><g id="Player_character_-_Movement_1-2" data-name="Player character - Movement 1"><path class="cls-2" d="M49 149.5h30v1H49z"/><path class="cls-3" d="M50 128.5h28v20H50z"/><path class="cls-4" d="M77 129.5v18H51v-18h26m2-2H49v22h30v-22z"/><path class="cls-5" d="M53 143.5h7v2h-7zM53 139.5h14v2H53zM71 135.5h4v2h-4zM59 135.5h10v2H59zM53 135.5h4v2h-4zM53 131.5h9v2h-9zM73 139.5h2v2h-2zM69 139.5h2v2h-2zM62 143.5h13v2H62z"/><path class="cls-2" d="M10 144h30v1H10z"/><path class="cls-3" d="M11 123h28v20H11z"/><path class="cls-4" d="M38 124v18H12v-18h26m2-2H10v22h30v-22z"/><path class="cls-5" d="M14 138h7v2h-7zM14 134h14v2H14zM32 130h4v2h-4zM20 130h10v2H20zM14 130h4v2h-4zM14 126h9v2h-9zM34 134h2v2h-2zM30 134h2v2h-2zM23 138h13v2H23z"/></g><g id="Player_character_-_Movement_1-3" data-name="Player character - Movement 1"><path class="cls-2" d="M145.83 157h15v.5h-15z"/><path class="cls-3" d="M146.83 147h13v9h-13z"/><path class="cls-4" d="M158.83 148v7h-11v-7h11m2-2h-15v11h15v-11z"/><path class="cls-5" d="M147.83 154h3.5v1h-3.5zM147.83 152h7v1h-7zM156.83 150h2v1h-2zM150.83 150h5v1h-5zM147.83 150h2v1h-2zM147.83 148h4.5v1h-4.5zM157.83 152h1v1h-1zM155.83 152h1v1h-1zM152.33 154h6.5v1h-6.5z"/><path class="cls-2" d="M148.08 140.13h15v.5h-15z"/><path class="cls-3" d="M149.08 130.13h13v9h-13z"/><path class="cls-4" d="M161.08 131.13v7h-11v-7h11m2-2h-15v11h15v-11z"/><path class="cls-5" d="M150.08 137.13h3.5v1h-3.5zM150.08 135.13h7v1h-7zM159.08 133.13h2v1h-2zM153.08 133.13h5v1h-5zM150.08 133.13h2v1h-2zM150.08 131.13h4.5v1h-4.5zM160.08 135.13h1v1h-1zM158.08 135.13h1v1h-1zM154.58 137.13h6.5v1h-6.5z"/><path class="cls-2" d="M96.83 133.95h17v.57h-17z"/><path class="cls-3" d="M97.83 122.48h15v10.47h-15z"/><path class="cls-4" d="M111.83 123.48v8.47h-13v-8.47h13m2-2h-17v12.47h17v-12.47z"/><path class="cls-5" d="M99.1 130.55h3.97v1.13H99.1zM99.1 128.28h7.93v1.13H99.1zM109.3 126.02h2.27v1.13h-2.27zM102.5 126.02h5.67v1.13h-5.67zM99.1 126.02h2.27v1.13H99.1zM99.1 123.75h5.1v1.13h-5.1zM110.43 128.28h1.13v1.13h-1.13zM108.17 128.28h1.13v1.13h-1.13zM104.2 130.55h7.37v1.13h-7.37z"/><path class="cls-2" d="M91.73 143.95h17v.57h-17z"/><path class="cls-3" d="M92.73 132.48h15v10.47h-15z"/><path class="cls-4" d="M106.73 133.48v8.47h-13v-8.47h13m2-2h-17v12.47h17v-12.47z"/><path class="cls-5" d="M94 140.55h3.97v1.13H94zM94 138.28h7.93v1.13H94zM104.2 136.02h2.27v1.13h-2.27zM97.4 136.02h5.67v1.13H97.4zM94 136.02h2.27v1.13H94zM94 133.75h5.1v1.13H94zM105.33 138.28h1.13v1.13h-1.13zM103.07 138.28h1.13v1.13h-1.13zM99.1 140.55h7.37v1.13H99.1z"/></g><g id="Player_character_-_Movement_1-4" data-name="Player character - Movement 1"><path class="cls-2" d="M236.43 165.15h9v.3h-9z"/><path class="cls-3" d="M236.93 159.05h8v5.6h-8z"/><path class="cls-4" d="M244.43 159.55v4.6h-7v-4.6h7m1-1h-9v6.6h9v-6.6z"/><path class="cls-5" d="M237.63 163.35h2.1v.6h-2.1zM237.63 162.15h4.2v.6h-4.2zM243.03 160.95h1.2v.6h-1.2zM239.43 160.95h3v.6h-3zM237.63 160.95h1.2v.6h-1.2zM237.63 159.75h2.7v.6h-2.7zM243.63 162.15h.6v.6h-.6zM242.43 162.15h.6v.6h-.6zM240.33 163.35h3.9v.6h-3.9z"/><path class="cls-2" d="M236.43 148.27h7.8v.26h-7.8z"/><path class="cls-3" d="M236.93 143.05h6.8v4.72h-6.8z"/><path class="cls-4" d="M243.23 143.55v3.72h-5.8v-3.72h5.8m1-1h-7.8v5.72h7.8v-5.72z"/><path class="cls-5" d="M237.47 146.71h1.82v.52h-1.82zM237.47 145.67h3.64v.52h-3.64zM242.15 144.63h1.04v.52h-1.04zM239.03 144.63h2.6v.52h-2.6zM237.47 144.63h1.04v.52h-1.04zM237.47 143.59h2.34v.52h-2.34zM242.67 145.67h.52v.52h-.52zM241.63 145.67h.52v.52h-.52zM239.81 146.71h3.38v.52h-3.38z"/><path class="cls-2" d="M171.1 152.8h9.27v.31h-9.27z"/><path class="cls-3" d="M171.6 146.5h8.27v5.8h-8.27z"/><path class="cls-4" d="M179.37 147v4.8h-7.27V147h7.27m1-1h-9.27v6.8h9.27V146z"/><path class="cls-5" d="M172.34 150.94h2.16v.62h-2.16zM172.34 149.71h4.32v.62h-4.32zM177.9 148.47h1.24v.62h-1.24zM174.19 148.47h3.09v.62h-3.09zM172.34 148.47h1.24v.62h-1.24zM172.34 147.24h2.78v.62h-2.78zM178.51 149.71h.62v.62h-.62zM177.28 149.71h.62v.62h-.62zM175.12 150.94h4.02v.62h-4.02z"/><path class="cls-2" d="M176.82 138.74h7.79v.26h-7.79z"/><path class="cls-3" d="M177.32 133.53h6.79v4.71h-6.79z"/><path class="cls-4" d="M183.6 134v3.71h-5.79V134h5.79m1-1h-7.79v5.71h7.79V133z"/><path class="cls-5" d="M177.85 137.18h1.82v.52h-1.82zM177.85 136.15h3.63v.52h-3.63zM182.53 135.11h1.04v.52h-1.04zM179.41 135.11h2.6v.52h-2.6zM177.85 135.11h1.04v.52h-1.04zM177.85 134.07h2.34v.52h-2.34zM183.05 136.15h.52v.52h-.52zM182.01 136.15h.52v.52h-.52zM180.19 137.18h3.37v.52h-3.37z"/></g><g id="Player_character_-_Movement_1-5" data-name="Player character - Movement 1"><path class="cls-1" d="M194 24h34v2h-34zM194 30h34v2h-34zM194 36h34v2h-34zM194 42h34v2h-34zM194 48h34v2h-34zM194 54h34v2h-34zM194 60h34v2h-34z"/></g><g id="Player_character_-_Movement_1-6" data-name="Player character - Movement 1"><path class="cls-1" d="M110 26h34v2h-34zM110 32h34v2h-34zM110 38h34v2h-34zM110 44h34v2h-34zM110 50h34v2h-34zM110 56h34v2h-34zM110 62h34v2h-34z"/></g><path class="cls-3" transform="rotate(27.66 99.537 203.597)" d="M97.92 201.98h3.25v3.25h-3.25z"/><path class="cls-3" transform="rotate(27.66 102.428 205.104)" d="M100.8 203.49h3.25v3.25h-3.25z"/><path class="cls-3" transform="rotate(27.66 98.045 206.463)" d="M96.41 204.86h3.25v3.25h-3.25z"/><path class="cls-3" transform="rotate(27.66 100.916 207.975)" d="M99.29 206.37h3.25v3.25h-3.25z"/><path class="cls-3" transform="rotate(27.66 98.173 199.194)" d="M96.55 197.59h3.25v3.25h-3.25z"/><path class="cls-3" transform="rotate(27.66 93.647 207.848)" d="M92.03 206.23h3.25v3.25h-3.25z"/><path class="cls-3" transform="rotate(27.66 102.276 212.358)" d="M100.66 210.75h3.25V214h-3.25z"/><path class="cls-3" transform="rotate(27.66 106.806 203.725)" d="M105.19 202.12h3.25v3.25h-3.25z"/><path class="cls-3" transform="rotate(27.66 111.19 202.366)" d="M109.58 200.75h3.25V204h-3.25z"/><path class="cls-3" transform="rotate(27.66 103.66 216.757)" d="M102.03 215.14h3.25v3.25h-3.25z"/><path class="cls-3" transform="rotate(27.66 89.264 209.207)" d="M87.64 207.6h3.25v3.25h-3.25z"/><path class="cls-3" transform="rotate(27.66 96.814 194.811)" d="M95.18 193.21h3.25v3.25h-3.25z"/><path class="cls-3" transform="rotate(-17.34 116.984 214.623)" d="M115.36 212.97h3.25v3.25h-3.25z"/><path class="cls-3" transform="rotate(-17.34 120.084 213.653)" d="M118.46 212h3.25v3.25h-3.25z"/><path class="cls-3" transform="rotate(-17.34 117.954 217.724)" d="M116.33 216.07h3.25v3.25h-3.25z"/><path class="cls-3" transform="rotate(-17.34 121.054 216.754)" d="M119.43 215.1h3.25v3.25h-3.25z"/><path class="cls-3" transform="rotate(-17.34 112.913 212.493)" d="M111.29 210.84h3.25v3.25h-3.25z"/><path class="cls-3" transform="rotate(-17.34 115.823 221.794)" d="M114.19 220.14h3.25v3.25h-3.25z"/><path class="cls-3" transform="rotate(-17.34 125.158 218.89)" d="M123.5 217.24h3.25v3.25h-3.25z"/><path class="cls-3" transform="rotate(-17.34 122.248 209.588)" d="M120.59 207.93h3.25v3.25h-3.25z"/><path class="cls-3" transform="rotate(-17.34 124.378 205.517)" d="M122.73 203.86h3.25v3.25h-3.25z"/><path class="cls-3" transform="rotate(-17.34 129.228 221.02)" d="M127.57 219.37h3.25v3.25h-3.25z"/><path class="cls-3" transform="rotate(-17.34 113.693 225.865)" d="M112.06 224.21h3.25v3.25h-3.25z"/><path class="cls-3" transform="rotate(-17.34 108.843 210.362)" d="M107.22 208.7h3.25v3.25h-3.25z"/><path class="cls-3" transform="rotate(66.22 187.552 183.35)" d="M185.93 181.71h3.25v3.25h-3.25z"/><path class="cls-3" transform="rotate(66.22 188.865 186.319)" d="M187.24 184.68h3.25v3.25h-3.25z"/><path class="cls-3" transform="rotate(66.22 184.578 184.656)" d="M182.95 183.02h3.25v3.25h-3.25z"/><path class="cls-3" transform="rotate(66.22 185.889 187.637)" d="M184.26 185.99h3.25v3.25h-3.25z"/><path class="cls-3" transform="rotate(66.22 189.215 179.064)" d="M187.59 177.42h3.25v3.25h-3.25z"/><path class="cls-3" transform="rotate(66.22 180.292 182.992)" d="M178.67 181.35h3.25v3.25h-3.25z"/><path class="cls-3" transform="rotate(66.22 184.228 191.91)" d="M182.6 190.28h3.25v3.25h-3.25z"/><path class="cls-3" transform="rotate(66.22 193.151 187.982)" d="M191.52 186.35h3.25v3.25h-3.25z"/><path class="cls-3" transform="rotate(66.22 197.43 189.65)" d="M195.81 188.01h3.25v3.25h-3.25z"/><path class="cls-3" transform="rotate(66.22 182.565 196.197)" d="M180.93 194.56h3.25v3.25h-3.25z"/><path class="cls-3" transform="rotate(66.22 176.013 181.324)" d="M174.38 179.69h3.25v3.25h-3.25z"/><path class="cls-3" transform="rotate(66.22 190.878 174.777)" d="M189.25 173.14h3.25v3.25h-3.25z"/><path class="cls-3" transform="rotate(66.22 173.037 182.642)" d="M171.41 181h3.25v3.25h-3.25z"/><path class="cls-6" transform="rotate(66.22 187.202 190.605)" d="M185.57 188.97h3.25v3.25h-3.25z"/><path class="cls-6" transform="rotate(66.22 186.246 180.377)" d="M184.62 178.73h3.25v3.25h-3.25z"/><path class="cls-6" transform="rotate(66.22 189.468 171.577)" d="M187.84 169.94h3.25v3.25h-3.25z"/><path class="cls-6" transform="rotate(66.22 183.875 199.178)" d="M182.25 197.53h3.25v3.25h-3.25z"/><path class="cls-6" transform="rotate(66.22 200.411 188.34)" d="M198.78 186.7h3.25v3.25h-3.25z"/><path class="cls-3" transform="rotate(21.22 198.03 203.49)" d="M196.37 201.83h3.25v3.25h-3.25z"/><path class="cls-3" transform="rotate(21.22 201.041 204.666)" d="M199.4 203.01h3.25v3.25h-3.25z"/><path class="cls-3" transform="rotate(21.22 196.832 206.532)" d="M195.19 204.86h3.25v3.25h-3.25z"/><path class="cls-3" transform="rotate(21.22 199.87 207.704)" d="M198.22 206.04h3.25v3.25h-3.25z"/><path class="cls-3" transform="rotate(21.22 196.164 199.28)" d="M194.51 197.62h3.25v3.25h-3.25z"/><path class="cls-3" transform="rotate(21.22 192.645 208.366)" d="M190.98 206.71h3.25v3.25h-3.25z"/><path class="cls-3" transform="rotate(21.22 201.736 211.913)" d="M200.07 210.24h3.25v3.25h-3.25z"/><path class="cls-3" transform="rotate(21.22 205.255 202.827)" d="M203.6 201.15h3.25v3.25h-3.25z"/><path class="cls-3" transform="rotate(21.22 209.464 200.96)" d="M207.81 199.3h3.25v3.25h-3.25z"/><path class="cls-3" transform="rotate(21.22 203.575 216.127)" d="M201.93 214.45h3.25v3.25h-3.25z"/><path class="cls-3" transform="rotate(21.22 188.436 210.232)" d="M186.78 208.56h3.25v3.25h-3.25z"/><path class="cls-3" transform="rotate(21.22 194.298 195.071)" d="M192.66 193.42h3.25v3.25h-3.25z"/><path class="cls-3" transform="rotate(21.22 187.264 213.27)" d="M185.6 211.59h3.25v3.25h-3.25z"/><path class="cls-6" transform="rotate(21.22 202.907 208.875)" d="M201.25 207.21h3.25v3.25h-3.25z"/><path class="cls-6" transform="rotate(21.22 194.993 202.318)" d="M193.34 200.65h3.25v3.25h-3.25z"/><path class="cls-6" transform="rotate(21.22 191.05 193.801)" d="M189.4 192.15h3.25v3.25h-3.25z"/><path class="cls-6" transform="rotate(21.22 206.612 217.298)" d="M204.96 215.62h3.25v3.25h-3.25z"/><path class="cls-6" transform="rotate(21.22 210.636 197.923)" d="M208.99 196.27h3.25v3.25h-3.25z"/><path class="cls-3" d="M13.5 212.42h3.25v3.25H13.5zM16.75 212.42H20v3.25h-3.25zM16.75 215.67H20v3.25h-3.25zM16.75 218.92H20v3.25h-3.25zM20 215.67h3.25v3.25H20zM20 212.42h3.25v3.25H20zM23.25 215.67h3.25v3.25h-3.25z"/><path class="cls-3" d="M20 209.3h3.25v3.25H20z"/><path class="cls-3" transform="rotate(-45 29.108 232.773)" d="M27.48 231.15h3.25v3.25h-3.25z"/><path class="cls-3" transform="rotate(-45 31.405 230.472)" d="M29.78 228.85h3.25v3.25h-3.25z"/><path class="cls-3" transform="rotate(-45 33.706 232.769)" d="M32.08 231.15h3.25v3.25h-3.25z"/><path class="cls-3" transform="rotate(-45 36.002 235.077)" d="M34.38 233.45h3.25v3.25h-3.25z"/><path class="cls-3" transform="rotate(-45 35.998 230.48)" d="M34.38 228.85h3.25v3.25h-3.25z"/><path class="cls-3" transform="rotate(-45 33.701 228.17)" d="M32.08 226.55h3.25v3.25h-3.25z"/><path class="cls-3" transform="rotate(-45 38.294 228.178)" d="M36.67 226.55h3.25v3.25h-3.25z"/><path class="cls-3" transform="rotate(-45 31.489 225.967)" d="M29.87 224.34h3.25v3.25h-3.25z"/><path class="cls-7" d="M37 317h2v2h-2z"/><path class="cls-3" d="M37 319h2v4h-2z"/><path class="cls-6" d="M39 317h2v2h-2z"/><path class="cls-3" d="M39 319h2v4h-2z"/><path class="cls-6" d="M41 315h2v2h-2z"/><path class="cls-3" d="M41 317h2v6h-2z"/><path class="cls-7" d="M43 317h2v2h-2z"/><path class="cls-3" d="M43 319h2v4h-2z"/><path class="cls-6" d="M45 317h2v2h-2z"/><path class="cls-3" d="M45 319h2v4h-2z"/><path class="cls-6" d="M47 315h2v2h-2z"/><path class="cls-3" d="M47 317h2v6h-2z"/><path class="cls-6" d="M33 317h2v2h-2z"/><path class="cls-3" d="M33 319h2v4h-2z"/><path class="cls-6" d="M35 315h2v2h-2z"/><path class="cls-3" d="M35 317h2v6h-2zM49 317h2v4h-2zM51 314.97h2v4h-2zM31 315h2v6h-2z"/><path class="cls-7" d="M122 311.02h2v2h-2z"/><path class="cls-3" d="M122 313.02h2V321h-2z"/><path class="cls-6" d="M124 311.02h2v2h-2z"/><path class="cls-3" d="M124 313.02h2v4h-2z"/><path class="cls-6" d="M126 309.02h2v2h-2z"/><path class="cls-3" d="M126 311.02h2v6h-2z"/><path class="cls-7" d="M128 311.02h2v2h-2z"/><path class="cls-3" d="M128 313.02h2V321h-2z"/><path class="cls-6" d="M130 311.02h2v2h-2z"/><path class="cls-3" d="M130 313.02h2v4h-2z"/><path class="cls-6" d="M132 309.02h2v2h-2z"/><path class="cls-3" d="M132 311.02h2V317h-2z"/><path class="cls-6" d="M118 311.02h2v2h-2z"/><path class="cls-3" d="M118 313.02h2V319h-2z"/><path class="cls-6" d="M120 309.02h2v2h-2z"/><path class="cls-3" d="M120 311.02h2v6h-2zM134 311.02h2V319h-2zM136 311h2v4h-2z"/><path class="cls-6" d="M136 309.02h2v2h-2z"/><path class="cls-3" d="M122 306.99h2v4h-2z"/><path class="cls-6" d="M122 305.01h2v2h-2z"/><path class="cls-3" d="M128 306.99h2v4h-2z"/><path class="cls-6" d="M128 305.01h2v2h-2z"/><path class="cls-3" d="M134 307.02h2v4h-2z"/><path class="cls-6" d="M134 305.03h2v2h-2z"/><path class="cls-3" d="M116 309.02h2v6h-2z"/><path class="cls-6" d="M209 303.05h2v2h-2z"/><path class="cls-3" d="M209 305.05h2v4h-2z"/><path class="cls-6" d="M211 301.05h2v2h-2z"/><path class="cls-3" d="M211 303.05h2v4h-2z"/><path class="cls-6" d="M215 303.05h2v2h-2z"/><path class="cls-3" d="M215 305.05h2v4h-2z"/><path class="cls-6" d="M205 301.05h2v2h-2z"/><path class="cls-3" d="M205 303.05h2v6h-2zM221 303.03h2v4h-2z"/><path class="cls-6" d="M221 301.05h2v2h-2z"/><path class="cls-3" d="M207 299.02h2v4h-2z"/><path class="cls-6" d="M207 297.04h2v2h-2z"/><path class="cls-3" d="M213 299.02h2v4h-2z"/><path class="cls-6" d="M213 297.04h2v2h-2z"/><path class="cls-3" d="M219 299.05h2v4h-2z"/><path class="cls-6" d="M219 297.06h2v2h-2z"/><path class="cls-3" d="M201 301.05h2v6h-2z"/></g></svg>