<svg xmlns="http://www.w3.org/2000/svg" viewBox="0 0 252 252"><defs><style>.cls-1{fill:#cd00ff}.cls-2{fill:#f3980f}.cls-3{fill:#fff}.cls-4{fill:#103a22}.cls-5{fill:#333}.cls-6{fill:#aaa;opacity:.3}.cls-7{fill:#fab900}.cls-8{fill:#7f5100}.cls-9{fill:#fbb03b}.cls-10{fill:#ffda74}</style></defs><title>Booking v3</title><g id="Export"><g id="Player_character_-_Sword_movement_3" data-name="Player character - Sword movement 3"><g id="Light_player_color_areas" data-name="Light player color areas"><path class="cls-1" d="M212 98h2v4h-2zM220 136v-2h-2v-2h-4v2h-2v8h8v-2h2v-4h-2zM206 134h2v8h-2zM208 132h2v2h-2zM204 108h2v2h-2zM208 116v-2h6v-2h-20v2h2v2h12z"/></g><g id="Dark_orange_areas" data-name="Dark orange areas"><path class="cls-2" d="M210 98h2v2h-2zM214 98h2v2h-2zM204 138h2v4h-2zM214 138h4v4h-4zM208 140h4v2h-4zM208 136h4v2h-4zM210 132h4v2h-4zM204 120v2h8v-6h2v2h2v-6h-2v2h-6v2h-4v2h-2v-2h-2v6h2v-2h2zM204 126v2h4v2h10v-2h-8v-2h-2v-2h-4v-2h-2v4h2z"/></g><path id="Hat_-white" data-name="Hat -white" class="cls-3" d="M224 108v-2h-2v-2h-4v-2h-14v2h-2v4h-2v4h26v-4h-2z"/><g id="Dark_player_color_areas" data-name="Dark player color areas"><path class="cls-4" d="M208 142h2v2h-2zM206 146h-2v2h4v-4h-2v2z"/></g><g id="Medium_player_color_areas" data-name="Medium player color areas"><path class="cls-5" d="M206 106h2v2h-2v2h4v-6h-6v4h2v-2zM204 122h8v2h-8zM212 120h2v2h-2zM202 120h2v2h-2zM202 116h2v2h-2zM210 130h6v2h-6z"/><path class="cls-5" d="M204 126h-2v-4h-2v-6h-2v10h2v4h8v-2h-4v-2zM212 116h2v2h-2zM226 128v-16h-10v2h2v10h2v4h-2v2h10v-2h-2zM220 142h-10v2h6v2h2v-2h2v-2zM218 146v2h-2v2h4v-4h-2z"/></g><path id="Shadow" class="cls-6" d="M216 148v-2h-8v2h-2v2h2v2h10v-2h2v-2h-4z"/><g id="Light_orange_areas" data-name="Light orange areas"><path class="cls-7" d="M210 128h10v-4h-2v-10h-2v4h-4v2h2v2h-2v2h-4v2h2v2zM208 138h4v2h-4zM208 134h4v2h-4zM222 116h2v4h-2z"/></g><g id="Sword"><path class="cls-8" d="M202 140h-2v2h4v-2h-2zM206 138v-2h-2v4h2v-2zM206 134h2v2h-2zM198 142h2v2h-2z"/><path class="cls-9" d="M200 138h2v2h-2zM198 136h2v2h-2zM196 134h2v2h-2zM194 132h2v2h-2zM192 130h2v2h-2z"/><path class="cls-10" d="M202 136v-2h-2v-2h-2v-2h-2v-2h-4v2h2v2h2v2h2v2h2v2h2v2h2v-4h-2z"/></g><path class="cls-1" d="M204 108h2v2h-2z"/></g><g id="Player_character_-_Sword_movement_2" data-name="Player character - Sword movement 2"><g id="Sword-2" data-name="Sword"><path class="cls-8" d="M122 142v-2h-4v2h2v2h2v-2zM116 138h-2v2h4v-2h-2zM120 136v-2h-2v4h2v-2zM120 132h2v2h-2zM112 140h2v2h-2z"/><path class="cls-9" d="M114 136h2v2h-2zM112 134h2v2h-2zM110 132h2v2h-2zM108 130h2v2h-2zM106 128h2v2h-2z"/><path class="cls-10" d="M116 134v-2h-2v-2h-2v-2h-2v-2h-4v2h2v2h2v2h2v2h2v2h2v2h2v-4h-2z"/></g><path id="Hat_-white-2" data-name="Hat -white" class="cls-3" d="M140 108v-2h-2v-2h-4v-2h-14v2h-2v4h-2v4h26v-4h-2z"/><g id="Light_player_color_areas-2" data-name="Light player color areas"><path class="cls-1" d="M128 98h2v4h-2zM136 136v-2h-2v-2h-4v2h-2v8h6v-4h4v-2h-2zM122 136h-2v4h2v2h2v-8h-2v2zM124 132h2v2h-2zM120 108h2v2h-2zM124 116v-2h6v-2h-20v2h2v2h12z"/></g><g id="Dark_player_color_areas-2" data-name="Dark player color areas"><path class="cls-4" d="M124 142h2v2h-2zM130 146v2h-2v2h4v-4h-2z"/></g><g id="Medium_player_color_areas-2" data-name="Medium player color areas"><path class="cls-5" d="M122 106h2v2h-2v2h4v-6h-6v4h2v-2zM120 122h8v2h-8zM128 120h2v2h-2zM118 120h2v2h-2zM118 116h2v2h-2zM126 130h6v2h-6z"/><path class="cls-5" d="M120 126h-2v-4h-2v-6h-2v10h2v4h8v-2h-4v-2zM128 116h2v2h-2zM142 128v-16h-10v2h2v10h2v4h-2v2h10v-2h-2zM126 142v2h2v2h-2v2h4v-4h4v-2h-8z"/></g><path id="Shadow-2" data-name="Shadow" class="cls-6" d="M132 148v-2h-8v2h-2v2h2v2h10v-2h2v-2h-4z"/><g id="Light_orange_areas-2" data-name="Light orange areas"><path class="cls-7" d="M138 138h2v2h-2zM126 128h10v-4h-2v-10h-2v4h-4v2h2v2h-2v2h-4v2h2v2zM124 138h4v2h-4zM124 134h4v2h-4zM138 116h2v4h-2z"/></g><g id="Dark_orange_areas-2" data-name="Dark orange areas"><path class="cls-2" d="M120 142h2v-4h-4v2h2v2zM126 98h2v2h-2zM130 98h2v2h-2zM138 140v-2h-2v4h4v-2h-2zM124 140h4v2h-4zM124 136h4v2h-4zM126 132h4v2h-4zM120 120v2h8v-6h2v2h2v-6h-2v2h-6v2h-4v2h-2v-2h-2v6h2v-2h2zM120 126v2h4v2h10v-2h-8v-2h-2v-2h-4v-2h-2v4h2z"/></g></g><g id="Player_character_-_Sword_movement_1" data-name="Player character - Sword movement 1"><path id="Hat_-white-3" data-name="Hat -white" class="cls-3" d="M56 108v-2h-2v-2h-4v-2H36v2h-2v4h-2v4h26v-4h-2z"/><g id="Dark_orange_areas-3" data-name="Dark orange areas"><path class="cls-2" d="M42 98h2v2h-2zM46 98h2v2h-2zM38 140h-2v4h4v-2h-2v-2zM52 142v-2h-2v4h4v-2h-2zM40 140h4v2h-4zM40 136h4v2h-4zM42 132h4v2h-4zM36 120v2h8v-6h2v2h2v-6h-2v2h-6v2h-4v2h-2v-2h-2v6h2v-2h2zM36 126v2h4v2h10v-2h-8v-2h-2v-2h-4v-2h-2v4h2z"/></g><g id="Light_player_color_areas-3" data-name="Light player color areas"><path class="cls-1" d="M44 98h2v4h-2zM52 138v-4h-2v-2h-4v2h-2v8h6v-2h4v-2h-2zM38 138h-2v2h2v2h2v-8h-2v4zM40 132h2v2h-2zM36 108h2v2h-2zM40 116v-2h6v-2H26v2h2v2h12z"/></g><g id="Dark_player_color_areas-3" data-name="Dark player color areas"><path class="cls-4" d="M42 144v4h-2v2h4v-6h-2zM40 142h2v2h-2z"/></g><g id="Medium_player_color_areas-3" data-name="Medium player color areas"><path class="cls-5" d="M38 106h2v2h-2v2h4v-6h-6v4h2v-2zM36 122h8v2h-8zM44 120h2v2h-2zM34 120h2v2h-2zM34 116h2v2h-2zM42 130h6v2h-6z"/><path class="cls-5" d="M36 126h-2v-4h-2v-6h-2v10h2v4h8v-2h-4v-2zM44 116h2v2h-2zM58 128v-16H48v2h2v10h2v4h-2v2h10v-2h-2zM42 144h6v4h-2v2h4v-8h-8v2z"/></g><path id="Shadow-3" data-name="Shadow" class="cls-6" d="M48 148v-2h-8v2h-2v2h2v2h10v-2h2v-2h-4z"/><g id="Light_orange_areas-3" data-name="Light orange areas"><path class="cls-7" d="M52 140h2v2h-2zM42 128h10v-4h-2v-10h-2v4h-4v2h2v2h-2v2h-4v2h2v2zM40 138h4v2h-4zM40 134h4v2h-4zM54 116h2v4h-2zM34 138h2v2h-2zM32 140h2v2h-2zM34 142h2v2h-2z"/></g><g id="Sword-3" data-name="Sword"><path class="cls-8" d="M38 142v-2h-4v2h2v2h4v-2h-2zM32 138h-2v2h4v-2h-2zM36 136v-2h-2v4h2v-2zM36 132h2v2h-2zM28 140h2v2h-2z"/><path class="cls-9" d="M30 136h2v2h-2zM28 134h2v2h-2zM26 132h2v2h-2zM24 130h2v2h-2zM22 128h2v2h-2z"/><path class="cls-10" d="M32 134v-2h-2v-2h-2v-2h-2v-2h-4v2h2v2h2v2h2v2h2v2h2v2h2v-4h-2z"/></g></g><g id="Player_character_-_Movement_3" data-name="Player character - Movement 3"><g id="Light_player_color_areas-4" data-name="Light player color areas"><path class="cls-1" d="M212 14h2v4h-2zM220 52v-2h-2v-2h-4v2h-2v8h8v-2h2v-4h-2zM206 50h2v8h-2zM208 48h2v2h-2zM204 24h2v2h-2zM208 32v-2h6v-2h-20v2h2v2h12z"/></g><g id="Dark_orange_areas-4" data-name="Dark orange areas"><path class="cls-2" d="M210 14h2v2h-2zM214 14h2v2h-2zM204 54h2v4h-2zM214 54h4v4h-4zM208 56h4v2h-4zM208 52h4v2h-4zM210 48h4v2h-4zM204 36v2h8v-6h2v2h2v-6h-2v2h-6v2h-4v2h-2v-2h-2v6h2v-2h2zM204 42v2h4v2h10v-2h-8v-2h-2v-2h-4v-2h-2v4h2z"/></g><path id="Hat_-white-4" data-name="Hat -white" class="cls-3" d="M224 24v-2h-2v-2h-4v-2h-14v2h-2v4h-2v4h26v-4h-2z"/><g id="Dark_player_color_areas-4" data-name="Dark player color areas"><path class="cls-4" d="M208 58h2v2h-2zM206 62h-2v2h4v-4h-2v2z"/></g><g id="Medium_player_color_areas-4" data-name="Medium player color areas"><path class="cls-5" d="M206 22h2v2h-2v2h4v-6h-6v4h2v-2zM204 38h8v2h-8zM212 36h2v2h-2zM202 36h2v2h-2zM202 32h2v2h-2zM210 46h6v2h-6z"/><path class="cls-5" d="M204 42h-2v-4h-2v-6h-2v10h2v4h8v-2h-4v-2zM212 32h2v2h-2zM226 44V28h-10v2h2v10h2v4h-2v2h10v-2h-2zM220 58h-10v2h6v2h2v-2h2v-2zM218 62v2h-2v2h4v-4h-2z"/></g><path id="Shadow-4" data-name="Shadow" class="cls-6" d="M216 64v-2h-8v2h-2v2h2v2h10v-2h2v-2h-4z"/><g id="Light_orange_areas-4" data-name="Light orange areas"><path class="cls-7" d="M210 44h10v-4h-2V30h-2v4h-4v2h2v2h-2v2h-4v2h2v2zM208 54h4v2h-4zM208 50h4v2h-4zM222 32h2v4h-2z"/></g><path class="cls-1" d="M204 24h2v2h-2z"/></g><g id="Player_character_-_Movement_2" data-name="Player character - Movement 2"><path id="Hat_-white-5" data-name="Hat -white" class="cls-3" d="M140 24v-2h-2v-2h-4v-2h-14v2h-2v4h-2v4h26v-4h-2z"/><g id="Dark_orange_areas-5" data-name="Dark orange areas"><path class="cls-2" d="M126 14h2v2h-2zM130 14h2v2h-2zM120 54h-2v4h4v-2h-2v-2zM138 56v-2h-2v4h4v-2h-2zM124 56h4v2h-4zM124 52h4v2h-4zM126 48h4v2h-4zM120 36v2h8v-6h2v2h2v-6h-2v2h-6v2h-4v2h-2v-2h-2v6h2v-2h2zM120 42v2h4v2h10v-2h-8v-2h-2v-2h-4v-2h-2v4h2z"/></g><g id="Light_player_color_areas-5" data-name="Light player color areas"><path class="cls-1" d="M128 14h2v4h-2zM136 52v-2h-2v-2h-4v2h-2v8h6v-4h4v-2h-2zM122 52h-2v4h2v2h2v-8h-2v2zM124 48h2v2h-2zM120 24h2v2h-2zM124 32v-2h6v-2h-20v2h2v2h12z"/></g><g id="Dark_player_color_areas-5" data-name="Dark player color areas"><path class="cls-4" d="M124 58h2v2h-2zM130 62v2h-2v2h4v-4h-2z"/></g><g id="Medium_player_color_areas-5" data-name="Medium player color areas"><path class="cls-5" d="M122 22h2v2h-2v2h4v-6h-6v4h2v-2zM120 38h8v2h-8zM128 36h2v2h-2zM118 36h2v2h-2zM118 32h2v2h-2zM126 46h6v2h-6z"/><path class="cls-5" d="M120 42h-2v-4h-2v-6h-2v10h2v4h8v-2h-4v-2zM128 32h2v2h-2zM142 44V28h-10v2h2v10h2v4h-2v2h10v-2h-2zM126 58v2h2v2h-2v2h4v-4h4v-2h-8z"/></g><path id="Shadow-5" data-name="Shadow" class="cls-6" d="M132 64v-2h-8v2h-2v2h2v2h10v-2h2v-2h-4z"/><g id="Light_orange_areas-5" data-name="Light orange areas"><path class="cls-7" d="M138 54h2v2h-2zM126 44h10v-4h-2V30h-2v4h-4v2h2v2h-2v2h-4v2h2v2zM124 54h4v2h-4zM124 50h4v2h-4zM138 32h2v4h-2z"/></g></g><g id="Player_character_-_Movement_1" data-name="Player character - Movement 1"><path id="Hat_-white-6" data-name="Hat -white" class="cls-3" d="M56 24v-2h-2v-2h-4v-2H36v2h-2v4h-2v4h26v-4h-2z"/><g id="Dark_orange_areas-6" data-name="Dark orange areas"><path class="cls-2" d="M42 14h2v2h-2zM46 14h2v2h-2zM38 56h-2v4h4v-2h-2v-2zM52 58v-2h-2v4h4v-2h-2zM40 56h4v2h-4zM40 52h4v2h-4zM42 48h4v2h-4zM36 36v2h8v-6h2v2h2v-6h-2v2h-6v2h-4v2h-2v-2h-2v6h2v-2h2zM36 42v2h4v2h10v-2h-8v-2h-2v-2h-4v-2h-2v4h2z"/></g><g id="Light_player_color_areas-6" data-name="Light player color areas"><path class="cls-1" d="M44 14h2v4h-2zM52 54v-4h-2v-2h-4v2h-2v8h6v-2h4v-2h-2zM38 54h-2v2h2v2h2v-8h-2v4zM40 48h2v2h-2zM36 24h2v2h-2zM40 32v-2h6v-2H26v2h2v2h12z"/></g><g id="Dark_player_color_areas-6" data-name="Dark player color areas"><path class="cls-4" d="M42 60v4h-2v2h4v-6h-2zM40 58h2v2h-2z"/></g><g id="Medium_player_color_areas-6" data-name="Medium player color areas"><path class="cls-5" d="M38 22h2v2h-2v2h4v-6h-6v4h2v-2zM36 38h8v2h-8zM44 36h2v2h-2zM34 36h2v2h-2zM34 32h2v2h-2zM42 46h6v2h-6z"/><path class="cls-5" d="M36 42h-2v-4h-2v-6h-2v10h2v4h8v-2h-4v-2zM44 32h2v2h-2zM58 44V28H48v2h2v10h2v4h-2v2h10v-2h-2zM42 60h6v4h-2v2h4v-8h-8v2z"/></g><path id="Shadow-6" data-name="Shadow" class="cls-6" d="M48 64v-2h-8v2h-2v2h2v2h10v-2h2v-2h-4z"/><g id="Light_orange_areas-6" data-name="Light orange areas"><path class="cls-7" d="M52 56h2v2h-2zM42 44h10v-4h-2V30h-2v4h-4v2h2v2h-2v2h-4v2h2v2zM40 54h4v2h-4zM40 50h4v2h-4zM54 32h2v4h-2z"/></g></g><g id="Player_character_-_Attack_1" data-name="Player character - Attack 1"><g id="Sword-4" data-name="Sword"><path class="cls-8" d="M35 218h-3v2h6v-2h-3zM36 224h2v2h-2z"/><path class="cls-10" d="M28 212v-6h2v2h2v2h2v2h2v4h2v2h-4v-2h-2v-2h-2v-2h-2z"/></g><path id="Hat_-white-7" data-name="Hat -white" class="cls-3" d="M56 192v-2h-2v-2h-4v-2H36v2h-2v4h-2v4h26v-4h-2z"/><g id="Light_player_color_areas-7" data-name="Light player color areas"><path class="cls-1" d="M44 182h2v4h-2zM52 222v-4h-2v-2h-4v2h-2v8h6v-2h4v-2h-2zM40 216h2v2h-2zM36 192h2v2h-2zM40 200v-2h6v-2H26v2h2v2h12zM38 218v2h-2v4h2v2h2v-8h-2z"/></g><g id="Dark_player_color_areas-7" data-name="Dark player color areas"><path class="cls-4" d="M42 228v4h-2v2h4v-6h-2zM40 226h2v2h-2z"/></g><g id="Medium_player_color_areas-7" data-name="Medium player color areas"><path class="cls-5" d="M38 190h2v2h-2v2h4v-6h-6v4h2v-2zM36 206h8v2h-8zM44 204h2v2h-2zM34 204h2v2h-2zM34 200h2v2h-2zM42 214h6v2h-6z"/><path class="cls-5" d="M36 210h-2v-4h-2v-6h-2v10h2v4h8v-2h-4v-2zM44 200h2v2h-2zM58 212v-16H48v2h2v10h2v4h-2v2h10v-2h-2zM42 228h6v4h-2v2h4v-8h-8v2z"/></g><path id="Shadow-7" data-name="Shadow" class="cls-6" d="M48 232v-2h-8v2h-2v2h2v2h10v-2h2v-2h-4z"/><g id="Light_orange_areas-7" data-name="Light orange areas"><path class="cls-7" d="M52 224h2v2h-2zM42 212h10v-4h-2v-10h-2v4h-4v2h2v2h-2v2h-4v2h2v2zM40 222h4v2h-4zM40 218h4v2h-4zM54 200h2v4h-2z"/></g><path class="cls-2" d="M42 182h2v2h-2zM46 182h2v2h-2zM52 226v-2h-2v4h4v-2h-2zM40 224h4v2h-4zM40 220h4v2h-4zM42 216h4v2h-4zM34 204h2v2h8v-6h2v2h2v-6h-2v2h-6v2h-4v2h-2v-2h-2v6h2v-2zM34 210h2v2h4v2h10v-2h-8v-2h-2v-2h-4v-2h-2v4zM36 224v-4h-2v4h2z"/></g><g id="Player_character_-_Attack_1-2" data-name="Player character - Attack 1"><path id="Hat_-white-8" data-name="Hat -white" class="cls-3" d="M140 192v-2h-2v-2h-4v-2h-14v2h-2v4h-2v4h26v-4h-2z"/><g id="Light_player_color_areas-8" data-name="Light player color areas"><path class="cls-1" d="M128 182h2v4h-2zM138 218h-4v-2h-4v2h-2v8h6v-4h4v-4zM124 216h2v2h-2zM120 192h2v2h-2zM124 200v-2h6v-2h-20v2h2v2h12zM122 218v2h-2v4h2v2h2v-8h-2z"/></g><g id="Dark_player_color_areas-8" data-name="Dark player color areas"><path class="cls-4" d="M126 228v4h-2v2h4v-6h-2zM124 226h2v2h-2z"/></g><g id="Medium_player_color_areas-8" data-name="Medium player color areas"><path class="cls-5" d="M122 190h2v2h-2v2h4v-6h-6v4h2v-2zM120 206h8v2h-8zM128 204h2v2h-2zM118 204h2v2h-2zM118 200h2v2h-2zM126 214h6v2h-6z"/><path class="cls-5" d="M120 210h-2v-4h-2v-6h-2v10h2v4h8v-2h-4v-2zM128 200h2v2h-2zM142 212v-16h-10v2h2v10h2v4h-2v2h10v-2h-2zM134 226h-8v2h6v2h2v-4zM134 230v2h-2v2h4v-4h-2z"/></g><path id="Shadow-8" data-name="Shadow" class="cls-6" d="M132 232v-2h-8v2h-2v2h2v2h10v-2h2v-2h-4z"/><path class="cls-2" d="M126 182h2v2h-2zM130 182h2v2h-2zM140 220v-2h-2v4h4v-2h-2zM124 224h4v2h-4zM124 220h4v2h-4zM126 216h4v2h-4zM118 204h2v2h8v-6h2v2h2v-6h-2v2h-6v2h-4v2h-2v-2h-2v6h2v-2zM118 210h2v2h4v2h10v-2h-8v-2h-2v-2h-4v-2h-2v4zM120 224v-2h-2v2h-2v2h2v2h4v-2h-2v-2z"/><g id="Sword-5" data-name="Sword"><path class="cls-8" d="M122 226v-2h-4v2h2v2h4v-2h-2zM116 222h-2v2h4v-2h-2zM120 220v-2h-2v4h2v-2zM120 216h2v2h-2zM112 224h2v2h-2z"/><path class="cls-9" d="M114 220h2v2h-2zM112 218h2v2h-2zM110 216h2v2h-2zM108 214h2v2h-2zM106 212h2v2h-2z"/><path class="cls-10" d="M116 218v-2h-2v-2h-2v-2h-2v-2h-4v2h2v2h2v2h2v2h2v2h2v2h2v-4h-2z"/></g><g id="Light_orange_areas-8" data-name="Light orange areas"><path class="cls-7" d="M138 218h4v2h-4zM126 212h10v-4h-2v-10h-2v4h-4v2h2v2h-2v2h-4v2h2v2zM124 222h4v2h-4zM124 218h4v2h-4zM138 200h2v4h-2z"/></g></g><g id="Player_character_-_Attack_2" data-name="Player character - Attack 2"><path id="Hat_-white-9" data-name="Hat -white" class="cls-3" d="M224 192v-2h-2v-2h-4v-2h-14v2h-2v4h-2v4h26v-4h-2z"/><g id="Light_player_color_areas-9" data-name="Light player color areas"><path class="cls-1" d="M212 182h2v4h-2zM220 224h2v2h-10v-8h2v-2h8v-2h2v2h2v2h-6v2h-2v2h2v2zM208 216h2v2h-2zM204 192h2v2h-2zM208 200v-2h6v-2h-20v2h2v2h12zM206 218h2v6h-2z"/></g><path class="cls-4" d="M210 228v-2h-4v4h2v-2h2zM206 232v2h4v-4h-2v2h-2z"/><g id="Medium_player_color_areas-9" data-name="Medium player color areas"><path class="cls-5" d="M206 190h2v2h-2v2h4v-6h-6v4h2v-2zM204 206h8v2h-8zM212 204h2v2h-2zM202 204h2v2h-2zM202 200h2v2h-2zM210 214h6v2h-6z"/><path class="cls-5" d="M204 210h-2v-4h-2v-6h-2v10h2v4h8v-2h-4v-2zM212 200h2v2h-2zM226 212v-16h-10v2h2v10h2v4h-2v2h10v-2h-2zM200 216v2h-2v2h8v-2h2v-2h-8zM218 226h-8v2h6v2h2v-4zM218 230v2h-2v2h4v-4h-2z"/></g><path id="Shadow-9" data-name="Shadow" class="cls-6" d="M216 232v-2h-8v2h-2v2h2v2h10v-2h2v-2h-4z"/><g id="Dark_orange_areas-7" data-name="Dark orange areas"><path class="cls-2" d="M210 182h2v2h-2zM214 182h2v2h-2zM226 214v-2h-2v4h4v-2h-2zM208 224h6v2h-6zM208 220h4v2h-4zM210 216h4v2h-4zM204 204v2h8v-6h2v2h2v-6h-2v2h-6v2h-4v2h-2v-2h-2v6h2v-2h2zM204 210v2h4v2h10v-2h-8v-2h-2v-2h-4v-2h-2v4h2zM194 218h4v2h-4z"/></g><g id="Sword-6" data-name="Sword"><path id="Handle" class="cls-8" d="M192 220h2v-2h8v-2h-8v-2h-2v-4h-2v14h2v-4z"/><path id="Sword_body" data-name="Sword body" class="cls-10" d="M192 218h2v-2h-2v-2h-18v2h-2v2h2v2h18v-2z"/><path id="Sword_groove" data-name="Sword groove" class="cls-9" transform="rotate(90 183 219)" d="M182 210h2v18h-2z"/></g><g id="Light_orange_areas-9" data-name="Light orange areas"><path class="cls-7" d="M224 212h4v2h-4zM210 212h10v-4h-2v-10h-2v4h-4v2h2v2h-2v2h-4v2h2v2zM208 222h4v2h-4zM208 218h4v2h-4zM222 200h2v4h-2zM196 214h2v2h-2z"/></g></g></g></svg>