<svg xmlns="http://www.w3.org/2000/svg" xmlns:xlink="http://www.w3.org/1999/xlink" viewBox="0 0 124.5 87"><defs><style>.cls-1{isolation:isolate}.cls-2,.cls-3,.cls-41,.cls-42,.cls-52,.cls-53{fill:none}.cls-2,.cls-3,.cls-41,.cls-52,.cls-53{stroke:#322838}.cls-2,.cls-3,.cls-52{stroke-linecap:round;stroke-linejoin:round}.cls-2{stroke-width:2.65px}.cls-3{stroke-width:1.77px}.cls-4{fill:#695a6a}.cls-5{fill:url(#New_Gradient_Swatch_20)}.cls-13,.cls-14,.cls-18,.cls-20,.cls-21,.cls-22,.cls-24,.cls-30,.cls-31,.cls-35,.cls-37,.cls-38,.cls-39,.cls-6{fill-opacity:.5}.cls-6{fill:url(#linear-gradient)}.cls-11,.cls-12,.cls-26,.cls-28,.cls-29,.cls-55,.cls-7,.cls-9{mix-blend-mode:darken}.cls-8{fill:url(#linear-gradient-2)}.cls-9{fill:url(#New_Gradient_Swatch_20-2)}.cls-10{fill:url(#linear-gradient-3)}.cls-11{fill:url(#New_Gradient_Swatch_20-3)}.cls-12{fill:url(#linear-gradient-4)}.cls-13,.cls-14,.cls-18,.cls-30,.cls-31,.cls-35,.cls-40,.cls-57,.cls-58,.cls-60,.cls-62,.cls-64{opacity:.5}.cls-13{fill:url(#linear-gradient-5)}.cls-14{fill:url(#linear-gradient-6)}.cls-15{fill:url(#New_Gradient_Swatch_72)}.cls-16{fill:url(#linear-gradient-7)}.cls-17{fill:url(#New_Gradient_Swatch_20-4)}.cls-18{fill:url(#linear-gradient-8)}.cls-19{fill:url(#New_Gradient_Swatch_72-2)}.cls-20{fill:url(#linear-gradient-9)}.cls-21{fill:url(#linear-gradient-10)}.cls-22{fill:url(#linear-gradient-11)}.cls-23{fill:url(#New_Gradient_Swatch_20-5)}.cls-24{fill:url(#linear-gradient-12)}.cls-25{fill:url(#linear-gradient-13)}.cls-26{fill:url(#New_Gradient_Swatch_20-6)}.cls-27{fill:url(#linear-gradient-14)}.cls-28{fill:url(#New_Gradient_Swatch_20-7)}.cls-29{fill:url(#linear-gradient-15)}.cls-30{fill:url(#linear-gradient-16)}.cls-31{fill:url(#linear-gradient-17)}.cls-32{fill:url(#New_Gradient_Swatch_72-3)}.cls-33{fill:url(#linear-gradient-18)}.cls-34{fill:url(#New_Gradient_Swatch_20-8)}.cls-35{fill:url(#linear-gradient-19)}.cls-36{fill:url(#New_Gradient_Swatch_72-4)}.cls-37{fill:url(#linear-gradient-20)}.cls-38{fill:url(#linear-gradient-21)}.cls-39{fill:url(#linear-gradient-22)}.cls-40{fill:url(#linear-gradient-23)}.cls-41,.cls-42,.cls-53{stroke-miterlimit:10}.cls-41{stroke-width:8px}.cls-42{stroke:#594858;stroke-width:4px}.cls-43{fill:url(#linear-gradient-24)}.cls-44{fill:url(#linear-gradient-25)}.cls-45{fill:url(#linear-gradient-26)}.cls-46{fill:url(#linear-gradient-27)}.cls-47{opacity:.6}.cls-48{fill:url(#linear-gradient-28)}.cls-49{fill:url(#linear-gradient-29)}.cls-50{fill:url(#linear-gradient-30)}.cls-51{fill:url(#linear-gradient-31)}.cls-52{stroke-width:2px}.cls-53{stroke-width:3.13px}.cls-54,.cls-55{fill:#594858}.cls-56,.cls-62{fill:#322838}.cls-57{fill:#97868a}.cls-58{fill:#ab9da4}.cls-59,.cls-60{fill:#193364}.cls-61{fill:#7ca8fd}.cls-63{fill:url(#linear-gradient-32)}.cls-65{fill:url(#linear-gradient-33)}.cls-66{fill:url(#linear-gradient-34)}.cls-67{fill:url(#linear-gradient-35)}</style><linearGradient id="New_Gradient_Swatch_20" x1="-1520.09" y1="97.79" x2="-1520.09" y2="75.69" gradientTransform="matrix(-1 0 0 1 -1484.44 -75.15)" gradientUnits="userSpaceOnUse"><stop offset="0" stop-color="#4a4151" stop-opacity="0"/><stop offset="1" stop-color="#4a4151"/></linearGradient><linearGradient id="linear-gradient" x1="-1546.91" y1="91.59" x2="-1487.07" y2="91.59" gradientTransform="matrix(-1 0 0 1 -1484.44 -75.15)" gradientUnits="userSpaceOnUse"><stop offset="0" stop-color="#5e4d5c" stop-opacity="0"/><stop offset=".55" stop-color="#97868a"/><stop offset="1" stop-color="#5e4d5c" stop-opacity="0"/></linearGradient><linearGradient id="linear-gradient-2" x1="-1529.77" y1="89.18" x2="-1499.7" y2="89.18" gradientTransform="matrix(-1 0 0 1 -1484.44 -75.15)" gradientUnits="userSpaceOnUse"><stop offset="0" stop-color="#322838" stop-opacity="0"/><stop offset="1" stop-color="#322838"/></linearGradient><linearGradient id="New_Gradient_Swatch_20-2" x1="-1448.22" y1="95.49" x2="-1440.22" y2="95.49" gradientTransform="matrix(-1 0 0 1 -1418.65 -75.15)" xlink:href="#New_Gradient_Swatch_20"/><linearGradient id="linear-gradient-3" x1="-1523.12" y1="93.78" x2="-1515.21" y2="93.78" gradientTransform="matrix(-1 0 0 1 -1484.44 -75.15)" gradientUnits="userSpaceOnUse"><stop offset="0" stop-color="#8a7982" stop-opacity="0"/><stop offset="1" stop-color="#8a7982"/></linearGradient><linearGradient id="New_Gradient_Swatch_20-3" x1="-1457.33" y1="93.78" x2="-1449.42" y2="93.78" gradientTransform="matrix(-1 0 0 1 -1418.65 -75.15)" xlink:href="#New_Gradient_Swatch_20"/><linearGradient id="linear-gradient-4" x1="-1523.78" y1="100.76" x2="-1523.78" y2="88.65" xlink:href="#linear-gradient-2"/><linearGradient id="linear-gradient-5" x1="-1532.06" y1="92.32" x2="-1515.36" y2="92.32" gradientTransform="matrix(-1 0 0 1 -1484.44 -75.15)" gradientUnits="userSpaceOnUse"><stop offset="0" stop-color="#5e4d5c" stop-opacity="0"/><stop offset="1" stop-color="#97868a"/></linearGradient><linearGradient id="linear-gradient-6" x1="-1518.88" y1="93.99" x2="-1508.35" y2="93.99" xlink:href="#linear-gradient-5"/><linearGradient id="New_Gradient_Swatch_72" x1="-1507.54" y1="92.02" x2="-1498.94" y2="92.02" xlink:href="#New_Gradient_Swatch_20"/><linearGradient id="linear-gradient-7" x1="-1513.39" y1="84.88" x2="-1485.44" y2="84.88" xlink:href="#linear-gradient-3"/><linearGradient id="New_Gradient_Swatch_20-4" x1="-1447.6" y1="84.88" x2="-1419.65" y2="84.88" gradientTransform="matrix(-1 0 0 1 -1418.65 -75.15)" xlink:href="#New_Gradient_Swatch_20"/><linearGradient id="linear-gradient-8" x1="-1511.45" y1="91.33" x2="-1501.66" y2="91.33" xlink:href="#linear-gradient-5"/><linearGradient id="New_Gradient_Swatch_72-2" x1="-1544.67" y1="100.77" x2="-1511.42" y2="100.77" xlink:href="#New_Gradient_Swatch_20"/><linearGradient id="linear-gradient-9" x1="-1521.39" y1="91.65" x2="-1516.51" y2="91.65" gradientTransform="matrix(-1 0 0 1 -1484.44 -75.15)" gradientUnits="userSpaceOnUse"><stop offset="0" stop-color="#97868a" stop-opacity="0"/><stop offset="1" stop-color="#97868a"/></linearGradient><linearGradient id="linear-gradient-10" x1="-1513.71" y1="93.31" x2="-1509.7" y2="93.31" xlink:href="#linear-gradient-9"/><linearGradient id="linear-gradient-11" x1="-1506.9" y1="90.66" x2="-1502.88" y2="90.66" xlink:href="#linear-gradient-9"/><linearGradient id="New_Gradient_Swatch_20-5" x1="324.19" y1="97.79" x2="324.19" y2="75.69" gradientTransform="translate(-235.32 -75.15)" xlink:href="#New_Gradient_Swatch_20"/><linearGradient id="linear-gradient-12" x1="297.37" y1="91.59" x2="357.21" y2="91.59" gradientTransform="translate(-235.32 -75.15)" xlink:href="#linear-gradient"/><linearGradient id="linear-gradient-13" x1="314.51" y1="89.18" x2="344.58" y2="89.18" gradientTransform="translate(-235.32 -75.15)" xlink:href="#linear-gradient-2"/><linearGradient id="New_Gradient_Swatch_20-6" x1="396.06" y1="95.49" x2="404.06" y2="95.49" gradientTransform="translate(-301.11 -75.15)" xlink:href="#New_Gradient_Swatch_20"/><linearGradient id="linear-gradient-14" x1="321.16" y1="93.78" x2="329.07" y2="93.78" gradientTransform="translate(-235.32 -75.15)" xlink:href="#linear-gradient-3"/><linearGradient id="New_Gradient_Swatch_20-7" x1="386.95" y1="93.78" x2="394.86" y2="93.78" gradientTransform="translate(-301.11 -75.15)" xlink:href="#New_Gradient_Swatch_20"/><linearGradient id="linear-gradient-15" x1="320.5" y1="100.76" x2="320.5" y2="88.65" gradientTransform="translate(-235.32 -75.15)" xlink:href="#linear-gradient-2"/><linearGradient id="linear-gradient-16" x1="312.22" y1="92.32" x2="328.92" y2="92.32" gradientTransform="translate(-235.32 -75.15)" xlink:href="#linear-gradient-5"/><linearGradient id="linear-gradient-17" x1="325.4" y1="93.99" x2="335.93" y2="93.99" gradientTransform="translate(-235.32 -75.15)" xlink:href="#linear-gradient-5"/><linearGradient id="New_Gradient_Swatch_72-3" x1="336.74" y1="92.02" x2="345.34" y2="92.02" gradientTransform="translate(-235.32 -75.15)" xlink:href="#New_Gradient_Swatch_20"/><linearGradient id="linear-gradient-18" x1="330.89" y1="84.88" x2="358.84" y2="84.88" gradientTransform="translate(-235.32 -75.15)" xlink:href="#linear-gradient-3"/><linearGradient id="New_Gradient_Swatch_20-8" x1="396.68" y1="84.88" x2="424.63" y2="84.88" gradientTransform="translate(-301.11 -75.15)" xlink:href="#New_Gradient_Swatch_20"/><linearGradient id="linear-gradient-19" x1="332.83" y1="91.33" x2="342.62" y2="91.33" gradientTransform="translate(-235.32 -75.15)" xlink:href="#linear-gradient-5"/><linearGradient id="New_Gradient_Swatch_72-4" x1="299.61" y1="100.77" x2="332.86" y2="100.77" gradientTransform="translate(-235.32 -75.15)" xlink:href="#New_Gradient_Swatch_20"/><linearGradient id="linear-gradient-20" x1="322.9" y1="91.65" x2="327.77" y2="91.65" gradientTransform="translate(-235.32 -75.15)" xlink:href="#linear-gradient-9"/><linearGradient id="linear-gradient-21" x1="330.57" y1="93.31" x2="334.58" y2="93.31" gradientTransform="translate(-235.32 -75.15)" xlink:href="#linear-gradient-9"/><linearGradient id="linear-gradient-22" x1="337.39" y1="90.66" x2="341.4" y2="90.66" gradientTransform="translate(-235.32 -75.15)" xlink:href="#linear-gradient-9"/><linearGradient id="linear-gradient-23" x1="61.89" y1="81" x2="61.89" y2="25" xlink:href="#linear-gradient-2"/><linearGradient id="linear-gradient-24" x1="34.93" y1="79.96" x2="88.85" y2="26.04" gradientUnits="userSpaceOnUse"><stop offset="0" stop-color="#594858" stop-opacity="0"/><stop offset=".13" stop-color="#7d6c75" stop-opacity=".58"/><stop offset=".21" stop-color="#958488" stop-opacity=".96"/><stop offset=".51" stop-color="#594858" stop-opacity="0"/></linearGradient><linearGradient id="linear-gradient-25" x1="34.93" y1="79.96" x2="88.85" y2="26.04" gradientUnits="userSpaceOnUse"><stop offset=".49" stop-color="#594858" stop-opacity="0"/><stop offset=".79" stop-color="#958488" stop-opacity=".96"/><stop offset=".87" stop-color="#7d6c75" stop-opacity=".58"/><stop offset="1" stop-color="#594858" stop-opacity="0"/></linearGradient><linearGradient id="linear-gradient-26" x1="88.85" y1="79.96" x2="34.93" y2="26.04" xlink:href="#linear-gradient-25"/><linearGradient id="linear-gradient-27" x1="88.85" y1="79.96" x2="34.93" y2="26.04" xlink:href="#linear-gradient-24"/><linearGradient id="linear-gradient-28" x1="-191.17" y1="1680.56" x2="-186.31" y2="1675.7" gradientTransform="rotate(-90 -874 720.5)" gradientUnits="userSpaceOnUse"><stop offset="0" stop-color="#97868a"/><stop offset=".17" stop-color="#968589" stop-opacity=".97"/><stop offset=".33" stop-color="#918085" stop-opacity=".9"/><stop offset=".49" stop-color="#8a797f" stop-opacity=".76"/><stop offset=".65" stop-color="#7f6e77" stop-opacity=".58"/><stop offset=".81" stop-color="#72616c" stop-opacity=".34"/><stop offset=".97" stop-color="#61505f" stop-opacity=".06"/><stop offset="1" stop-color="#5e4d5c" stop-opacity="0"/></linearGradient><linearGradient id="linear-gradient-29" x1="-1580.17" y1="-179.22" x2="-1575.31" y2="-184.08" gradientTransform="rotate(90 -874 774.5)" xlink:href="#linear-gradient-28"/><linearGradient id="linear-gradient-30" x1="-1853.06" y1="1547.67" x2="-1848.2" y2="1542.81" gradientTransform="rotate(180 -904.5 808)" xlink:href="#linear-gradient-28"/><linearGradient id="linear-gradient-31" x1="-194.17" y1="1879.56" x2="-189.31" y2="1874.7" gradientTransform="rotate(-90 -996 839.5)" xlink:href="#linear-gradient-28"/><linearGradient id="linear-gradient-32" x1="55.93" y1="20.56" x2="55.93" y2="25.51" gradientUnits="userSpaceOnUse"><stop offset="0" stop-color="#193364"/><stop offset="1" stop-color="#2d4471" stop-opacity="0"/></linearGradient><linearGradient id="linear-gradient-33" x1="52.74" y1="23.03" x2="59.12" y2="23.03" gradientUnits="userSpaceOnUse"><stop offset="0" stop-color="#193364"/><stop offset="1" stop-color="#193364" stop-opacity="0"/></linearGradient><linearGradient id="linear-gradient-34" x1="69.66" y1="20.56" x2="69.66" y2="25.51" xlink:href="#linear-gradient-32"/><linearGradient id="linear-gradient-35" x1="66.47" y1="23.03" x2="72.85" y2="23.03" xlink:href="#linear-gradient-33"/></defs><title>Game 1.8 export</title><g class="cls-1"><g id="Player_avatar_forefround" data-name="Player avatar forefround"><g id="wings"><g id="left"><path class="cls-2" d="M64.06 21.56c-14.61-6.94-16.83-11.14-23.81-11.14H12c-4.49 0-6.73-4.09-8.92-3.67C.58 7.24 1 9.67 5 12.31c3.13 2.1 8.4 2.1 11.93 2.1 0 0 7.79 1.33 1.95 1.33S15 19 18.86 19h5.84c-3.89 0-2.92 3.32 0 3.32h6.82c-4.87 0-5.84 4 0 4h23.36a4.28 4.28 0 0 1 4.12 2.5l10.71-7.9z"/><path class="cls-3" d="M64.06 20.68C49.45 13.74 47.23 9.54 40.25 9.54H12c-4.49 0-6.73-4.09-8.92-3.67C.58 6.35 1 8.78 5 11.42c3.13 2.1 8.4 2.1 11.93 2.1 0 0 7.79 1.33 1.95 1.33s-3.89 3.32 0 3.32h5.82c-3.89 0-2.92 3.32 0 3.32h6.82c-4.87 0-5.84 4 0 4h23.36A4.28 4.28 0 0 1 59 27.93L69.76 20z"/><path class="cls-4" d="M64.06 20.68C49.45 13.74 47.23 9.54 40.25 9.54H12c-4.49 0-6.73-4.09-8.92-3.67C.58 6.35 1 8.78 5 11.42c3.13 2.1 8.4 2.1 11.93 2.1 0 0 7.79 1.33 1.95 1.33s-3.89 3.32 0 3.32h5.82c-3.89 0-2.92 3.32 0 3.32h6.82c-4.87 0-5.84 4 0 4h23.36A4.28 4.28 0 0 1 59 27.93L69.76 20z"/><path class="cls-5" d="M64.06 20.68C49.45 13.74 47.23 9.54 40.25 9.54H12c-4.49 0-6.73-4.09-8.92-3.67C.58 6.35 1 8.78 5 11.42c3.13 2.1 8.4 2.1 11.93 2.1 0 0 7.79 1.33 1.95 1.33s-3.89 3.32 0 3.32h5.82c-3.89 0-2.92 3.32 0 3.32h6.82c-4.87 0-5.84 4 0 4h23.36A4.28 4.28 0 0 1 59 27.93L69.76 20z"/><path class="cls-6" d="M56.27 22.22s4.24-.44-3.7-4.68-6.66-6-11.18-6H9.85c-5.6 0-8.43-5.17-6.73-5.78C5.24 5 7.55 9.32 12 9.32h29.58C45 9.32 62.47 20 62.47 20l-5.37 7.21-.56-2.64z"/><path class="cls-7 cls-8" d="M44.67 14.69H15.92a.66.66 0 0 1 0-1.33h28.75a.66.66 0 0 1 0 1.33z"/><path class="cls-9" d="M25.67 20h3.89l-1 1.33H24.7c-2.54 0-3.62-1.06-2.92-2 .44.78 2.53.67 3.89.67z"/><path class="cls-10" d="M34.19 18.67h4.34l.15 1.33h-4.49c-2.54 0-3.94-1.81-3.25-2.74a4 4 0 0 0 3.25 1.41z"/><path class="cls-11" d="M34.19 18.67h4.34l.15 1.33h-4.49c-2.54 0-3.94-1.81-3.25-2.74a4 4 0 0 0 3.25 1.41z"/><path class="cls-12" d="M63.47 25.49c1.46 0 1.62-.63.36-1.37L48 14.86a11.62 11.62 0 0 0-5-1.34H17c-4.72 0-2.78 5.35-1.11 5.35h1.79c1.46 0 2.4.69 2.1 1.53l1.67.76 1.67.76a6.3 6.3 0 0 1 3.23 2.33 4.06 4.06 0 0 0 2.29 1.2c1.62.39 34.83.04 34.83.04z"/><path class="cls-13" d="M47.62 15.51H33.88c-3.89 0-3.89 3.32-.37 3.32h10.66"/><path class="cls-14" d="M28 17.5h-1.35c-3.47 0-3.82 2.67 0 2.67h7.79"/><path class="cls-7 cls-15" d="M18.22 16.91h4.72l.16 1.33h-4.88c-2.76 0-4.29-1.81-3.53-2.74a4.57 4.57 0 0 0 3.53 1.41z"/><g class="cls-7"><path class="cls-16" d="M14 12h14.78l.16 1.33H15.3C12.78 13.37 1.72 13 1 7.25.94 6.71 1.59 5.1 2.55 7S5.91 12 14 12z"/><path class="cls-17" d="M14 12h14.78l.16 1.33H15.3C12.78 13.37 1.72 13 1 7.25.94 6.71 1.59 5.1 2.55 7S5.91 12 14 12z"/></g><path class="cls-18" d="M18.86 14.84H27l-1 2.67h-6.17c-2.78 0-3.18-1.71-1.95-2.67h1z"/><path class="cls-7 cls-19" d="M29.57 24h26.29l2.92 1.4s2.46 2.62 1 2.62c-1.18 0-4.33-2.69-4.87-2.69H29.57c-2.76 0-3-1.15-2.21-2.07.48.74.73.74 2.21.74z"/><path class="cls-20" d="M32.07 16.5c0 .55 1.09 1 2.44 1s2.44-.45 2.44-1-.38-1-2.44-1c-1.35.01-2.44.5-2.44 1z"/><ellipse class="cls-21" cx="27.26" cy="18.16" rx="2.01" ry=".66"/><ellipse class="cls-22" cx="20.45" cy="15.51" rx="2.01" ry=".66"/></g></g><g id="wings-2" data-name="wings"><g id="left-2" data-name="left"><path class="cls-2" d="M60.46 21.56c14.61-6.94 16.82-11.14 23.81-11.14h28.21c4.49 0 6.73-4.09 8.92-3.67 2.54.49 2.08 2.92-1.86 5.56-3.13 2.1-8.4 2.1-11.93 2.1 0 0-7.79 1.33-1.95 1.33s3.89 3.32 0 3.32h-5.84c3.89 0 2.92 3.32 0 3.32H93c4.87 0 5.84 4 0 4H69.64a4.28 4.28 0 0 0-4.17 2.47l-10.71-7.9z"/><path class="cls-3" d="M60.46 20.68C75.07 13.74 77.29 9.54 84.27 9.54h28.21c4.49 0 6.73-4.09 8.92-3.67 2.54.49 2.08 2.92-1.86 5.56-3.13 2.1-8.4 2.1-11.93 2.1 0 0-7.79 1.33-1.95 1.33s3.89 3.32 0 3.32h-5.84c3.89 0 2.92 3.32 0 3.32H93c4.87 0 5.84 4 0 4H69.64a4.28 4.28 0 0 0-4.17 2.47L54.76 20z"/><path class="cls-4" d="M60.46 20.68C75.07 13.74 77.29 9.54 84.27 9.54h28.21c4.49 0 6.73-4.09 8.92-3.67 2.54.49 2.08 2.92-1.86 5.56-3.13 2.1-8.4 2.1-11.93 2.1 0 0-7.79 1.33-1.95 1.33s3.89 3.32 0 3.32h-5.84c3.89 0 2.92 3.32 0 3.32H93c4.87 0 5.84 4 0 4H69.64a4.28 4.28 0 0 0-4.17 2.47L54.76 20z"/><path class="cls-23" d="M60.46 20.68C75.07 13.74 77.29 9.54 84.27 9.54h28.21c4.49 0 6.73-4.09 8.92-3.67 2.54.49 2.08 2.92-1.86 5.56-3.13 2.1-8.4 2.1-11.93 2.1 0 0-7.79 1.33-1.95 1.33s3.89 3.32 0 3.32h-5.84c3.89 0 2.92 3.32 0 3.32H93c4.87 0 5.84 4 0 4H69.64a4.28 4.28 0 0 0-4.17 2.47L54.76 20z"/><path class="cls-24" d="M68.25 22.22S64 21.78 72 17.54s6.66-6 11.18-6h31.54c5.6 0 8.43-5.17 6.73-5.78-2.17-.76-4.45 3.56-8.97 3.56H82.95c-3.4 0-20.9 10.68-20.9 10.68l5.37 7.17.58-2.59z"/><path class="cls-7 cls-25" d="M79.85 14.69h28.75a.66.66 0 1 0 0-1.33H79.85a.66.66 0 0 0 0 1.33z"/><path class="cls-26" d="M98.85 20H95l1 1.33h3.89c2.54 0 3.62-1.06 2.92-2-.51.78-2.6.67-3.96.67z"/><path class="cls-27" d="M90.33 18.67H86L85.84 20h4.49c2.54 0 3.94-1.81 3.25-2.74a4 4 0 0 1-3.25 1.41z"/><path class="cls-28" d="M90.33 18.67H86L85.84 20h4.49c2.54 0 3.94-1.81 3.25-2.74a4 4 0 0 1-3.25 1.41z"/><path class="cls-29" d="M61.05 25.49c-1.46 0-1.62-.63-.36-1.37l15.86-9.26a11.62 11.62 0 0 1 4.95-1.34h26.06c4.72 0 2.78 5.35 1.11 5.35h-1.79c-1.46 0-2.4.69-2.1 1.53l-1.67.76-1.67.76a6.3 6.3 0 0 0-3.23 2.33 4.06 4.06 0 0 1-2.29 1.2c-1.66.39-34.87.04-34.87.04z"/><path class="cls-30" d="M76.9 15.51h13.74c3.89 0 3.89 3.32.37 3.32H80.35"/><path class="cls-31" d="M96.49 17.5h1.39c3.47 0 3.82 2.67 0 2.67h-7.8"/><path class="cls-7 cls-32" d="M106.3 16.91h-4.72l-.16 1.33h4.88c2.76 0 4.29-1.81 3.53-2.74a4.57 4.57 0 0 1-3.53 1.41z"/><g class="cls-7"><path class="cls-33" d="M110.52 12H95.74l-.16 1.33h13.64c2.53 0 13.58-.36 14.3-6.12.06-.5-.59-2.11-1.52-.21s-3.38 5-11.48 5z"/><path class="cls-34" d="M110.52 12H95.74l-.16 1.33h13.64c2.53 0 13.58-.36 14.3-6.12.06-.5-.59-2.11-1.52-.21s-3.38 5-11.48 5z"/></g><path class="cls-35" d="M105.67 14.84h-8.16l1 2.67h6.21c2.78 0 3.18-1.71 1.95-2.67h-1z"/><path class="cls-7 cls-36" d="M95 24H68.66l-2.92 1.4s-2.45 2.6-.97 2.6c1.18 0 4.33-2.69 4.87-2.69H95c2.76 0 3-1.15 2.21-2.07-.53.76-.78.76-2.21.76z"/><path class="cls-37" d="M92.45 16.5c0 .55-1.09 1-2.44 1s-2.44-.45-2.44-1 .38-1 2.44-1c1.35.01 2.44.5 2.44 1z"/><ellipse class="cls-38" cx="97.26" cy="18.16" rx="2.01" ry=".66"/><ellipse class="cls-39" cx="104.07" cy="15.51" rx="2.01" ry=".66"/></g></g><g id="_2" data-name="2"><path class="cls-40" d="M37.39 81h49V69h-6v6h12V31h-12v6h6V25h-49v12h6v-6h-12v44h12v-6h-6v12z"/><path class="cls-41" d="M37.39 83h49V71h-6v6h12V33h-12v6h6V27h-49v12h6v-6h-12v44h12v-6h-6v12z"/><path class="cls-41" d="M37.39 81h49V69h-6v6h12V31h-12v6h6V25h-49v12h6v-6h-12v44h12v-6h-6v12z"/><path class="cls-42" d="M37.39 81h49V69h-6v6h12V31h-12v6h6V25h-49v12h6v-6h-12v44h12v-6h-6v12z"/><path class="cls-43" d="M86.39 82h-49a1 1 0 0 1-1-1v-5h-5a1 1 0 0 1-1-1V31a1 1 0 0 1 1-1h5v-5a1 1 0 0 1 1-1h49a1 1 0 0 1 1 1v5h5a1 1 0 0 1 1 1v44a1 1 0 0 1-1 1h-5v5a1 1 0 0 1-1 1zm-48-2h47v-4h-5a1 1 0 0 1-1-1v-6a1 1 0 0 1 1-1h6a1 1 0 0 1 1 1v5h4V32h-4v5a1 1 0 0 1-1 1h-6a1 1 0 0 1-1-1v-6a1 1 0 0 1 1-1h5v-4h-47v4h5a1 1 0 0 1 1 1v6a1 1 0 0 1-1 1h-6a1 1 0 0 1-1-1v-5h-4v42h4v-5a1 1 0 0 1 1-1h6a1 1 0 0 1 1 1v6a1 1 0 0 1-1 1h-5v4zm43-6h4v-4h-4v4zm-43 0h4v-4h-4v4zm43-38h4v-4h-4v4zm-43 0h4v-4h-4v4z"/><path class="cls-44" d="M86.39 82h-49a1 1 0 0 1-1-1v-5h-5a1 1 0 0 1-1-1V31a1 1 0 0 1 1-1h5v-5a1 1 0 0 1 1-1h49a1 1 0 0 1 1 1v5h5a1 1 0 0 1 1 1v44a1 1 0 0 1-1 1h-5v5a1 1 0 0 1-1 1zm-48-2h47v-4h-5a1 1 0 0 1-1-1v-6a1 1 0 0 1 1-1h6a1 1 0 0 1 1 1v5h4V32h-4v5a1 1 0 0 1-1 1h-6a1 1 0 0 1-1-1v-6a1 1 0 0 1 1-1h5v-4h-47v4h5a1 1 0 0 1 1 1v6a1 1 0 0 1-1 1h-6a1 1 0 0 1-1-1v-5h-4v42h4v-5a1 1 0 0 1 1-1h6a1 1 0 0 1 1 1v6a1 1 0 0 1-1 1h-5v4zm43-6h4v-4h-4v4zm-43 0h4v-4h-4v4zm43-38h4v-4h-4v4zm-43 0h4v-4h-4v4z"/><path class="cls-45" d="M86.39 82h-49a1 1 0 0 1-1-1v-5h-5a1 1 0 0 1-1-1V31a1 1 0 0 1 1-1h5v-5a1 1 0 0 1 1-1h49a1 1 0 0 1 1 1v5h5a1 1 0 0 1 1 1v44a1 1 0 0 1-1 1h-5v5a1 1 0 0 1-1 1zm-48-2h47v-4h-5a1 1 0 0 1-1-1v-6a1 1 0 0 1 1-1h6a1 1 0 0 1 1 1v5h4V32h-4v5a1 1 0 0 1-1 1h-6a1 1 0 0 1-1-1v-6a1 1 0 0 1 1-1h5v-4h-47v4h5a1 1 0 0 1 1 1v6a1 1 0 0 1-1 1h-6a1 1 0 0 1-1-1v-5h-4v42h4v-5a1 1 0 0 1 1-1h6a1 1 0 0 1 1 1v6a1 1 0 0 1-1 1h-5v4zm43-6h4v-4h-4v4zm-43 0h4v-4h-4v4zm43-38h4v-4h-4v4zm-43 0h4v-4h-4v4z"/><path class="cls-46" d="M86.39 82h-49a1 1 0 0 1-1-1v-5h-5a1 1 0 0 1-1-1V31a1 1 0 0 1 1-1h5v-5a1 1 0 0 1 1-1h49a1 1 0 0 1 1 1v5h5a1 1 0 0 1 1 1v44a1 1 0 0 1-1 1h-5v5a1 1 0 0 1-1 1zm-48-2h47v-4h-5a1 1 0 0 1-1-1v-6a1 1 0 0 1 1-1h6a1 1 0 0 1 1 1v5h4V32h-4v5a1 1 0 0 1-1 1h-6a1 1 0 0 1-1-1v-6a1 1 0 0 1 1-1h5v-4h-47v4h5a1 1 0 0 1 1 1v6a1 1 0 0 1-1 1h-6a1 1 0 0 1-1-1v-5h-4v42h4v-5a1 1 0 0 1 1-1h6a1 1 0 0 1 1 1v6a1 1 0 0 1-1 1h-5v4zm43-6h4v-4h-4v4zm-43 0h4v-4h-4v4zm43-38h4v-4h-4v4zm-43 0h4v-4h-4v4z"/><path class="cls-47 cls-48" d="M84.39 31v5h-5v2h7v-7h-2z"/><path class="cls-47 cls-49" d="M86.39 68h-7v7h2v-5h5v-2z"/><path class="cls-47 cls-50" d="M42.39 68h-5v2h5v5h2v-7h-2z"/><path class="cls-47 cls-51" d="M42.39 31v5h-5v2h7v-7h-2z"/><path class="cls-52" d="M84.08 28.4V34M89.08 28.4V34M89.38 72.7h-5.6M89.38 77.7h-5.6M34.08 72.4V78M39.08 72.4V78M40.38 27.7h-5.6M40.38 32.7h-5.6"/></g><g id="skull"><path class="cls-7 cls-53" d="M76 16.71c0-6.43-6-11.64-13.52-11.64S48.9 10.28 48.9 16.71a10.22 10.22 0 0 0 1.27 4.9c-1.69 6 2.62 7 4.17 7.21a8 8 0 0 0-.24 3.47s-.22 1.41 2.9 1.45v.69s0 1.18 4.44 1.18a.91.91 0 0 0 1-1l.35-4.93.35 4.93a.91.91 0 0 0 1 1c4.43 0 4.44-1.18 4.44-1.18v-.69c3.06-.06 2.84-1.45 2.84-1.45a7.94 7.94 0 0 0-.24-3.48c1.37-.2 6.08-1.38 3.81-7.76A10.17 10.17 0 0 0 76 16.71z"/><path class="cls-53" d="M76 15.67C76 9.24 70 4 62.48 4S48.9 9.24 48.9 15.67a10.22 10.22 0 0 0 1.27 4.9c-1.69 6 2.62 7 4.17 7.21a8 8 0 0 0-.24 3.47s-.22 1.41 2.9 1.45v.69s0 1.18 4.44 1.18a.91.91 0 0 0 1-1l.35-4.93.35 4.93a.91.91 0 0 0 1 1c4.43 0 4.44-1.18 4.44-1.18v-.69c3.06-.06 2.84-1.45 2.84-1.45a7.94 7.94 0 0 0-.24-3.48c1.37-.2 6.08-1.38 3.81-7.76A10.17 10.17 0 0 0 76 15.67z"/><path class="cls-4" d="M76 15.67C76 9.24 70 4 62.48 4S48.9 9.24 48.9 15.67a10.22 10.22 0 0 0 1.27 4.9c-1.69 6 2.62 7 4.17 7.21a8 8 0 0 0-.24 3.47s-.22 1.41 2.9 1.45v.69s0 1.18 4.44 1.18a.91.91 0 0 0 1-1l.35-4.93.35 4.93a.91.91 0 0 0 1 1c4.43 0 4.44-1.18 4.44-1.18v-.69c3.06-.06 2.84-1.45 2.84-1.45a7.94 7.94 0 0 0-.24-3.48c1.37-.2 6.08-1.38 3.81-7.76A10.17 10.17 0 0 0 76 15.67z"/><path class="cls-7 cls-54" d="M71.81 28.43a2.89 2.89 0 0 0-3.2-.11s3.16 1.91 1.35 3.17a6.71 6.71 0 0 1-1.37.15v.69s0 1.18-4.44 1.18a.91.91 0 0 1-1-1l-.29-4.07h-.12l-.29 4.12a.91.91 0 0 1-1 1C57 33.52 57 32.34 57 32.34v-.69a7.15 7.15 0 0 1-1.31-.12c-1.91-2 1.51-3.21 1.51-3.21a2.89 2.89 0 0 0-3.2.11v3.1c0 .37.42 1.26 2.92 1.29v.69s0 1.18 4.44 1.18a.91.91 0 0 0 1-1l.35-4.93.35 4.93a.91.91 0 0 0 1 1c4.43 0 4.44-1.18 4.44-1.18v-.69c2.44-.05 2.79-.94 2.83-1.3h.4v-3.1z"/><path class="cls-55" d="M75.64 22.5c-.31 3.1-3.13 3.89-4.28 4.08-.3.05-.48.06-.48.06h-.3c-.87.13-2.16.52-2.07 1.75v.58-.88l2.31-.14a.42.42 0 0 1 .37-.09v-.09c1.23-.18 4.81-1.06 4.45-5.27zM54 27.86a.41.41 0 0 1 .37.09l2.31.14.08.05c-.09-1-1.26-1.38-2.07-1.5h-.3s-.19 0-.48-.06c-1.15-.19-4-1-4.28-4.08-.37 4.21 3.22 5.1 4.39 5.27z"/><path class="cls-56" d="M68.65 33.39l-.05-4.5.72 3.94-.67.56zM56.97 33.39l.05-4.5-.72 3.94.67.56zM53.66 27.66h2.27c1.3 0 1.09.66 1.09.66s-.16-.34-1.39-.14a2.23 2.23 0 0 0-1.62.93s-1.66-1.45-.35-1.45zM72 27.66h-2.3c-1.3 0-1.09.66-1.09.66s.16-.32 1.39-.14a2.23 2.23 0 0 1 1.62.93s1.67-1.45.38-1.45zM50.09 20.85a5.59 5.59 0 0 1 5-4 6.08 6.08 0 0 0-6.14 2.85c-1.95 3.3 1.14 1.15 1.14 1.15zM75.36 20.85a5.59 5.59 0 0 0-5-4 6.08 6.08 0 0 1 6.14 2.85c.67 1.39-1.14 1.15-1.14 1.15z"/><ellipse class="cls-57" cx="62.48" cy="8.78" rx="6.93" ry="3.82"/><ellipse class="cls-57" cx="70.41" cy="18.92" rx="3.72" ry="2.05"/><ellipse class="cls-57" cx="55.41" cy="18.92" rx="3.72" ry="2.05"/><ellipse class="cls-58" cx="62.6" cy="8.26" rx="4.59" ry="2.53"/><ellipse class="cls-59" cx="55.93" cy="22.34" rx="2.69" ry="3.17"/><ellipse class="cls-60" cx="55.93" cy="22.34" rx="2.69" ry="3.17"/><ellipse class="cls-61" cx="55.93" cy="23.03" rx="2.69" ry="2.48"/><ellipse class="cls-59" cx="69.66" cy="22.34" rx="2.69" ry="3.17"/><ellipse class="cls-60" cx="69.66" cy="22.34" rx="2.69" ry="3.17"/><ellipse class="cls-61" cx="69.66" cy="23.03" rx="2.69" ry="2.48"/><path class="cls-62" d="M62.73 23.69h-.06c-.56.14-2.4 2.12-1.57 3.25s1.45-.5 1.6-.87c.15.37.85 1.92 1.6.87s-1.01-3.11-1.57-3.25z"/><path class="cls-56" d="M62.72 24.61h-.05c-.51.12-2.17 1.71-1.43 2.63s1.45-.06 1.45-.71c0 .65.77 1.55 1.45.71s-.91-2.51-1.42-2.63z"/><path class="cls-57" d="M65.66 28.89c-1.43 0-2.74 2.67.34 2.67s1.61-2.67-.34-2.67zM59.73 28.89c-1.43 0-2.74 2.67.34 2.67s1.61-2.67-.34-2.67zM59.34 19.14s-.49-2.32-4.3-2.32a5.19 5.19 0 0 0-5.1 4.71 5.17 5.17 0 0 1 5.16-3.73c4.24 0 4.24 1.34 4.24 1.34z"/><ellipse class="cls-58" cx="55.4" cy="17.99" rx="2.24" ry="1.23"/><path class="cls-57" d="M66.06 19.14s.49-2.32 4.3-2.32a5.19 5.19 0 0 1 5.1 4.71 5.17 5.17 0 0 0-5.16-3.73c-4.24 0-4.24 1.34-4.24 1.34z"/><ellipse class="cls-58" cx="69.96" cy="17.99" rx="2.24" ry="1.23"/><path class="cls-55" d="M73.41 8.77s2.7 4.8-.43 8.58l3.09 2.1s1.71-5.13-2.66-10.68zM51.94 8.33s-2.82 5.25.33 9.06l-3.11 2.12s-2-6.95 2.78-11.18z"/><ellipse class="cls-63" cx="55.93" cy="23.03" rx="2.69" ry="2.48"/><path class="cls-64 cls-65" d="M55.93 26a3 3 0 1 1 3.19-3 3.09 3.09 0 0 1-3.19 3zm0-5a2 2 0 1 0 2.19 2 2.09 2.09 0 0 0-2.19-1.94z"/><ellipse class="cls-66" cx="69.66" cy="23.03" rx="2.69" ry="2.48"/><path class="cls-64 cls-67" d="M69.66 26a3 3 0 1 1 3.19-3 3.09 3.09 0 0 1-3.19 3zm0-5a2 2 0 1 0 2.19 2 2.09 2.09 0 0 0-2.19-1.94z"/></g></g></g></svg>