<svg xmlns="http://www.w3.org/2000/svg" xmlns:xlink="http://www.w3.org/1999/xlink" viewBox="0 0 960 540"><defs><style>.cls-1,.cls-47,.cls-60,.cls-70,.cls-84{fill:none}.cls-2{isolation:isolate}.cls-10,.cls-3{fill:#594858}.cls-4{clip-path:url(#clip-path)}.cls-16,.cls-17,.cls-20,.cls-25,.cls-26,.cls-29,.cls-30,.cls-34,.cls-35,.cls-36,.cls-37,.cls-38,.cls-39,.cls-5,.cls-6,.cls-7,.cls-8{opacity:.2}.cls-5{fill:url(#linear-gradient)}.cls-6{fill:url(#linear-gradient-2)}.cls-7{fill:url(#linear-gradient-3)}.cls-8{fill:url(#linear-gradient-4)}.cls-9{fill:url(#linear-gradient-5)}.cls-10,.cls-11,.cls-12,.cls-14,.cls-19,.cls-22,.cls-23,.cls-28,.cls-32,.cls-41,.cls-43,.cls-46,.cls-48,.cls-53,.cls-57,.cls-59,.cls-61,.cls-65,.cls-69,.cls-71,.cls-77,.cls-78,.cls-83,.cls-87,.cls-88,.cls-91{mix-blend-mode:darken}.cls-11,.cls-41,.cls-43,.cls-69,.cls-87{opacity:.4}.cls-11{fill:url(#linear-gradient-6)}.cls-13,.cls-14{fill:#322838}.cls-15{clip-path:url(#clip-path-2)}.cls-16{fill:url(#linear-gradient-7)}.cls-17{fill:url(#linear-gradient-8)}.cls-18{fill:url(#linear-gradient-9)}.cls-19,.cls-23,.cls-28,.cls-32,.cls-46,.cls-48,.cls-53,.cls-57,.cls-59,.cls-61,.cls-65,.cls-71,.cls-77,.cls-78,.cls-83,.cls-88{opacity:.5}.cls-19{fill:url(#linear-gradient-10)}.cls-20{fill:url(#linear-gradient-11)}.cls-21{fill:url(#linear-gradient-12)}.cls-22{fill:#4a4151}.cls-23{fill:url(#linear-gradient-13)}.cls-24{clip-path:url(#clip-path-3)}.cls-25{fill:url(#linear-gradient-14)}.cls-26{fill:url(#linear-gradient-15)}.cls-27{fill:url(#linear-gradient-16)}.cls-28{fill:url(#linear-gradient-17)}.cls-29{fill:url(#linear-gradient-18)}.cls-30{fill:url(#linear-gradient-19)}.cls-31{fill:url(#linear-gradient-20)}.cls-32{fill:url(#linear-gradient-21)}.cls-33{clip-path:url(#clip-path-4)}.cls-34{fill:url(#linear-gradient-22)}.cls-35{fill:url(#linear-gradient-23)}.cls-36{fill:url(#linear-gradient-24)}.cls-37{fill:url(#linear-gradient-25)}.cls-38{fill:url(#linear-gradient-26)}.cls-39{fill:url(#linear-gradient-27)}.cls-40{fill:url(#linear-gradient-28)}.cls-41{fill:url(#linear-gradient-29)}.cls-42{fill:url(#linear-gradient-30)}.cls-43{fill:url(#linear-gradient-31)}.cls-44{fill:#695a6a}.cls-45{fill:url(#linear-gradient-32)}.cls-46{fill:url(#linear-gradient-33)}.cls-47,.cls-60{stroke:#43374c}.cls-47,.cls-60,.cls-70,.cls-84{stroke-linecap:round;stroke-linejoin:round}.cls-47,.cls-84{stroke-width:2.83px}.cls-48{fill:url(#linear-gradient-34)}.cls-49{clip-path:url(#clip-path-5)}.cls-50,.cls-51,.cls-62,.cls-63,.cls-66,.cls-73,.cls-74,.cls-75,.cls-80,.cls-81{fill-opacity:.1}.cls-50{fill:url(#linear-gradient-35)}.cls-51{fill:url(#linear-gradient-36)}.cls-52{fill:url(#linear-gradient-37)}.cls-53{fill:url(#linear-gradient-38)}.cls-54{fill:#42384c}.cls-55{clip-path:url(#clip-path-6)}.cls-56{opacity:.3;mix-blend-mode:lighten;fill:url(#linear-gradient-39)}.cls-57{fill:url(#linear-gradient-40)}.cls-58{fill:url(#linear-gradient-41)}.cls-59{fill:url(#linear-gradient-42)}.cls-60{stroke-width:2.96px}.cls-61{fill:url(#linear-gradient-43)}.cls-62{fill:url(#linear-gradient-44)}.cls-63{fill:url(#linear-gradient-45)}.cls-64{fill:url(#linear-gradient-46)}.cls-65{fill:url(#linear-gradient-47)}.cls-66{fill:url(#linear-gradient-48)}.cls-67{clip-path:url(#clip-path-7)}.cls-68{fill:url(#linear-gradient-49)}.cls-69{fill:url(#linear-gradient-50)}.cls-70,.cls-84{stroke:#42384c}.cls-70{stroke-width:2.87px}.cls-71{fill:url(#linear-gradient-51)}.cls-72{clip-path:url(#clip-path-8)}.cls-73{fill:url(#linear-gradient-52)}.cls-74{fill:url(#linear-gradient-53)}.cls-75{fill:url(#linear-gradient-54)}.cls-76{fill:url(#linear-gradient-55)}.cls-77{fill:url(#linear-gradient-56)}.cls-78{fill:url(#linear-gradient-57)}.cls-79{clip-path:url(#clip-path-9)}.cls-80{fill:url(#linear-gradient-58)}.cls-81{fill:url(#linear-gradient-59)}.cls-82{fill:url(#linear-gradient-60)}.cls-83{fill:url(#linear-gradient-61)}.cls-85{clip-path:url(#clip-path-10)}.cls-86{fill:url(#linear-gradient-62)}.cls-87{fill:url(#linear-gradient-63)}.cls-88{fill:url(#linear-gradient-64)}.cls-89{clip-path:url(#clip-path-11)}.cls-90{fill:url(#linear-gradient-65)}.cls-91{fill:url(#linear-gradient-66)}</style><clipPath id="clip-path"><path class="cls-1" d="M83.67 407H-.34v170"/></clipPath><linearGradient id="linear-gradient" x1="748.39" y1="631.87" x2="763.55" y2="631.87" gradientTransform="matrix(0 -1 -1 0 661.54 1242.38)" gradientUnits="userSpaceOnUse"><stop offset="0" stop-color="#97868a" stop-opacity="0"/><stop offset="1" stop-color="#97868a"/></linearGradient><linearGradient id="linear-gradient-2" x1="752.68" y1="653.21" x2="770.32" y2="653.21" xlink:href="#linear-gradient"/><linearGradient id="linear-gradient-3" x1="739.6" y1="649.79" x2="752.32" y2="649.79" xlink:href="#linear-gradient"/><linearGradient id="linear-gradient-4" x1="854.39" y1="221.07" x2="854.39" y2="238.52" gradientTransform="rotate(-90 545.605 766.855)" gradientUnits="userSpaceOnUse"><stop offset="0" stop-color="#97868a"/><stop offset="1" stop-color="#97868a" stop-opacity="0"/></linearGradient><linearGradient id="linear-gradient-5" x1="-1.67" y1="331.23" x2="-1.67" y2="380.19" gradientTransform="rotate(-90 69.755 402.695)" gradientUnits="userSpaceOnUse"><stop offset="0" stop-color="#695a6a"/><stop offset="1" stop-color="#695a6a" stop-opacity="0"/></linearGradient><linearGradient id="linear-gradient-6" x1=".33" y1="380.19" x2=".33" y2="331.23" gradientTransform="rotate(-90 69.755 402.695)" gradientUnits="userSpaceOnUse"><stop offset="0" stop-color="#322838" stop-opacity=".5"/><stop offset="1" stop-color="#322838"/></linearGradient><clipPath id="clip-path-2"><path class="cls-1" transform="rotate(90 923.26 47.5)" d="M874.76 11h97v73h-97z"/></clipPath><linearGradient id="linear-gradient-7" x1="1167.12" y1="-295.57" x2="1174.96" y2="-295.57" xlink:href="#linear-gradient"/><linearGradient id="linear-gradient-8" x1="1167.18" y1="-284.18" x2="1170.24" y2="-284.18" xlink:href="#linear-gradient"/><linearGradient id="linear-gradient-9" x1="3626.34" y1="771.62" x2="3626.34" y2="806.02" gradientTransform="matrix(0 -1 -1 0 1732.94 3702.89)" xlink:href="#linear-gradient-5"/><linearGradient id="linear-gradient-10" x1="3628.34" y1="806.02" x2="3628.34" y2="771.62" gradientTransform="matrix(0 -1 -1 0 1732.94 3702.89)" xlink:href="#linear-gradient-6"/><linearGradient id="linear-gradient-11" x1="1232.42" y1="-247.9" x2="1241.94" y2="-247.9" xlink:href="#linear-gradient"/><linearGradient id="linear-gradient-12" x1="659.06" y1="-34.98" x2="659.06" y2="-5.83" gradientTransform="matrix(-1 0 0 1 1565.51 35.51)" xlink:href="#linear-gradient-5"/><linearGradient id="linear-gradient-13" x1="659.06" y1="-7.83" x2="659.06" y2="-36.98" gradientTransform="matrix(-1 0 0 1 1565.51 35.51)" gradientUnits="userSpaceOnUse"><stop offset="0" stop-color="#322838" stop-opacity="0"/><stop offset=".14" stop-color="#322838" stop-opacity=".24"/><stop offset=".46" stop-color="#322838" stop-opacity=".66"/><stop offset=".75" stop-color="#322838" stop-opacity=".91"/><stop offset="1" stop-color="#322838"/></linearGradient><clipPath id="clip-path-3"><path class="cls-1" d="M-.33-.63h61v98h-61z"/></clipPath><linearGradient id="linear-gradient-14" x1="1157.51" y1="646.28" x2="1168.96" y2="646.28" xlink:href="#linear-gradient"/><linearGradient id="linear-gradient-15" x1="1155.39" y1="656.86" x2="1176.69" y2="656.86" xlink:href="#linear-gradient"/><linearGradient id="linear-gradient-16" x1="1979.57" y1="304.05" x2="1979.57" y2="338" gradientTransform="rotate(-90 873.975 1178.915)" xlink:href="#linear-gradient-5"/><linearGradient id="linear-gradient-17" x1="1981.57" y1="338" x2="1981.57" y2="304.05" gradientTransform="rotate(-90 873.975 1178.915)" xlink:href="#linear-gradient-6"/><linearGradient id="linear-gradient-18" x1="1416.01" y1="-447.08" x2="1428.85" y2="-447.08" gradientTransform="rotate(180 733.175 -221.73)" xlink:href="#linear-gradient"/><linearGradient id="linear-gradient-19" x1="1220.37" y1="627.11" x2="1229.94" y2="627.11" xlink:href="#linear-gradient"/><linearGradient id="linear-gradient-20" x1="3754.01" y1="1239.75" x2="3754.01" y2="1273.47" gradientTransform="matrix(-1 0 0 1 3796.85 -1241.6)" xlink:href="#linear-gradient-5"/><linearGradient id="linear-gradient-21" x1="3754.01" y1="1271.47" x2="3754.01" y2="1237.75" gradientTransform="matrix(-1 0 0 1 3796.85 -1241.6)" xlink:href="#linear-gradient-13"/><clipPath id="clip-path-4"><path class="cls-1" d="M960 576V407h-80"/></clipPath><linearGradient id="linear-gradient-22" x1="801.62" y1="193.87" x2="822.32" y2="193.87" gradientTransform="rotate(-90 999.09 243.29)" xlink:href="#linear-gradient"/><linearGradient id="linear-gradient-23" x1="718.27" y1="198.95" x2="738.32" y2="198.95" gradientTransform="rotate(-90 999.09 243.29)" xlink:href="#linear-gradient"/><linearGradient id="linear-gradient-24" x1="725.62" y1="187.62" x2="732.94" y2="187.62" gradientTransform="rotate(-90 999.09 243.29)" xlink:href="#linear-gradient"/><linearGradient id="linear-gradient-25" x1="744.38" y1="173.48" x2="753.32" y2="173.48" gradientTransform="rotate(-90 999.09 243.29)" xlink:href="#linear-gradient"/><linearGradient id="linear-gradient-26" x1="805.83" y1="175.75" x2="812.74" y2="175.75" gradientTransform="rotate(-90 999.09 243.29)" xlink:href="#linear-gradient"/><linearGradient id="linear-gradient-27" x1="711.78" y1="199.21" x2="739.32" y2="199.21" gradientTransform="rotate(-90 999.09 243.29)" xlink:href="#linear-gradient"/><linearGradient id="linear-gradient-28" x1="125.39" y1="593.02" x2="125.39" y2="632.19" gradientTransform="rotate(90 621.695 932.245)" xlink:href="#linear-gradient-5"/><linearGradient id="linear-gradient-29" x1="123.39" y1="632.19" x2="123.39" y2="593.02" gradientTransform="rotate(90 621.695 932.245)" xlink:href="#linear-gradient-6"/><linearGradient id="linear-gradient-30" x1="3062.73" y1="592.59" x2="3062.73" y2="637.61" gradientTransform="matrix(0 -1 -1 0 1553.94 3572.89)" xlink:href="#linear-gradient-5"/><linearGradient id="linear-gradient-31" x1="3064.73" y1="637.61" x2="3064.73" y2="592.59" gradientTransform="matrix(0 -1 -1 0 1553.94 3572.89)" xlink:href="#linear-gradient-6"/><linearGradient id="linear-gradient-32" x1="191.91" y1="428.41" x2="191.91" y2="474.6" gradientTransform="rotate(-17.7 85.89 543.677)" xlink:href="#linear-gradient-5"/><linearGradient id="linear-gradient-33" x1="192.4" y1="473.07" x2="192.4" y2="426.87" gradientTransform="rotate(-17.7 85.89 543.677)" xlink:href="#linear-gradient-13"/><linearGradient id="linear-gradient-34" x1="-60.47" y1="571.42" x2="-60.47" y2="541.3" gradientTransform="matrix(-1 0 0 1 126.3 -166)" gradientUnits="userSpaceOnUse"><stop offset="0" stop-color="#322838"/><stop offset="1" stop-color="#322838" stop-opacity="0"/></linearGradient><clipPath id="clip-path-5"><rect class="cls-1" x="156.71" y="376.06" width="59.51" height="29.75" rx="2.98" ry="2.98"/></clipPath><linearGradient id="linear-gradient-35" x1="176.19" y1="384.19" x2="176.19" y2="373" xlink:href="#linear-gradient"/><linearGradient id="linear-gradient-36" x1="289.38" y1="-58.41" x2="289.38" y2="-68.01" gradientTransform="rotate(180 243.375 168.425)" xlink:href="#linear-gradient"/><linearGradient id="linear-gradient-37" x1="3987.34" y1="931.51" x2="3987.34" y2="954.08" gradientTransform="matrix(1 0 0 -1 -3790.64 1338.29)" gradientUnits="userSpaceOnUse"><stop offset="0" stop-color="#695a6a" stop-opacity="0"/><stop offset="1" stop-color="#695a6a"/></linearGradient><linearGradient id="linear-gradient-38" x1="3987.34" y1="955.2" x2="3987.34" y2="932.64" gradientTransform="matrix(1 0 0 -1 -3790.64 1338.29)" xlink:href="#linear-gradient-13"/><clipPath id="clip-path-6"><path class="cls-1" transform="rotate(-73.95 319.787 4.572)" d="M313.02-2.19h13.53v13.53h-13.53z"/></clipPath><linearGradient id="linear-gradient-39" x1="58.25" y1="-23.68" x2="58.25" y2="-5.64" gradientTransform="rotate(16.05 119.892 924.01)" xlink:href="#linear-gradient-4"/><linearGradient id="linear-gradient-40" x1="57.84" y1="-7.06" x2="57.84" y2="-25.1" gradientTransform="rotate(16.05 119.892 924.01)" gradientUnits="userSpaceOnUse"><stop offset="0" stop-color="#322838"/><stop offset=".25" stop-color="#322838" stop-opacity=".91"/><stop offset=".54" stop-color="#322838" stop-opacity=".66"/><stop offset=".86" stop-color="#322838" stop-opacity=".24"/><stop offset="1" stop-color="#322838" stop-opacity="0"/></linearGradient><linearGradient id="linear-gradient-41" x1="223" y1="29.3" x2="223" y2="79.15" gradientTransform="matrix(-1 0 0 1 520.62 -2.23)" xlink:href="#linear-gradient-37"/><linearGradient id="linear-gradient-42" x1="223" y1="77.67" x2="223" y2="27.82" gradientTransform="matrix(-1 0 0 1 520.62 -2.23)" xlink:href="#linear-gradient-13"/><linearGradient id="linear-gradient-43" x1="-287.1" y1="42.39" x2="-287.1" y2="10.92" gradientTransform="matrix(-1 0 0 1 17.54 -.8)" xlink:href="#linear-gradient-34"/><linearGradient id="linear-gradient-44" x1="-21.56" y1="905.87" x2="-21.56" y2="890.91" gradientTransform="rotate(180 141.06 466)" xlink:href="#linear-gradient"/><linearGradient id="linear-gradient-45" x1="-19.07" y1="920.68" x2="-19.07" y2="904.18" gradientTransform="rotate(180 141.06 466)" xlink:href="#linear-gradient"/><linearGradient id="linear-gradient-46" x1="1513.15" y1="888.77" x2="1513.15" y2="915.39" gradientTransform="matrix(1 0 0 -1 -1207.83 932)" xlink:href="#linear-gradient-37"/><linearGradient id="linear-gradient-47" x1="1513.15" y1="916.68" x2="1513.15" y2="890.06" gradientTransform="matrix(1 0 0 -1 -1207.83 932)" xlink:href="#linear-gradient-13"/><linearGradient id="linear-gradient-48" x1="225.23" y1="55.27" x2="225.23" y2="42.83" gradientTransform="matrix(-1 0 0 1 520.62 -2.23)" xlink:href="#linear-gradient"/><clipPath id="clip-path-7"><path class="cls-1" d="M390.22 437.82H412v36.01h-21.78z"/></clipPath><linearGradient id="linear-gradient-49" x1="1054.28" y1="12.32" x2="1054.28" y2="32.56" gradientTransform="matrix(0 1 1 0 377.04 -594.22)" xlink:href="#linear-gradient-5"/><linearGradient id="linear-gradient-50" x1="1052.61" y1="32.56" x2="1052.61" y2="12.32" gradientTransform="matrix(0 1 1 0 377.04 -594.22)" xlink:href="#linear-gradient-6"/><linearGradient id="linear-gradient-51" x1="-298.11" y1="445.18" x2="-298.11" y2="414.67" gradientTransform="matrix(-1 0 0 1 64.93 24.34)" xlink:href="#linear-gradient-34"/><clipPath id="clip-path-8"><rect class="cls-1" x="333.22" y="438.61" width="60.28" height="30.14" rx="3.01" ry="3.01" transform="rotate(180 363.355 453.685)"/></clipPath><linearGradient id="linear-gradient-52" x1="53.75" y1="400.34" x2="53.75" y2="389.01" gradientTransform="rotate(180 213.755 430.43)" xlink:href="#linear-gradient"/><linearGradient id="linear-gradient-53" x1="56.35" y1="427.48" x2="56.35" y2="416.3" gradientTransform="rotate(180 213.755 430.43)" xlink:href="#linear-gradient"/><linearGradient id="linear-gradient-54" x1="149" y1="-212.68" x2="149" y2="-221.29" gradientTransform="rotate(90 -68.54 234.84)" xlink:href="#linear-gradient"/><linearGradient id="linear-gradient-55" x1="4127" y1="778.56" x2="4127" y2="799.66" gradientTransform="matrix(0 -1 -1 0 1167.75 4580.77)" xlink:href="#linear-gradient-5"/><linearGradient id="linear-gradient-56" x1="4128.01" y1="799.66" x2="4128.01" y2="778.56" gradientTransform="matrix(0 -1 -1 0 1167.75 4580.77)" xlink:href="#linear-gradient-13"/><linearGradient id="linear-gradient-57" x1="11.95" y1="94.71" x2="11.95" y2="63.23" gradientTransform="matrix(-1 0 0 1 273.42 -8.44)" xlink:href="#linear-gradient-34"/><clipPath id="clip-path-9"><rect class="cls-1" x="230.7" y="54.38" width="62.19" height="31.09" rx="3.11" ry="3.11" transform="rotate(180 261.795 69.925)"/></clipPath><linearGradient id="linear-gradient-58" x1="363.46" y1="751.1" x2="363.46" y2="739.41" gradientTransform="rotate(180 318 414.035)" xlink:href="#linear-gradient"/><linearGradient id="linear-gradient-59" x1="366.15" y1="779.1" x2="366.15" y2="767.56" gradientTransform="rotate(180 318 414.035)" xlink:href="#linear-gradient"/><linearGradient id="linear-gradient-60" x1="3350.75" y1="1442.33" x2="3350.75" y2="1494.98" gradientTransform="rotate(158.62 1941.091 480.145)" xlink:href="#linear-gradient-5"/><linearGradient id="linear-gradient-61" x1="3350.19" y1="1496.42" x2="3350.19" y2="1443.77" gradientTransform="rotate(158.62 1941.091 480.145)" xlink:href="#linear-gradient-13"/><clipPath id="clip-path-10"><path class="cls-1" d="M123.4 402.22h21.5v35.55h-21.5z"/></clipPath><linearGradient id="linear-gradient-62" x1="1119.29" y1="-660.23" x2="1119.29" y2="-640.25" gradientTransform="matrix(0 -1 -1 0 -514.49 1538.41)" xlink:href="#linear-gradient-5"/><linearGradient id="linear-gradient-63" x1="1120.94" y1="-640.25" x2="1120.94" y2="-660.23" gradientTransform="matrix(0 -1 -1 0 -514.49 1538.41)" xlink:href="#linear-gradient-6"/><linearGradient id="linear-gradient-64" x1="-130.06" y1="412.32" x2="-130.06" y2="382.2" gradientTransform="matrix(-1 0 0 1 -11.57 22.49)" xlink:href="#linear-gradient-34"/><clipPath id="clip-path-11"><path class="cls-1" transform="rotate(180 108.16 424.07)" d="M95.48 413.57h25.37v20.99H95.48z"/></clipPath><linearGradient id="linear-gradient-65" x1="-115.75" y1="71.61" x2="-115.75" y2="91.74" gradientTransform="rotate(180 -5.785 255.215)" gradientUnits="userSpaceOnUse"><stop offset="0" stop-color="#594858" stop-opacity="0"/><stop offset="1" stop-color="#594858"/></linearGradient><linearGradient id="linear-gradient-66" x1="-115.75" y1="93.88" x2="-115.75" y2="73.74" gradientTransform="rotate(180 -5.785 255.215)" gradientUnits="userSpaceOnUse"><stop offset="0" stop-color="#322838" stop-opacity="0"/><stop offset="1" stop-color="#322838"/></linearGradient></defs><title>Game 1.8 export</title><g class="cls-2"><g id="Background"><path class="cls-3" d="M0 540V0h960v540" id="bg"/><g class="cls-4" id="bottom_left" data-name="bottom left"><path class="cls-3" d="M11.83 486.83L17.4 494l30.12-1.21-19.31-11.73-6.55-2.23-9.83 8z"/><path class="cls-5" d="M11.83 486.83L17.4 494l30.12-1.21-19.31-11.73-6.55-2.23-9.83 8z"/><path class="cls-3" d="M-5 479.82l2.4 5.18 7.11 4.7 9.35-1.48 7.82-10.98-13.47-5.18L-2 474.65l-3 5.17z"/><path class="cls-6" d="M-5 479.82l2.4 5.18 7.11 4.7 9.35-1.48 7.82-10.98-13.47-5.18L-2 474.65l-3 5.17z"/><path class="cls-3" d="M-2 497.82l1.1 4.96 26.41-.78-8.11-8-6.19-3.94L1 492.65l-3 5.17z"/><path class="cls-7" d="M-2 497.82l1.1 4.96 26.41-.78-8.11-8-6.19-3.94L1 492.65l-3 5.17z"/><path class="cls-3" d="M17.27 475.65l-15.95-2.1-1.5-3.23v-20.47l.75 2.84 16.2-12.2.5 35.16z"/><path class="cls-8" d="M17.27 475.65l-15.95-2.1-1.5-3.23v-20.47l.75 2.84 16.2-12.2.5 35.16z"/><path class="cls-9" d="M1 500.43a14.21 14.21 0 0 1 5-5.68l1-.55a6.4 6.4 0 0 1 6.61.46l8.78 6.87a13.56 13.56 0 0 0 7.12 2.47h5.05c2.2 0 2.25-.41.11-.92l-5.16-1.22a18.29 18.29 0 0 1-6.85-3.61l-5.86-5.34c-1.63-1.48-1.75-3.4-.27-4.25a16.68 16.68 0 0 0 4.4-4c.94-1.33 3.25-1.47 5.12-.32l1.69 1a73.68 73.68 0 0 0 7.06 3.72l9.05 4c2 .9 2.14.65.29-.53l-8.64-5.55a17.15 17.15 0 0 1-4.88-4.87c-.83-1.49-.72-3 .26-3.44a7.34 7.34 0 0 0 3.12-3.74 3.36 3.36 0 0 1 4-2.26c1.58.46 4.2-.38 5.81-1.87l2.44-2.25c1.62-1.49 1.39-1.8-.5-.68l-1.44.85a10.14 10.14 0 0 1-7.25.8h-.07a4.09 4.09 0 0 0-5.11 2.33 7.42 7.42 0 0 1-5.33 4.15l-.44.07a11.63 11.63 0 0 1-6.4-.73 26.54 26.54 0 0 0-6.37-2.17L7.47 472c-2.16-.43-4.36-2-4.9-3.55a18.62 18.62 0 0 1-.57-6.69l.24-2.29a12.54 12.54 0 0 1 3.33-6.72l7.58-7.15c1.6-1.51 1.37-1.82-.52-.68l-8.12 4.88c-1.89 1.13-4 .82-4.61-.7s-1.17-1-1.16 1.24l.13 28.28c0 2.2.86 2.41 1.89.46l.44-.84c1-1.95 2.86-3.54 4.07-3.54a34.85 34.85 0 0 1 6.1.91l1 .24c2.14.5 4.45 1.84 5.12 3a5 5 0 0 1 .24 4.14c-.54 1.14-2.61 2.83-4.6 3.77l-6 2.81a7.16 7.16 0 0 1-6.37-.2c-1.51-1-2.64-.1-2.51 2.09l.57 9.35c.13 2.2 1 2.34 1.83.32z"/><path class="cls-10" d="M1 498.43a14.21 14.21 0 0 1 5-5.68l1-.55a6.4 6.4 0 0 1 6.61.46l8.78 6.87a13.56 13.56 0 0 0 7.12 2.47h5.05c2.2 0 2.25-.41.11-.92l-5.16-1.22a18.29 18.29 0 0 1-6.85-3.61l-5.86-5.34c-1.63-1.48-1.75-3.4-.27-4.25a16.68 16.68 0 0 0 4.4-4c.94-1.33 3.25-1.47 5.12-.32l1.69 1a73.68 73.68 0 0 0 7.06 3.72l9.05 4c2 .9 2.14.65.29-.53l-8.64-5.55a17.15 17.15 0 0 1-4.88-4.87c-.83-1.49-.72-3 .26-3.44a7.34 7.34 0 0 0 3.12-3.74 3.36 3.36 0 0 1 4-2.26c1.58.46 4.2-.38 5.81-1.87l2.44-2.25c1.62-1.49 1.39-1.8-.5-.68l-1.44.85a10.14 10.14 0 0 1-7.25.8h-.07a4.09 4.09 0 0 0-5.11 2.33 7.42 7.42 0 0 1-5.33 4.15l-.44.07a11.63 11.63 0 0 1-6.4-.73 26.54 26.54 0 0 0-6.37-2.17L7.47 470c-2.16-.43-4.36-2-4.9-3.55a18.62 18.62 0 0 1-.57-6.69l.24-2.29a12.54 12.54 0 0 1 3.33-6.72l7.58-7.15c1.6-1.51 1.37-1.82-.52-.68l-8.12 4.88c-1.89 1.13-4 .82-4.61-.7s-1.17-1-1.16 1.24l.13 28.28c0 2.2.86 2.41 1.89.46l.44-.84c1-1.95 2.86-3.54 4.07-3.54a34.85 34.85 0 0 1 6.1.91l1 .24c2.14.5 4.45 1.84 5.12 3a5 5 0 0 1 .24 4.14c-.54 1.14-2.61 2.83-4.6 3.77l-6 2.81a7.16 7.16 0 0 1-6.37-.2c-1.51-1-2.64-.1-2.51 2.09l.57 9.35c.13 2.2 1 2.34 1.83.32z"/><path class="cls-11" d="M1 498.43a14.21 14.21 0 0 1 5-5.68l1-.55a6.4 6.4 0 0 1 6.61.46l8.78 6.87a13.56 13.56 0 0 0 7.12 2.47h5.05c2.2 0 2.25-.41.11-.92l-5.16-1.22a18.29 18.29 0 0 1-6.85-3.61l-5.86-5.34c-1.63-1.48-1.75-3.4-.27-4.25a16.68 16.68 0 0 0 4.4-4c.94-1.33 3.25-1.47 5.12-.32l1.69 1a73.68 73.68 0 0 0 7.06 3.72l9.05 4c2 .9 2.14.65.29-.53l-8.64-5.55a17.15 17.15 0 0 1-4.88-4.87c-.83-1.49-.72-3 .26-3.44a7.34 7.34 0 0 0 3.12-3.74 3.36 3.36 0 0 1 4-2.26c1.58.46 4.2-.38 5.81-1.87l2.44-2.25c1.62-1.49 1.39-1.8-.5-.68l-1.44.85a10.14 10.14 0 0 1-7.25.8h-.07a4.09 4.09 0 0 0-5.11 2.33 7.42 7.42 0 0 1-5.33 4.15l-.44.07a11.63 11.63 0 0 1-6.4-.73 26.54 26.54 0 0 0-6.37-2.17L7.47 470c-2.16-.43-4.36-2-4.9-3.55a18.62 18.62 0 0 1-.57-6.69l.24-2.29a12.54 12.54 0 0 1 3.33-6.72l7.58-7.15c1.6-1.51 1.37-1.82-.52-.68l-8.12 4.88c-1.89 1.13-4 .82-4.61-.7s-1.17-1-1.16 1.24l.13 28.28c0 2.2.86 2.41 1.89.46l.44-.84c1-1.95 2.86-3.54 4.07-3.54a34.85 34.85 0 0 1 6.1.91l1 .24c2.14.5 4.45 1.84 5.12 3a5 5 0 0 1 .24 4.14c-.54 1.14-2.61 2.83-4.6 3.77l-6 2.81a7.16 7.16 0 0 1-6.37-.2c-1.51-1-2.64-.1-2.51 2.09l.57 9.35c.13 2.2 1 2.34 1.83.32z"/><path class="cls-12 cls-13" d="M.29 489.36a8.32 8.32 0 0 0 3.77.83 9.51 9.51 0 0 0 4-.84l5.94-2.78a3.91 3.91 0 0 0-.42 1.39 4.64 4.64 0 0 0 .52 2.6 8.48 8.48 0 0 0-4.19-1.07 7.75 7.75 0 0 0-3.89 1L5 491a16 16 0 0 0-4.39 4.11zm29.21-7.24l-.7-.42-1.69-1a7.18 7.18 0 0 0-3.69-1.07 5.13 5.13 0 0 0-3.52 1.27 7.12 7.12 0 0 0-.67-5 4.66 4.66 0 0 0-.5-.69 11.89 11.89 0 0 0 5.47 1.13 13.72 13.72 0 0 0 2.24-.17l.44-.07a9.12 9.12 0 0 0 4.18-2 3.62 3.62 0 0 1-.93.89 3.25 3.25 0 0 0-1.82 2 5.32 5.32 0 0 0 .59 4.28 9.24 9.24 0 0 0 .6.85zM.83 467.51a8 8 0 0 0 3.32 3.37 7.72 7.72 0 0 0-3.29 2.36zm-.08-17.25a5 5 0 0 0 1.49.22 5.77 5.77 0 0 0 1-.08A15.86 15.86 0 0 0 .77 455z"/><path class="cls-13" d="M-1.51 450.18c.29-1.06.79-1.37 1.11-.69s1.4.84 2.4.37l4.77-2.3c1-.48 1.17-.23.4.56l-9.84 10c-.77.78-1.16.56-.87-.5z"/><path class="cls-14" d="M-1.53 462.37c.11-1.09.41-1.12.67 0l1.06 4.4a6 6 0 0 0 2.12 3.08l2.58 1.77c.91.62.89 1.22 0 1.32a4.9 4.9 0 0 0-2.9 1.74l-2.11 2.85c-.65.88-1.29.71-1.41-.38l-.55-4.84a22.57 22.57 0 0 1 0-4zM-2.33 489.66a1.3 1.3 0 0 1 1.88-1.31l2.25.83a8.22 8.22 0 0 0 3.83.28l4.86-1c1.08-.23 1.15 0 .15.45l-6.26 3a8.24 8.24 0 0 0-2.88 2.55l-2.76 4.35c-.59.93-1.07.79-1.07-.31v-8.82z"/></g><g class="cls-15" id="top_right" data-name="top right"><path class="cls-3" d="M951.58 71.88l9.18 10.25 1.88-8.66-4.88-7.84-6.18 6.25z"/><path class="cls-16" d="M951.58 71.88l9.18 10.25 1.88-8.66-4.88-7.84-6.18 6.25z"/><path class="cls-3" d="M937.34 77.38l16.78.5-5.34-6.44-11.44 5.94z"/><path class="cls-17" d="M937.34 77.38l16.78.5-5.34-6.44-11.44 5.94z"/><path class="cls-18" d="M956.89 86.25a40.52 40.52 0 0 0-3.89-6.94l-1.91-2.63a4.7 4.7 0 0 0-5.86-1.33s-7.43 4-7.92 4-1.72-2.15-1.72-2.15a5 5 0 0 0-5.75-2.13l-1.22.43c-2.07.74-2.32.27-.56-1l2.45-1.82a4.29 4.29 0 0 1 5.59.21 4.43 4.43 0 0 0 5.65.3l4.21-3c1.8-1.26 4.86-3.16 6.79-4.21l2.73-1.48a11.32 11.32 0 0 0 4.66-5.11c.63-1.76 1.15-1.4 1.15.8V71.3c0 2.2-.89 2.46-2 .57s-3.07-2.49-4.4-1.33-1.35 3.54 0 5.29l2.54 3.38c1.32 1.76 2.73 3 3.13 2.66s.72 1.27.72 3.47v7.72c0 2.2-.68 2.33-1.52.3z"/><path class="cls-10" d="M956.89 84.25a40.52 40.52 0 0 0-3.89-6.94l-1.91-2.63a4.7 4.7 0 0 0-5.86-1.33s-7.43 4-7.92 4-1.72-2.15-1.72-2.15a5 5 0 0 0-5.75-2.13l-1.22.43c-2.07.74-2.32.27-.56-1l2.45-1.82a4.29 4.29 0 0 1 5.59.21 4.43 4.43 0 0 0 5.65.3l4.21-3c1.8-1.26 4.86-3.16 6.79-4.21l2.73-1.48a11.32 11.32 0 0 0 4.66-5.11c.63-1.76 1.15-1.4 1.15.8V69.3c0 2.2-.89 2.46-2 .57s-3.07-2.49-4.4-1.33-1.35 3.54 0 5.29l2.54 3.38c1.32 1.76 2.73 3 3.13 2.66s.72 1.27.72 3.47v7.72c0 2.2-.68 2.33-1.52.3z"/><path class="cls-19" d="M956.89 84.25a40.52 40.52 0 0 0-3.89-6.94l-1.91-2.63a4.7 4.7 0 0 0-5.86-1.33s-7.43 4-7.92 4-1.72-2.15-1.72-2.15a5 5 0 0 0-5.75-2.13l-1.22.43c-2.07.74-2.32.27-.56-1l2.45-1.82a4.29 4.29 0 0 1 5.59.21 4.43 4.43 0 0 0 5.65.3l4.21-3c1.8-1.26 4.86-3.16 6.79-4.21l2.73-1.48a11.32 11.32 0 0 0 4.66-5.11c.63-1.76 1.15-1.4 1.15.8V69.3c0 2.2-.89 2.46-2 .57s-3.07-2.49-4.4-1.33-1.35 3.54 0 5.29l2.54 3.38c1.32 1.76 2.73 3 3.13 2.66s.72 1.27.72 3.47v7.72c0 2.2-.68 2.33-1.52.3z"/><path class="cls-12 cls-13" d="M958.74 83.5a38.21 38.21 0 0 0-2-4 8.34 8.34 0 0 0 2.46 2.07 15.2 15.2 0 0 1 .09 1.73v1.58zM937.82 75c-.17-.25-.34-.53-.47-.76s-.21-.34-.32-.5a6.4 6.4 0 0 0 2 .31 6.84 6.84 0 0 0 .74 0zm14.4-2.11a6.7 6.7 0 0 0-4.87-2 6.52 6.52 0 0 0-2.07.33l1.86-1.3c1.72-1.21 4.74-3.08 6.6-4.08l2.73-1.48a12.82 12.82 0 0 0 2.86-2.18v4.78a4.84 4.84 0 0 0-2.83-.96 4.31 4.31 0 0 0-2.86 1 5.5 5.5 0 0 0-1.42 5.88z"/><path class="cls-14" d="M961.76 87.63c0 1.1-.39 1.19-.88.2l-7.49-15.39c-.48-1-.33-1.08.33-.2l4.95 6.57c.66.88 1.63 1 2.15.33s.94-.37.94.73v7.76zM961.76 66.34c0 1.1-.45 1.28-1 .39a2.69 2.69 0 0 0-2.91-1l-7.17 2.17c-1.05.32-1.13.14-.17-.41l6.79-3.86a6.52 6.52 0 0 0 2.46-2.85l1.3-3.37c.39-1 .72-1 .72.13v8.82z"/><path class="cls-3" d="M901.63 4.5l5.88 13.78 9.75-14.52-2.01-5.49h-10.07l-3.55 6.23z"/><path class="cls-20" d="M901.63 4.5l5.88 13.78 9.75-14.52-2.01-5.49h-10.07l-3.55 6.23z"/><path class="cls-21" d="M923.56 2.12a13.11 13.11 0 0 0-5 4.78l-3.31 5.72a18.45 18.45 0 0 1-3.84 4.76c-1 .72-2.27 3-2.8 5.18l-1.32 5.55c-.52 2.14-1.07 2.09-1.22-.1l-.4-5.71a17.72 17.72 0 0 0-1.33-5.85 25.3 25.3 0 0 1-1.83-5.78l-.56-2.57c-.43-2.16-1.73-4.26-2.88-4.67a55.57 55.57 0 0 0-6-1.52l-3.13-.62c-2.16-.43-2.12-.77.08-.76l15.69.08c2.2 0 2.61 1 .9 2.14a6.41 6.41 0 0 0-2.33 6l.22 1.12c.42 2.16 1.49 4.34 2.36 4.85A3.84 3.84 0 0 0 910 15c.87-.41 2.35-2.37 3.28-4.36l1.32-2.8c.94-2 1.06-4.39.26-5.33s.36-1.7 2.56-1.7h5.16c2.22-.01 2.66.59.98 1.31z"/><path class="cls-22" d="M923.56.12a13.11 13.11 0 0 0-5 4.78l-3.31 5.72a18.45 18.45 0 0 1-3.84 4.76c-1 .72-2.27 3-2.8 5.18l-1.32 5.55c-.52 2.14-1.07 2.09-1.22-.1l-.4-5.71a17.72 17.72 0 0 0-1.33-5.85 25.3 25.3 0 0 1-1.83-5.78l-.56-2.57c-.43-2.16-1.73-4.26-2.88-4.67a55.57 55.57 0 0 0-6-1.52l-3.13-.62c-2.16-.43-2.12-.77.08-.76l15.69.08c2.2 0 2.61 1 .9 2.14a6.41 6.41 0 0 0-2.33 6l.22 1.12c.42 2.16 1.49 4.34 2.36 4.85A3.84 3.84 0 0 0 910 13c.87-.41 2.35-2.37 3.28-4.36l1.32-2.8c.94-2 1.06-4.39.26-5.33s.36-1.7 2.56-1.7h5.16c2.22-.01 2.66.59.98 1.31z"/><path class="cls-23" d="M923.56.12a13.11 13.11 0 0 0-5 4.78l-3.31 5.72a18.45 18.45 0 0 1-3.84 4.76c-1 .72-2.27 3-2.8 5.18l-1.32 5.55c-.52 2.14-1.07 2.09-1.22-.1l-.4-5.71a17.72 17.72 0 0 0-1.33-5.85 25.3 25.3 0 0 1-1.83-5.78l-.56-2.57c-.43-2.16-1.73-4.26-2.88-4.67a55.57 55.57 0 0 0-6-1.52l-3.13-.62c-2.16-.43-2.12-.77.08-.76l15.69.08c2.2 0 2.61 1 .9 2.14a6.41 6.41 0 0 0-2.33 6l.22 1.12c.42 2.16 1.49 4.34 2.36 4.85A3.84 3.84 0 0 0 910 13c.87-.41 2.35-2.37 3.28-4.36l1.32-2.8c.94-2 1.06-4.39.26-5.33s.36-1.7 2.56-1.7h5.16c2.22-.01 2.66.59.98 1.31z"/><path class="cls-12 cls-13" d="M907.35 17.92a21.68 21.68 0 0 0-.72-3 6.08 6.08 0 0 0 2.06.35h.12a13.9 13.9 0 0 0-1.46 2.65zm10-15a7 7 0 0 0-.15-2.14h2.06A16.15 16.15 0 0 0 917.38 3zm-14.59-.34a8.47 8.47 0 0 0-1.47-2h2.59a8.61 8.61 0 0 0-1.09 2.04z"/><path class="cls-13" d="M914-.73a4.42 4.42 0 0 1 2.58 1.49l.05.06a2 2 0 0 0 2.81.14l.36-.33a5.64 5.64 0 0 1 3.25-1.35H914zM894.5-.73a13.74 13.74 0 0 1 3.85.67l.48.17a6.36 6.36 0 0 1 2.86 2.29c.53.89 1.06 1.11 1.16.49a4.7 4.7 0 0 1 1.8-2.28l.25-.18a6.21 6.21 0 0 1 2.81-1.16H894.5z"/></g><g class="cls-24" id="top_left" data-name="top left"><path class="cls-3" d="M-2.83 94.87l36.19-1.22V79.84l-8.68-4.49-4.64 3.08-7.39-7.62-15.48 24.06z"/><path class="cls-25" d="M-2.83 94.87l36.19-1.22V79.84l-8.68-4.49-4.64 3.08-7.39-7.62-15.48 24.06z"/><path class="cls-3" d="M-.9 73.67L-.79 87l11.05-15.63-4.75-5.68-6.41 7.98z"/><path class="cls-26" d="M-.9 73.67L-.79 87l11.05-15.63-4.75-5.68-6.41 7.98z"/><path class="cls-27" d="M4.22 86.48a63.92 63.92 0 0 1 4.18-6.8l1.91-2.63a3.39 3.39 0 0 1 5.23-.47s4 3.85 4.51 3.85a5.58 5.58 0 0 0 1.78-1.28 5.37 5.37 0 0 1 6.25-.71l3.38 2.08c1.87 1.15 2.14.82.59-.74l-3.55-3.57c-1.55-1.56-4.09-2.19-5.64-1.4s-4 .12-5.55-1.48l-6.6-7c-1.5-1.6-4-2.95-5.45-3s-3.17-1.8-3.73-3.93L.12 54c-.56-2.13-1-2.07-1 .13v17.54c0 2.2 1.09 2.56 2.41.81L2.64 71C4 69.25 5.92 68.75 7 69.91s.91 3.58-.33 5.4l-2.86 4.16C2.57 81.29 1 82.31.33 81.74s-1.22.77-1.22 3v7.72c0 2.2.82 2.4 1.83.44z"/><path class="cls-10" d="M4.22 84.48a63.92 63.92 0 0 1 4.18-6.8l1.91-2.63a3.39 3.39 0 0 1 5.23-.47s4 3.85 4.51 3.85a5.58 5.58 0 0 0 1.78-1.28 5.37 5.37 0 0 1 6.25-.71l3.38 2.08c1.87 1.15 2.14.82.59-.74l-3.55-3.57c-1.55-1.56-4.09-2.19-5.64-1.4s-4 .12-5.55-1.48l-6.6-7c-1.5-1.6-4-2.95-5.45-3s-3.17-1.8-3.73-3.93L.12 52c-.56-2.13-1-2.07-1 .13v17.54c0 2.2 1.09 2.56 2.41.81L2.64 69C4 67.25 5.92 66.75 7 67.91s.91 3.58-.33 5.4l-2.86 4.16C2.57 79.29 1 80.31.33 79.74s-1.22.77-1.22 3v7.72c0 2.2.82 2.4 1.83.44z"/><path class="cls-28" d="M4.22 84.48a63.92 63.92 0 0 1 4.18-6.8l1.91-2.63a3.39 3.39 0 0 1 5.23-.47s4 3.85 4.51 3.85a5.58 5.58 0 0 0 1.78-1.28 5.37 5.37 0 0 1 6.25-.71l3.38 2.08c1.87 1.15 2.14.82.59-.74l-3.55-3.57c-1.55-1.56-4.09-2.19-5.64-1.4s-4 .12-5.55-1.48l-6.6-7c-1.5-1.6-4-2.95-5.45-3s-3.17-1.8-3.73-3.93L.12 52c-.56-2.13-1-2.07-1 .13v17.54c0 2.2 1.09 2.56 2.41.81L2.64 69C4 67.25 5.92 66.75 7 67.91s.91 3.58-.33 5.4l-2.86 4.16C2.57 79.29 1 80.31.33 79.74s-1.22.77-1.22 3v7.72c0 2.2.82 2.4 1.83.44z"/><path class="cls-12 cls-13" d="M1.1 82.7v-.83a6.35 6.35 0 0 0 3.76-2.47c-.91 1.45-1.81 3-2.41 4.16L1.1 86.17V82.7zm19-6.7c-.48-.41-1.11-1-1.77-1.57a7.45 7.45 0 0 0 2.79.68 6.34 6.34 0 0 0-.7.59zM8.5 74.13c1.6-2.58 1.6-5.79 0-7.58a3.92 3.92 0 0 0-2.92-1.27 5.82 5.82 0 0 0-4.48 2.43v-6.77a5.63 5.63 0 0 0 4.1 2.36 7.93 7.93 0 0 1 4 2.35L15.18 72a5.34 5.34 0 0 0-2.07-.42 5.43 5.43 0 0 0-4.42 2.32z"/><path class="cls-3" d="M50.34-.63l-9.51 8.5L37.5.44l3.85-1.07h8.99z"/><path class="cls-29" d="M50.34-.63l-9.51 8.5L37.5.44l3.85-1.07h8.99z"/><path class="cls-3" d="M29.83 14.37l-4 16h7.69l4.58-6.13 4.4-2.19.54-4.62-5.12-7.17-8.09 4.11z"/><path class="cls-30" d="M29.83 14.37l-4 16h7.69l4.58-6.13 4.4-2.19.54-4.62-5.12-7.17-8.09 4.11z"/><path class="cls-31" d="M53.73 3.79c-1.8 1.27-4.62 3.49-6.28 4.94l-1.54 1.34a8.21 8.21 0 0 0-2.45 6.59s1.12 7.8 1.12 8.29-3.19 1.3-3.19 1.3a12.45 12.45 0 0 0-6.16 4.27l-.07.11c-1.26 1.81-1.58 1.63-.72-.4l1-2.25c.86-2 2.68-4 4-4.42s1.88-2.43 1.14-4.5l-.93-2.6A3.15 3.15 0 0 0 35 14.53a12.15 12.15 0 0 0-4.58 5.61L26.93 30c-.74 2.07-1 2-.64-.17l1.88-10.51a12.9 12.9 0 0 1 3.76-6.51l2.23-1.88C35.84 9.5 36.85 7 36.39 5.39A12 12 0 0 0 32.9.29c-1.46-1.18-.9-2.14 1.34-2.14h6.2c2.2 0 2.75 1.3 1.23 2.89l-.17.17c-1.52 1.59-2 4-1 5.32s3.08 1.22 4.71-.26l2.19-2C49 2.81 50 .82 49.48-.13s.94-1.72 3.14-1.72h5.07c2.2 0 2.53 1 .74 2.31z"/><path class="cls-22" d="M53.73 1.79c-1.8 1.27-4.62 3.49-6.28 4.94l-1.54 1.34a8.21 8.21 0 0 0-2.45 6.59s1.12 7.8 1.12 8.29-3.19 1.3-3.19 1.3a12.45 12.45 0 0 0-6.16 4.27l-.07.11c-1.26 1.81-1.58 1.63-.72-.4l1-2.25c.86-2 2.68-4 4-4.42s1.88-2.43 1.14-4.5l-.93-2.6A3.15 3.15 0 0 0 35 12.53a12.15 12.15 0 0 0-4.58 5.61L26.93 28c-.74 2.07-1 2-.64-.17l1.88-10.51a12.9 12.9 0 0 1 3.76-6.51l2.23-1.88C35.84 7.5 36.85 5 36.39 3.39a12 12 0 0 0-3.49-5.1c-1.46-1.18-.9-2.14 1.34-2.14h6.2c2.2 0 2.75 1.3 1.23 2.89l-.17.17c-1.52 1.59-2 4-1 5.32s3.08 1.22 4.71-.26l2.19-2C49 .81 50-1.18 49.48-2.13s.94-1.72 3.14-1.72h5.07c2.2 0 2.53 1 .74 2.31z"/><path class="cls-32" d="M53.73 1.79c-1.8 1.27-4.62 3.49-6.28 4.94l-1.54 1.34a8.21 8.21 0 0 0-2.45 6.59s1.12 7.8 1.12 8.29-3.19 1.3-3.19 1.3a12.45 12.45 0 0 0-6.16 4.27l-.07.11c-1.26 1.81-1.58 1.63-.72-.4l1-2.25c.86-2 2.68-4 4-4.42s1.88-2.43 1.14-4.5l-.93-2.6A3.15 3.15 0 0 0 35 12.53a12.15 12.15 0 0 0-4.58 5.61L26.93 28c-.74 2.07-1 2-.64-.17l1.88-10.51a12.9 12.9 0 0 1 3.76-6.51l2.23-1.88C35.84 7.5 36.85 5 36.39 3.39a12 12 0 0 0-3.49-5.1c-1.46-1.18-.9-2.14 1.34-2.14h6.2c2.2 0 2.75 1.3 1.23 2.89l-.17.17c-1.52 1.59-2 4-1 5.32s3.08 1.22 4.71-.26l2.19-2C49 .81 50-1.18 49.48-2.13s.94-1.72 3.14-1.72h5.07c2.2 0 2.53 1 .74 2.31z"/><path class="cls-12 cls-13" d="M42 22a4.34 4.34 0 0 0 .32-.53v-.08l.06.48zm-.61-8.47a5.25 5.25 0 0 0-4.82-3.41 4.94 4.94 0 0 0-.84.07A8.77 8.77 0 0 0 38.45 5a4.3 4.3 0 0 0 .4.68 4.31 4.31 0 0 0 3.56 1.77 5.44 5.44 0 0 0 1.5-.21 10.52 10.52 0 0 0-2.5 6.28zM38 2a14.48 14.48 0 0 0-2.4-3.85h4.17A7.44 7.44 0 0 0 38 2zm12.44-.31a6 6 0 0 0 1.12-3.48 5.73 5.73 0 0 1 1-.08h2.84l-2.83 2c-.57.46-1.34 1-2.1 1.58z"/><path class="cls-14" d="M67-4.67c1.1 0 1.12.25.05.49l-1.87.44a15.59 15.59 0 0 0-3.67 1.47L47.29 6.15c-.95.56-1.12.35-.39-.48L51.39.62a3.79 3.79 0 0 0 .68-3.39l-.12-.34A1.31 1.31 0 0 1 53.3-5zM35.5-3.28c-1.1.06-1.4.8-.68 1.62l5.39 6.15c.72.83 1 .68.52-.33l-.6-1.38a2.34 2.34 0 0 1 .92-2.86L45.91-3c.94-.56.82-1-.28-.91zM-.53 96.75c.11 1.09.19 1.09.19 0V95c0-1.1.07-2.9.15-4L0 88.36a8.74 8.74 0 0 1 1.3-3.64l4.53-6.55c.63-.9.45-1.06-.38-.35l-4.26 3.65c-.84.71-1.91.91-2.38.43s-.81.03-.66 1.1zM-1 71.68c0 1.1.62 1.26 1.25.32l3.85-5.49a1.78 1.78 0 0 1 2.67-.33l1.16 1a3.3 3.3 0 0 0 2.37 1c.47-.17.21-.93-.58-1.7L8.59 65.4a15.54 15.54 0 0 0-3.22-2.29L1 60.93a4.5 4.5 0 0 1-2.14-2.86L-1.86 54c-.19-1.08-.3-1.07-.23 0z"/></g><g class="cls-33" id="bottom_left-2" data-name="bottom left"><path class="cls-3" d="M961 440.11l-6.6.65-9.25-2.54-6.81-8.98 15.46-9.18 6.81 3.49.39 16.56z"/><path class="cls-34" d="M961 440.11l-6.6.65-9.25-2.54-6.81-8.98 15.46-9.18 6.81 3.49.39 16.56z"/><path class="cls-3" d="M961 524.11l-2.89-5.71-9.61-10.04 5.3-4.3 6.81 3.49.39 16.56z"/><path class="cls-35" d="M961 524.11l-2.89-5.71-9.61-10.04 5.3-4.3 6.81 3.49.39 16.56z"/><path class="cls-3" d="M934.85 515.52l12.16-6.08 4.99 7.32-17.15-1.24z"/><path class="cls-36" d="M934.85 515.52l12.16-6.08 4.99 7.32-17.15-1.24z"/><path class="cls-3" d="M944.22 498h-29.88l15.46-8.94 6.81 3.49 7.61 5.45z"/><path class="cls-37" d="M944.22 498h-29.88l15.46-8.94 6.81 3.49 7.61 5.45z"/><path class="cls-3" d="M921.5 436.25l7.72-6.6 7.97 2.21 4.42 4.69-20.11-.3z"/><path class="cls-38" d="M921.5 436.25l7.72-6.6 7.97 2.21 4.42 4.69-20.11-.3z"/><path class="cls-3" d="M963 523.11l-1 7.49-14.99-21.16 8.79-6.38 6.81 3.49.39 16.56z"/><path class="cls-39" d="M963 523.11l-1 7.49-14.99-21.16 8.79-6.38 6.81 3.49.39 16.56z"/><path class="cls-40" d="M958.53 414.51a12 12 0 0 1-5 5.53l-9.16 4.61c-2 1-3.79 2.52-4.06 3.4s-2.28 1.55-4.48 1.49l-1.89-.05a10.92 10.92 0 0 0-6.87 2.67l-4.18 4.06c-1.58 1.53-1.46 1.66.26.29l3-2.36a8.83 8.83 0 0 1 7-1.42l.27.07a15.34 15.34 0 0 1 6.44 4.12 13.46 13.46 0 0 0 6.51 3.84l5.87 1.18a6.86 6.86 0 0 1 4.86 4.68l3 12.2c.52 2.14.93 2.09.92-.11l-.12-23.33c0-2.2-.86-2.41-1.89-.46l-.44.84c-1 1.95-2.86 3.54-4.07 3.54a34.85 34.85 0 0 1-6.1-.91l-1-.24c-2.14-.5-4.45-1.84-5.12-3a5 5 0 0 1-.25-4.14c.54-1.14 2.61-2.83 4.6-3.77l6-2.81c2-.93 4.63-.84 5.87.2s2.24.1 2.24-2.1v-9.33c0-2.2-.66-2.32-1.45-.27z"/><path class="cls-10" d="M958.53 412.51a12 12 0 0 1-5 5.53l-9.16 4.61c-2 1-3.79 2.52-4.06 3.4s-2.28 1.55-4.48 1.49l-1.89-.05a10.92 10.92 0 0 0-6.87 2.67l-4.18 4.06c-1.58 1.53-1.46 1.66.26.29l3-2.36a8.83 8.83 0 0 1 7-1.42l.27.07a15.34 15.34 0 0 1 6.44 4.12 13.46 13.46 0 0 0 6.51 3.84l5.87 1.18a6.86 6.86 0 0 1 4.86 4.68l3 12.2c.52 2.14.93 2.09.92-.11l-.12-23.33c0-2.2-.86-2.41-1.89-.46l-.44.84c-1 1.95-2.86 3.54-4.07 3.54a34.85 34.85 0 0 1-6.1-.91l-1-.24c-2.14-.5-4.45-1.84-5.12-3a5 5 0 0 1-.25-4.14c.54-1.14 2.61-2.83 4.6-3.77l6-2.81c2-.93 4.63-.84 5.87.2s2.24.1 2.24-2.1v-9.33c0-2.2-.66-2.32-1.45-.27z"/><path class="cls-41" d="M958.53 412.51a12 12 0 0 1-5 5.53l-9.16 4.61c-2 1-3.79 2.52-4.06 3.4s-2.28 1.55-4.48 1.49l-1.89-.05a10.92 10.92 0 0 0-6.87 2.67l-4.18 4.06c-1.58 1.53-1.46 1.66.26.29l3-2.36a8.83 8.83 0 0 1 7-1.42l.27.07a15.34 15.34 0 0 1 6.44 4.12 13.46 13.46 0 0 0 6.51 3.84l5.87 1.18a6.86 6.86 0 0 1 4.86 4.68l3 12.2c.52 2.14.93 2.09.92-.11l-.12-23.33c0-2.2-.86-2.41-1.89-.46l-.44.84c-1 1.95-2.86 3.54-4.07 3.54a34.85 34.85 0 0 1-6.1-.91l-1-.24c-2.14-.5-4.45-1.84-5.12-3a5 5 0 0 1-.25-4.14c.54-1.14 2.61-2.83 4.6-3.77l6-2.81c2-.93 4.63-.84 5.87.2s2.24.1 2.24-2.1v-9.33c0-2.2-.66-2.32-1.45-.27z"/><path class="cls-12 cls-13" d="M958.85 443.66a9 9 0 0 0-3.53-4.49 7.49 7.49 0 0 0 3.5-2.42zm-19.18-11.61a19.19 19.19 0 0 0-4-2.52h.45a10.34 10.34 0 0 0 3.73-.66 7.14 7.14 0 0 0-.17 3.18zm18.92-11.59a7.25 7.25 0 0 0-3.12-.65 9.31 9.31 0 0 0-1.17.08l.12-.06a13.53 13.53 0 0 0 4.17-3.57v4.21z"/><path class="cls-42" d="M955.44 524.11a63.92 63.92 0 0 0-4.18-6.8l-1.91-2.63a4.61 4.61 0 0 0-5.83-1.28s-7.27 4.08-7.76 4.08-3.39-2.75-3.39-2.75a8 8 0 0 0-6.24-2c-1.84.39-1.75-.15.18-1.19l.57-.31a7.5 7.5 0 0 1 6.76.09 6.31 6.31 0 0 0 6.47-.36l3.66-2.67a3.3 3.3 0 0 0 .39-5.17l-9.09-9a6 6 0 0 0-6.42-1l-10.77 5.4c-2 1-2.11.75-.31-.52l12.14-8.61a5 5 0 0 1 6.15.45l12.6 12.08c1.59 1.52 4.21 2.32 5.84 1.77a9.62 9.62 0 0 0 4.6-4.2c.91-1.76 1.75-1.41 1.87.79l.56 10.09c.12 2.2-.87 2.56-2.19.8l-1.14-1.54c-1.33-1.75-3.51-2.25-4.84-1.09s-1.35 3.54 0 5.29l2.54 3.38c1.32 1.76 3 2.73 3.63 2.16s1.22.77 1.22 3v7.72c0 2.2-.82 2.4-1.83.44z"/><path class="cls-10" d="M955.44 522.11a63.92 63.92 0 0 0-4.18-6.8l-1.91-2.63a4.61 4.61 0 0 0-5.83-1.28s-7.27 4.08-7.76 4.08-3.39-2.75-3.39-2.75a8 8 0 0 0-6.24-2c-1.84.39-1.75-.15.18-1.19l.57-.31a7.5 7.5 0 0 1 6.76.09 6.31 6.31 0 0 0 6.47-.36l3.66-2.67a3.3 3.3 0 0 0 .39-5.17l-9.09-9a6 6 0 0 0-6.42-1l-10.77 5.4c-2 1-2.11.75-.31-.52l12.14-8.61a5 5 0 0 1 6.15.45l12.6 12.08c1.59 1.52 4.21 2.32 5.84 1.77a9.62 9.62 0 0 0 4.6-4.2c.91-1.76 1.75-1.41 1.87.79l.56 10.09c.12 2.2-.87 2.56-2.19.8l-1.14-1.54c-1.33-1.75-3.51-2.25-4.84-1.09s-1.35 3.54 0 5.29l2.54 3.38c1.32 1.76 3 2.73 3.63 2.16s1.22.77 1.22 3v7.72c0 2.2-.82 2.4-1.83.44z"/><path class="cls-43" d="M955.44 522.11a63.92 63.92 0 0 0-4.18-6.8l-1.91-2.63a4.61 4.61 0 0 0-5.83-1.28s-7.27 4.08-7.76 4.08-3.39-2.75-3.39-2.75a8 8 0 0 0-6.24-2c-1.84.39-1.75-.15.18-1.19l.57-.31a7.5 7.5 0 0 1 6.76.09 6.31 6.31 0 0 0 6.47-.36l3.66-2.67a3.3 3.3 0 0 0 .39-5.17l-9.09-9a6 6 0 0 0-6.42-1l-10.77 5.4c-2 1-2.11.75-.31-.52l12.14-8.61a5 5 0 0 1 6.15.45l12.6 12.08c1.59 1.52 4.21 2.32 5.84 1.77a9.62 9.62 0 0 0 4.6-4.2c.91-1.76 1.75-1.41 1.87.79l.56 10.09c.12 2.2-.87 2.56-2.19.8l-1.14-1.54c-1.33-1.75-3.51-2.25-4.84-1.09s-1.35 3.54 0 5.29l2.54 3.38c1.32 1.76 3 2.73 3.63 2.16s1.22.77 1.22 3v7.72c0 2.2-.82 2.4-1.83.44z"/><path class="cls-12 cls-13" d="M957.22 521.19c-.52-1-1.25-2.29-2-3.55a6 6 0 0 0 3.34 1.87v4.29zm-21.27-8c-.46-.38-1.12-1-1.77-1.55a8.15 8.15 0 0 0 2.32.33 8.84 8.84 0 0 0 2.39-.33 76.7 76.7 0 0 1-2.94 1.59zm14.51-2.35a6.62 6.62 0 0 0-4.8-2 6.36 6.36 0 0 0-3.11.8l-.19.11 2.61-1.9a5.43 5.43 0 0 0 2.27-4 5.33 5.33 0 0 0-.9-3.35l.77.74a9.25 9.25 0 0 0 6.06 2.5 5.63 5.63 0 0 0 1.8-.28 10.52 10.52 0 0 0 4-2.73l.29 5.14a5.93 5.93 0 0 0-4.3-2 4.57 4.57 0 0 0-3 1.11 5.5 5.5 0 0 0-1.5 5.9zm-15.81-21.53a8.29 8.29 0 0 0-2.86-.79 3.17 3.17 0 0 1 .71-.08 3 3 0 0 1 2 .73z"/><path class="cls-14" d="M963.08 528.6c0 1.1-.54 1.22-1.1.28l-8.42-14.22c-.56-.95-.39-1.08.39-.3l5.23 5.3a1.24 1.24 0 0 0 2.18-.42l1.57-3.73c.43-1 .74-.94.69.16zM964.44 498.83c.24-1.07-.33-1.49-1.28-.92l-9.77 5.89c-.94.57-.84.83.23.58l2-.48a2.77 2.77 0 0 1 2.9 1.3l2.19 4c.52 1 1.15.88 1.39-.19zM960 445.38c0 .55-.18.59-.4.08l-1.7-3.92a2 2 0 0 0-1.39-1L953 440c-.55-.07-.55-.22 0-.33l3-.62a3 3 0 0 0 1.56-1l2-2.75c.32-.45.58-.36.58.19v9.88zM961.73 424a.5.5 0 0 1-.85.44l-4.06-2.75a2 2 0 0 0-1.75-.16l-6.75 2.92c-.5.22-.55.14-.09-.17l8-5.47a5.8 5.8 0 0 0 1.36-1.41l3.83-6c.3-.46.53-.39.52.16z"/></g><g id="cracks"><path class="cls-3" d="M655.58 372.39l-3.97 4.71 3.17 1.53.8-6.24z"/><path class="cls-14" d="M655.58 372.39l3.95 8.61h-4.9l.95-8.61z"/><path class="cls-3" d="M359.56 303.39l3.97 4.3-3.25 1.37-.72-5.67z"/><path class="cls-14" d="M359.56 303.39l-3.56 8.24 4.28-1.17-.72-7.07z"/><path class="cls-3" d="M309.28 340.21l-.29 5.85 3.36-1.03-3.07-4.82z"/><path class="cls-14" d="M309.28 340.21l9.32 6.17-5.35-.27-3.97-5.9z"/><path class="cls-44" d="M383.57 198.39l-2.96 5.71 1.7 5.75 1.26-11.46z"/><path class="cls-10" d="M383.57 198.39l1.96 4.83-2.9 3.78.94-8.61z"/><path class="cls-44" d="M590.31 298.47l1.83 4.91-3 4-1-5 2.17-3.91z"/><path class="cls-10" d="M590.31 298.47l-4.31 6.91 2.63 1.59 1.68-8.5z"/><path class="cls-44" d="M280.56 261.39l2.97 5.71-1.71 5.75-1.26-11.46z"/><path class="cls-10" d="M280.56 261.39l-1.95 4.83 2.9 3.78-.95-8.61z"/><path class="cls-44" d="M668.58 261.39l-2.97 5.71 1.7 5.75 1.27-11.46z"/><path class="cls-10" d="M668.58 261.39l1.95 4.83-2.9 3.78.95-8.61z"/></g><g id="mask_for_wings" data-name="mask for wings"><path class="cls-13" d="M571 254.38h4l1.42-5H575l-4 5zM379.21 254.38h-4l-1.42-5h1.42l4 5z"/></g></g><g id="Background_-_Stones_-_Small" data-name="Background - Stones - Small"><path class="cls-45" d="M128.5 410.81a11.8 11.8 0 0 1 6.07.8l15.43 7.27a4.09 4.09 0 0 1 2.13 4.49l-2 7.94c-.43 1.71-1.15 4.51-1.61 6.22l-2.52 9.54c-.46 1.71-.23 1.79.51.19l2.73-5.91a2.06 2.06 0 0 1 3.59-.62l1.37 1.4c1.23 1.27 1.55 1 .7-.52l-2.24-4.1a8.21 8.21 0 0 1-.47-5.85l2.64-7.43c.59-1.67 1.78-2.58 2.65-2a12 12 0 0 0 4.4 1.25 10.79 10.79 0 0 1 5.22 2.39 65.51 65.51 0 0 1 4.86 4.66c.15.46 7.05.33 7.05.33a9.58 9.58 0 0 1 5.62 2.06l.24.21a9.46 9.46 0 0 1 2.81 4.53c.22 1.32.82 1.13 1.32-.42a4.12 4.12 0 0 0-1.8-4.49 17.64 17.64 0 0 1-4-3.29c-.69-.89-2.68-1.43-4.43-1.19l-2 .27a4.88 4.88 0 0 1-4.66-2.42l-.87-1.68a9.79 9.79 0 0 1-.89-5.57 34.08 34.08 0 0 0 .59-5.93v-2.69a11.58 11.58 0 0 1 1.89-5.81l7.91-10.85c1-1.43.73-1.73-.68-.68l-16.66 12.4c-1.42 1.06-1.13 2 .63 2.11h.26c1.76.11 3.5 1.12 3.87 2.26a10.27 10.27 0 0 1 .26 4.22 9.63 9.63 0 0 1-2 3.93 7.61 7.61 0 0 1-3.89 2.11 12.16 12.16 0 0 1-5.24-.9l-17.13-7.11a2.31 2.31 0 0 1-1-3.73c1.07-1.38.57-2.06-1.12-1.52l-14.34 4.58c-1.68.54-1.64.72.1.4z"/><path class="cls-10" d="M128.5 409.2a11.8 11.8 0 0 1 6.07.8l15.43 7.28a4.09 4.09 0 0 1 2.13 4.49l-2 7.94c-.43 1.71-1.15 4.51-1.61 6.22l-2.52 9.53c-.46 1.71-.23 1.79.51.19l2.73-5.91a2.06 2.06 0 0 1 3.59-.62l1.37 1.4c1.23 1.27 1.55 1 .7-.52l-2.24-4.1a8.21 8.21 0 0 1-.47-5.85l2.64-7.43c.59-1.67 1.78-2.58 2.65-2a12 12 0 0 0 4.4 1.25 10.79 10.79 0 0 1 5.22 2.39 65.51 65.51 0 0 1 4.9 4.64c.15.46 7.05.33 7.05.33a9.58 9.58 0 0 1 5.62 2.06l.24.21a9.46 9.46 0 0 1 2.81 4.53c.22 1.32.82 1.13 1.32-.42a4.12 4.12 0 0 0-1.8-4.49 17.64 17.64 0 0 1-4-3.29c-.69-.89-2.68-1.43-4.43-1.19l-2 .27a4.88 4.88 0 0 1-4.66-2.42l-.87-1.68a9.79 9.79 0 0 1-.89-5.57 34.08 34.08 0 0 0 .59-5.93v-2.69a11.58 11.58 0 0 1 1.89-5.81l7.94-10.81c1-1.43.73-1.73-.68-.68l-16.66 12.4c-1.42 1.06-1.13 2 .63 2.11h.26c1.76.11 3.5 1.12 3.87 2.26a10.27 10.27 0 0 1 .26 4.22 9.63 9.63 0 0 1-2 3.93 7.61 7.61 0 0 1-3.89 2.11 12.16 12.16 0 0 1-5.24-.9l-17.13-7.11a2.31 2.31 0 0 1-1-3.73c1.07-1.38.57-2.06-1.12-1.52l-14.34 4.58c-1.68.54-1.64.72.1.4z"/><path class="cls-46" d="M128.5 409.2a11.8 11.8 0 0 1 6.07.8l15.43 7.28a4.09 4.09 0 0 1 2.13 4.49l-2 7.94c-.43 1.71-1.15 4.51-1.61 6.22l-2.52 9.53c-.46 1.71-.23 1.79.51.19l2.73-5.91a2.06 2.06 0 0 1 3.59-.62l1.37 1.4c1.23 1.27 1.55 1 .7-.52l-2.24-4.1a8.21 8.21 0 0 1-.47-5.85l2.64-7.43c.59-1.67 1.78-2.58 2.65-2a12 12 0 0 0 4.4 1.25 10.79 10.79 0 0 1 5.22 2.39 65.51 65.51 0 0 1 4.9 4.64c.15.46 7.05.33 7.05.33a9.58 9.58 0 0 1 5.62 2.06l.24.21a9.46 9.46 0 0 1 2.81 4.53c.22 1.32.82 1.13 1.32-.42a4.12 4.12 0 0 0-1.8-4.49 17.64 17.64 0 0 1-4-3.29c-.69-.89-2.68-1.43-4.43-1.19l-2 .27a4.88 4.88 0 0 1-4.66-2.42l-.87-1.68a9.79 9.79 0 0 1-.89-5.57 34.08 34.08 0 0 0 .59-5.93v-2.69a11.58 11.58 0 0 1 1.89-5.81l7.94-10.81c1-1.43.73-1.73-.68-.68l-16.66 12.4c-1.42 1.06-1.13 2 .63 2.11h.26c1.76.11 3.5 1.12 3.87 2.26a10.27 10.27 0 0 1 .26 4.22 9.63 9.63 0 0 1-2 3.93 7.61 7.61 0 0 1-3.89 2.11 12.16 12.16 0 0 1-5.24-.9l-17.13-7.11a2.31 2.31 0 0 1-1-3.73c1.07-1.38.57-2.06-1.12-1.52l-14.34 4.58c-1.68.54-1.64.72.1.4z"/><path class="cls-12 cls-13" d="M150.53 434.79a7.82 7.82 0 0 0 .71 1.89h-.11a3.42 3.42 0 0 0-1.2.21zm20.39-9.25c-.7-.65-1.6-1.47-2.75-2.5a12.43 12.43 0 0 0-6.15-2.79 12.56 12.56 0 0 1-2.46-.5 12.93 12.93 0 0 0 2.33.24 6.4 6.4 0 0 0 .91-.06 9.17 9.17 0 0 0 4.85-2.62 10.64 10.64 0 0 0 1.49-2.22c-.08.69-.18 1.33-.29 1.81a11.25 11.25 0 0 0 1 6.65l.87 1.68zm-17-4.63a5.81 5.81 0 0 0-1.43-3.77l4.13 1.71a4 4 0 0 0-2.75 2.06zm-18.62-12.37a9.35 9.35 0 0 0-1.29-.48l3.2-1a3.8 3.8 0 0 0 0 2.07 3.65 3.65 0 0 0 .12.37zm34.29-1.46a6 6 0 0 0-4.23-2.77l9.86-7.33-3.56 4.89a13.38 13.38 0 0 0-2.11 5.21z"/><g id="bg-2" data-name="bg"><path class="cls-47" d="M160.62 375.88h51.63v29.53h-51.63z"/><path class="cls-3" d="M160.62 375.88h51.63v29.53h-51.63z"/></g><path class="cls-48" d="M163.27 399.52V375.3h-2.68v30.12h50.69l1.68-1.65V375.3h-2.15v24.22h-47.54z"/><g class="cls-49"><path class="cls-50" d="M179.24 384.19l-3.33-1.41-4.76-9.78 10.07 4.75-1.98 6.44z"/><path class="cls-14" d="M160.25 368.43c-.32-.12-.34-.08 0 .09l7.44 4a3.57 3.57 0 0 1 .93.79l6.94 8.94c.21.27.25.24.1-.06l-4.95-9.6a1.84 1.84 0 0 0-.87-.77z"/></g><path class="cls-51" d="M201.93 395.25l3.23 5.13-1.85 2.68-1.46 1.8-9.15-.33-3.12-.01.63-1.62 11.72-7.65z"/><path class="cls-52" d="M190.67 401.31a43.46 43.46 0 0 0 3.79-2.4l3.86-2.8a5.47 5.47 0 0 0 2-3.56l.05-.78a4.59 4.59 0 0 0-1.65-3.58l-4.2-3.12c-1-.74-.83-1.07.36-.74l5.75 1.6a3 3 0 0 1 2.07 2.85l-.17 4.22a8.66 8.66 0 0 0 1.09 4.16l2.6 4.22a12.37 12.37 0 0 0 3 3.16l1.54 1c1 .69.85 1.25-.38 1.25h-9.57c-1.24 0-1.48-.66-.55-1.47l2.26-2a2.26 2.26 0 0 0 .23-3.17l-.52-.6a2.44 2.44 0 0 0-3.26-.35l-4.45 3.35a3 3 0 0 0-1.35 2.77c.24.78-.57 1.42-1.81 1.42h-8.45c-1.24 0-1.36-.49-.28-1.08z"/><path class="cls-10" d="M190.67 400.19a43.46 43.46 0 0 0 3.79-2.4l3.86-2.8a5.47 5.47 0 0 0 2-3.56l.05-.78a4.59 4.59 0 0 0-1.65-3.58l-4.2-3.12c-1-.74-.83-1.07.36-.74l5.75 1.6a3 3 0 0 1 2.07 2.85l-.17 4.17a8.66 8.66 0 0 0 1.09 4.16l2.6 4.22a12.37 12.37 0 0 0 3 3.16l1.54 1c1 .69.85 1.25-.38 1.25h-9.57c-1.24 0-1.48-.66-.55-1.47l2.26-2a2.26 2.26 0 0 0 .23-3.17l-.52-.6a2.44 2.44 0 0 0-3.26-.35l-4.45 3.35a3 3 0 0 0-1.35 2.77c.24.78-.57 1.42-1.81 1.42h-8.45c-1.24 0-1.36-.49-.28-1.08z"/><path class="cls-53" d="M190.67 400.19a43.46 43.46 0 0 0 3.79-2.4l3.86-2.8a5.47 5.47 0 0 0 2-3.56l.05-.78a4.59 4.59 0 0 0-1.65-3.58l-4.2-3.12c-1-.74-.83-1.07.36-.74l5.75 1.6a3 3 0 0 1 2.07 2.85l-.17 4.17a8.66 8.66 0 0 0 1.09 4.16l2.6 4.22a12.37 12.37 0 0 0 3 3.16l1.54 1c1 .69.85 1.25-.38 1.25h-9.57c-1.24 0-1.48-.66-.55-1.47l2.26-2a2.26 2.26 0 0 0 .23-3.17l-.52-.6a2.44 2.44 0 0 0-3.26-.35l-4.45 3.35a3 3 0 0 0-1.35 2.77c.24.78-.57 1.42-1.81 1.42h-8.45c-1.24 0-1.36-.49-.28-1.08z"/><path class="cls-12 cls-54" d="M201.62 404.53l1.68-1.46a3.38 3.38 0 0 0 .34-4.75l-.52-.6a3.57 3.57 0 0 0-4.79-.51l-4.45 3.35a4.19 4.19 0 0 0-1.8 3.83 1.55 1.55 0 0 1-.69.13h-6.31l6.13-3.36a44.41 44.41 0 0 0 3.91-2.47l3.86-2.8a6.57 6.57 0 0 0 2.43-4.27v.16a9.79 9.79 0 0 0 1.26 4.79l2.6 4.22a13.43 13.43 0 0 0 3.38 3.5l.34.23h-7.36zm-.15-14.42a5.72 5.72 0 0 0-2.09-3.93l-1.15-.86 2.09.58a1.88 1.88 0 0 1 1.25 1.72z"/><path class="cls-14" d="M181.2 407.18c-.31 0-.34-.12-.07-.27l13-7.07c.27-.15.29-.12 0 .07l-7.13 5.38a.4.4 0 0 0 0 .67l1.19.88c.25.18.2.33-.11.33h-6.88zM201 407.18c-.31 0-.35-.13-.08-.3l1.69-1.05a5.35 5.35 0 0 1 1-.47l1.3-.41a1.75 1.75 0 0 1 1.09.05l4.5 1.95c.28.12.26.22 0 .22H201z"/><g class="cls-55"><path class="cls-44" d="M325.88-2.85c1.57.45 1.68 1.47.26 2.26L323.9.66a7.9 7.9 0 0 0-3.33 4 18 18 0 0 0-.47 5.52l.14 1.51a1.69 1.69 0 0 1-2.49 1.87l-3.05-1.19c-1.52-.59-1.74-1.4-.49-1.8a5.51 5.51 0 0 0 3-3.58l.53-2a14.72 14.72 0 0 0 .15-5.76l-.38-1.81a1.63 1.63 0 0 1 2.23-2.08z"/><path class="cls-56" d="M325.88-2.85c1.57.45 1.68 1.47.26 2.26L323.9.66a7.9 7.9 0 0 0-3.33 4 18 18 0 0 0-.47 5.52l.14 1.51a1.69 1.69 0 0 1-2.49 1.87l-3.05-1.19c-1.52-.59-1.74-1.4-.49-1.8a5.51 5.51 0 0 0 3-3.58l.53-2a14.72 14.72 0 0 0 .15-5.76l-.38-1.81a1.63 1.63 0 0 1 2.23-2.08z"/><path class="cls-10" d="M325.88-4.33c1.57.45 1.68 1.47.26 2.26l-2.23 1.24a7.9 7.9 0 0 0-3.33 4 18 18 0 0 0-.47 5.52l.14 1.51a1.69 1.69 0 0 1-2.49 1.87l-3.05-1.19c-1.52-.59-1.74-1.4-.49-1.8a5.51 5.51 0 0 0 3-3.58l.53-2a14.72 14.72 0 0 0 .15-5.76L317.54-4a1.63 1.63 0 0 1 2.23-2.08z"/><path class="cls-57" d="M325.88-4.33c1.57.45 1.68 1.47.26 2.26l-2.23 1.24a7.9 7.9 0 0 0-3.33 4 18 18 0 0 0-.47 5.52l.14 1.51a1.69 1.69 0 0 1-2.49 1.87l-3.05-1.19c-1.52-.59-1.74-1.4-.49-1.8a5.51 5.51 0 0 0 3-3.58l.53-2a14.72 14.72 0 0 0 .15-5.76L317.54-4a1.63 1.63 0 0 1 2.23-2.08z"/><path class="cls-12 cls-13" d="M318.68 10.79a1.09 1.09 0 0 1-.38-.09l-2.3-.9a7.48 7.48 0 0 0 2.63-3.74 17.92 17.92 0 0 0 0 2.77l.14 1.51a.82.82 0 0 1 0 .46zm.87-9a15.78 15.78 0 0 0-.18-4.27L319-4.32a1 1 0 0 1 0-.4 1.23 1.23 0 0 1 .34.06l5.53 1.59-1.71 1a9.63 9.63 0 0 0-3.6 3.83z"/><path class="cls-14" d="M309.5 12.41c-.4-.07-.41-.21 0-.32l5.28-1.49a3.06 3.06 0 0 0 1.22-.74l1.57-1.72c.27-.3.56-.22.63.18l.42 2.29a3.73 3.73 0 0 0 .58 1.32l1.32 1.76c.24.33.12.54-.29.47z"/></g><path class="cls-58" d="M311.25 43.18a7.62 7.62 0 0 0-4.62 2.82l-1 1.49a4.93 4.93 0 0 0-.13 5l4 6.42 3.11 5 5.36 8.67c.86 1.39.69 1.5-.36.26L313 67.49a1.82 1.82 0 0 0-3.24.39l-.81 1.61c-.73 1.46-1.07 1.34-.76-.26L309 65a7.56 7.56 0 0 0-1.23-5.26l-4.4-5.74c-1-1.3-2.29-1.76-2.9-1a21 21 0 0 1-3.34 2.87 15.62 15.62 0 0 0-3.74 4.1 60.37 60.37 0 0 0-3 5.45c0 .44-6.1 2.26-6.1 2.26A8.83 8.83 0 0 0 280 71l-.15.25a8.71 8.71 0 0 0-1.2 4.76c.18 1.22-.4 1.22-1.28 0a3.8 3.8 0 0 1 .32-4.44 16.26 16.26 0 0 0 2.55-4c.35-1 2-2 3.56-2.29l1.8-.28a4.5 4.5 0 0 0 3.4-3.47l.29-1.72a9 9 0 0 0-.78-5.14 31.41 31.41 0 0 1-2.18-5l-.75-2.36c-.5-1.55-1.36-4.07-1.92-5.6l-4.83-13.22c-.56-1.53-.08-1.83 1.06-.67l11.66 11.89a1.81 1.81 0 0 1-.69 3.18l-.22.09c-1.52.59-2.76 2-2.76 3.07a9.47 9.47 0 0 0 1 3.78 8.87 8.87 0 0 0 2.87 2.89 4.68 4.68 0 0 0 3.83.22 12.47 12.47 0 0 0 3.71-3.25l2.16-2.84c1-1.3.79-2.86-.44-3.47s-.9-1.11.73-1.11h13.87c1.63 0 1.64.17 0 .38z"/><path class="cls-10" d="M311.25 41.7a7.62 7.62 0 0 0-4.62 2.82l-1 1.49a4.93 4.93 0 0 0-.13 5l4 6.42 3.11 5 5.36 8.67c.86 1.39.69 1.5-.36.26L313 66a1.82 1.82 0 0 0-3.24.39l-.82 1.61c-.73 1.46-1.07 1.34-.76-.26l.82-4.21a7.56 7.56 0 0 0-1.23-5.26l-4.4-5.79c-1-1.3-2.29-1.76-2.9-1a21 21 0 0 1-3.34 2.87 15.62 15.62 0 0 0-3.74 4.1 60.37 60.37 0 0 0-3 5.45c0 .44-6.1 2.26-6.1 2.26a8.83 8.83 0 0 0-4.29 3.35l-.15.25a8.71 8.71 0 0 0-1.2 4.76c.18 1.22-.4 1.22-1.28 0a3.8 3.8 0 0 1 .32-4.44 16.26 16.26 0 0 0 2.55-4c.35-1 2-2 3.56-2.29l1.83-.32a4.5 4.5 0 0 0 3.37-3.42l.29-1.72a9 9 0 0 0-.78-5.14 31.41 31.41 0 0 1-2.18-5l-.75-2.36c-.5-1.55-1.36-4.07-1.92-5.6L278.84 27c-.56-1.53-.08-1.83 1.06-.67l11.66 11.89a1.81 1.81 0 0 1-.69 3.18l-.22.09c-1.52.59-2.76 2-2.76 3.07a9.47 9.47 0 0 0 1 3.78 8.87 8.87 0 0 0 2.87 2.89 4.68 4.68 0 0 0 3.83.22 12.47 12.47 0 0 0 3.71-3.25l2.16-2.84c1-1.3.79-2.86-.44-3.47s-.9-1.11.73-1.11h13.87c1.63 0 1.64.17 0 .38z"/><path class="cls-59" d="M311.25 41.7a7.62 7.62 0 0 0-4.62 2.82l-1 1.49a4.93 4.93 0 0 0-.13 5l4 6.42 3.11 5 5.36 8.67c.86 1.39.69 1.5-.36.26L313 66a1.82 1.82 0 0 0-3.24.39l-.82 1.61c-.73 1.46-1.07 1.34-.76-.26l.82-4.21a7.56 7.56 0 0 0-1.23-5.26l-4.4-5.79c-1-1.3-2.29-1.76-2.9-1a21 21 0 0 1-3.34 2.87 15.62 15.62 0 0 0-3.74 4.1 60.37 60.37 0 0 0-3 5.45c0 .44-6.1 2.26-6.1 2.26a8.83 8.83 0 0 0-4.29 3.35l-.15.25a8.71 8.71 0 0 0-1.2 4.76c.18 1.22-.4 1.22-1.28 0a3.8 3.8 0 0 1 .32-4.44 16.26 16.26 0 0 0 2.55-4c.35-1 2-2 3.56-2.29l1.83-.32a4.5 4.5 0 0 0 3.37-3.42l.29-1.72a9 9 0 0 0-.78-5.14 31.41 31.41 0 0 1-2.18-5l-.75-2.36c-.5-1.55-1.36-4.07-1.92-5.6L278.84 27c-.56-1.53-.08-1.83 1.06-.67l11.66 11.89a1.81 1.81 0 0 1-.69 3.18l-.22.09c-1.52.59-2.76 2-2.76 3.07a9.47 9.47 0 0 0 1 3.78 8.87 8.87 0 0 0 2.87 2.89 4.68 4.68 0 0 0 3.83.22 12.47 12.47 0 0 0 3.71-3.25l2.16-2.84c1-1.3.79-2.86-.44-3.47s-.9-1.11.73-1.11h13.87c1.63 0 1.64.17 0 .38z"/><path class="cls-12 cls-13" d="M310.46 63.81a7.18 7.18 0 0 0 .1-1.79l1 1.69h-.16a3 3 0 0 0-1 .17v-.07zm-20.05-3.19q0-.16.06-.32l.29-1.72a10.37 10.37 0 0 0-1-6.13c-.23-.4-.49-.93-.76-1.51a9.81 9.81 0 0 0 2 1.53 6.07 6.07 0 0 0 3 .73 5.35 5.35 0 0 0 2.24-.45 13.69 13.69 0 0 0 4.26-3.69l2.16-2.84a4.15 4.15 0 0 0 .84-3.43 3.48 3.48 0 0 0-.18-.56h3.53a7.37 7.37 0 0 0-1.36 1.45l-1 1.49a6.51 6.51 0 0 0-.66 5.51 3.82 3.82 0 0 0-2.48-1.07 2.43 2.43 0 0 0-1.89.87 19.81 19.81 0 0 1-3 2.61 17.06 17.06 0 0 0-4.17 4.57c-.89 1.22-1.45 2.19-1.88 2.96zm-3.92-16.82c-.47-1.4-1-3-1.43-4.11l-3.49-9.56 8.93 9.11a.69.69 0 0 1 .26.46.69.69 0 0 1-.43.31l-.22.09a5.89 5.89 0 0 0-3.62 3.69z"/><g id="bg-3" data-name="bg"><path class="cls-60" d="M278.01 10.12h53.96v30.86h-53.96z"/><path class="cls-3" d="M278.01 10.12h53.96v30.86h-53.96z"/></g><path class="cls-61" d="M280.07 35.43V10.12h-2.81v31.47h52.98l1.76-1.72V10.12h-2.26v25.31h-49.67z"/><path class="cls-62" d="M302.94 28.15l2.68-2.02 4.92 2.34 1.02 10.56-1.67 2.06-10.5-.37-3.58-.01.72-1.86 6.41-10.7z"/><path class="cls-63" d="M300.36 13.33l2.68-2.01 4.92 2.33 1.02 10.57-1.67 2.06-4.98 1.54-8.94-5.55.4-4.19 6.57-4.75z"/><path class="cls-64" d="M292.87 41.5a8.71 8.71 0 0 0 3.59-3.29l2.88-5.31a3 3 0 0 0-.89-3.74l-7.56-5.24a23.19 23.19 0 0 1-3.77-3.44l-2.27-2.71c-.91-1.09-.61-1.48.68-.88l7.26 3.4c1.28.6 2.16 1.58 2 2.17s.6 1.7 1.79 2.47l3.42 2.22a3.8 3.8 0 0 0 3.9.16 15.69 15.69 0 0 0 3.17-3.36l.61-2.81c.54-1.31 1.13-1.23 1.29.18l.3 2.56a13.92 13.92 0 0 0 1.29 4.31 17.65 17.65 0 0 1 1.5 4.28l1 4.78a4.64 4.64 0 0 0 2.48 3.23 39.2 39.2 0 0 0 4.5 1.2l5.31 1.06c1.39.28 1.37.5 0 .49L308 43.14c-1.42 0-1.62-.67-.45-1.47l1.6-1.09a4.25 4.25 0 0 0 1.63-4l-.67-3.42a5.67 5.67 0 0 0-2-3.41 4.13 4.13 0 0 0-1.83-.73l-1.49.7a7 7 0 0 0-2.27 2.88l-2.27 4.82a4 4 0 0 0 .26 3.94c.75.89.2 1.61-1.22 1.61h-7.28c-1.42 0-1.51-.47-.21-1z"/><path class="cls-10" d="M292.87 40.22a8.71 8.71 0 0 0 3.59-3.29l2.88-5.31a3 3 0 0 0-.89-3.74l-7.56-5.24a23.19 23.19 0 0 1-3.77-3.44l-2.27-2.71c-.91-1.09-.61-1.48.68-.88l7.26 3.4c1.28.6 2.16 1.58 2 2.17s.6 1.7 1.79 2.47l3.42 2.21a3.8 3.8 0 0 0 3.9.16 15.69 15.69 0 0 0 3.17-3.36l.61-2.81c.54-1.31 1.13-1.23 1.29.18l.3 2.56a13.92 13.92 0 0 0 1.29 4.31 17.65 17.65 0 0 1 1.5 4.28L313 36a4.64 4.64 0 0 0 2.48 3.23 39.2 39.2 0 0 0 4.5 1.2l5.31 1.06c1.39.28 1.37.5 0 .49L308 41.85c-1.42 0-1.62-.67-.45-1.47l1.6-1.09a4.25 4.25 0 0 0 1.63-4l-.67-3.42a5.67 5.67 0 0 0-2-3.41 4.13 4.13 0 0 0-1.83-.73l-1.49.7a7 7 0 0 0-2.27 2.88l-2.27 4.82a4 4 0 0 0 .26 3.94c.75.89.2 1.61-1.22 1.61h-7.28c-1.42 0-1.51-.47-.21-1z"/><path class="cls-65" d="M292.87 40.22a8.71 8.71 0 0 0 3.59-3.29l2.88-5.31a3 3 0 0 0-.89-3.74l-7.56-5.24a23.19 23.19 0 0 1-3.77-3.44l-2.27-2.71c-.91-1.09-.61-1.48.68-.88l7.26 3.4c1.28.6 2.16 1.58 2 2.17s.6 1.7 1.79 2.47l3.42 2.21a3.8 3.8 0 0 0 3.9.16 15.69 15.69 0 0 0 3.17-3.36l.61-2.81c.54-1.31 1.13-1.23 1.29.18l.3 2.56a13.92 13.92 0 0 0 1.29 4.31 17.65 17.65 0 0 1 1.5 4.28L313 36a4.64 4.64 0 0 0 2.48 3.23 39.2 39.2 0 0 0 4.5 1.2l5.31 1.06c1.39.28 1.37.5 0 .49L308 41.85c-1.42 0-1.62-.67-.45-1.47l1.6-1.09a4.25 4.25 0 0 0 1.63-4l-.67-3.42a5.67 5.67 0 0 0-2-3.41 4.13 4.13 0 0 0-1.83-.73l-1.49.7a7 7 0 0 0-2.27 2.88l-2.27 4.82a4 4 0 0 0 .26 3.94c.75.89.2 1.61-1.22 1.61h-7.28c-1.42 0-1.51-.47-.21-1z"/><path class="cls-12 cls-54" d="M309.6 40.57l.32-.22a5.5 5.5 0 0 0 2.1-3.22 5.69 5.69 0 0 0 3 3.27l.58.19zm-14.6-.16a9.84 9.84 0 0 0 2.58-2.87l2.88-5.31a4.28 4.28 0 0 0-1-5.16 5.49 5.49 0 0 0 2.69.7 4.42 4.42 0 0 0 2-.43 8.22 8.22 0 0 0-2.79 3.45l-2.27 4.82a5.48 5.48 0 0 0 .09 4.81H295zm14.73-12.23a3.89 3.89 0 0 0-.95-.81 6 6 0 0 0-2.4-.91h-.29l-.34.14-1.53.72a3.32 3.32 0 0 0 .39-.24 16.93 16.93 0 0 0 3.46-3.64 14.84 14.84 0 0 0 1.34 4.1c.12.17.22.39.33.64zm-18.12-6.6a22 22 0 0 1-3.52-3.21l-.18-.21 4.31 2a3.38 3.38 0 0 1 1.21.88 3.07 3.07 0 0 0 .94 2.44z"/><path class="cls-13" d="M300.85 41.24a1.65 1.65 0 0 1-1.07-.48l-1.72-1.91a.64.64 0 0 0-.91 0l-2.18 2a1.92 1.92 0 0 1-1.12.44h7zM318.59 41.88a4.46 4.46 0 0 1-1.25-.22l-2.8-1a2.11 2.11 0 0 1-.94-.77L312.43 38c-.18-.3-.38-.27-.44.08l-.14.85a1.79 1.79 0 0 1-.63 1L309 41.51a2.36 2.36 0 0 1-1.17.37h10.79z"/><path class="cls-14" d="M311 41.06c.81 0 .82.2 0 .35l-2.89.53a6 6 0 0 0-2.54 1.28l-.36.33a1 1 0 0 1-1.67-.35v-.06a3.15 3.15 0 0 0-2-1.64L296 40.42c-.8-.16-.79-.25 0-.2z"/><path class="cls-66" d="M293.63 53.05l3.83-1.78 5.74-7.56-1.91-2.37-12.13-.74-1.28 1.93-.31 6.81 6.06 3.71z"/><g class="cls-67"><path class="cls-68" d="M390.93 449.58a4.08 4.08 0 0 0 1.83 2.42l7.94 4.18a8.36 8.36 0 0 1 2.45 2.15l.16.23a7.14 7.14 0 0 0 2.51 2l3.18 1.29c.85.35.8.73-.12.84l-3.24.38a10 10 0 0 0-3.12 1h-.08a12.71 12.71 0 0 1-3.1 1.15l-5.13 1a5.81 5.81 0 0 0-2.72 1.53 7.71 7.71 0 0 0-1.47 2.83v.1c-.21.9-.38.88-.37 0l.08-9.31c0-.92.44-1.05 1-.29l1.53 2.24a2.76 2.76 0 0 0 2.59 1.06l4-.78a4 4 0 0 0 2.39-1.61 3.1 3.1 0 0 0 .15-2.56 5 5 0 0 0-2.12-2l-5.08-2.39a2.15 2.15 0 0 0-2.52.63l-1.37 1.82c-.55.74-.92.59-.81-.32l.93-7.93c.11-.91.35-.93.55 0z"/><path class="cls-3" d="M390.93 447.9a4.08 4.08 0 0 0 1.83 2.42l7.94 4.18a8.36 8.36 0 0 1 2.45 2.15l.16.23a7.14 7.14 0 0 0 2.51 2l3.18 1.32c.85.35.8.73-.12.84l-3.24.38a10 10 0 0 0-3.12 1h-.08a12.71 12.71 0 0 1-3.1 1.15l-5.13 1a5.81 5.81 0 0 0-2.72 1.53A7.71 7.71 0 0 0 390 469v.1c-.21.9-.38.88-.37 0l.08-9.31c0-.92.44-1.05 1-.29l1.53 2.24a2.76 2.76 0 0 0 2.59 1.06l4-.78a4 4 0 0 0 2.39-1.61 3.1 3.1 0 0 0 .15-2.56 5 5 0 0 0-2.12-2l-5.08-2.39a2.15 2.15 0 0 0-2.52.63l-1.37 1.82c-.55.74-.92.59-.81-.32l.93-7.93c.11-.91.35-.93.55 0z"/><path class="cls-69" d="M390.93 447.9a4.08 4.08 0 0 0 1.83 2.42l7.94 4.18a8.36 8.36 0 0 1 2.45 2.15l.16.23a7.14 7.14 0 0 0 2.51 2l3.18 1.32c.85.35.8.73-.12.84l-3.24.38a10 10 0 0 0-3.12 1h-.08a12.71 12.71 0 0 1-3.1 1.15l-5.13 1a5.81 5.81 0 0 0-2.72 1.53A7.71 7.71 0 0 0 390 469v.1c-.21.9-.38.88-.37 0l.08-9.31c0-.92.44-1.05 1-.29l1.53 2.24a2.76 2.76 0 0 0 2.59 1.06l4-.78a4 4 0 0 0 2.39-1.61 3.1 3.1 0 0 0 .15-2.56 5 5 0 0 0-2.12-2l-5.08-2.39a2.15 2.15 0 0 0-2.52.63l-1.37 1.82c-.55.74-.92.59-.81-.32l.93-7.93c.11-.91.35-.93.55 0z"/><path class="cls-12 cls-13" d="M391.35 463.3a4.36 4.36 0 0 0 .61.47c-.21.12-.42.25-.61.38v-.85zm11.6-2.89a5 5 0 0 0 .22-1.28 9.61 9.61 0 0 0 1.14.85 13.12 13.12 0 0 0-1.36.44zm-11.39-8.87a4.23 4.23 0 0 0 .43.26 3.87 3.87 0 0 0-.52.22z"/></g><path class="cls-13" d="M390.22 455.3a2.53 2.53 0 0 1 .56-1.46l1-1.09a.79.79 0 0 0-.09-1.15l-.8-.65a2 2 0 0 1-.65-1.36v-2 8.13-.42zM390.22 468.09l.22-1.89a1.54 1.54 0 0 1 .87-1.14l1.71-.68c.43-.17.4-.31-.06-.31h-.12a2.4 2.4 0 0 1-1.44-.58l-.59-.56a2.26 2.26 0 0 1-.6-1.42v-1.08"/><g id="bg-4" data-name="bg"><path class="cls-70" d="M337.23 439.02h52.3v29.92h-52.3z"/><path class="cls-3" d="M337.23 439.02h52.3v29.92h-52.3z"/></g><path class="cls-71" d="M339.23 463.55v-24.53h-2.72v30.5h51.35l1.71-1.67v-28.83h-2.19v24.53h-48.15z"/><g class="cls-72"><path class="cls-73" d="M370.67 460.51l3.38 1.44 4.82 9.9-10.21-4.81 2.01-6.53z"/><path class="cls-74" d="M381.42 433.98l-9.48 10.58-11.03-11.19 20.51.61z"/><path class="cls-14" d="M389.91 476.49c.33.12.35.08 0-.09l-7.54-4.1a3.62 3.62 0 0 1-.94-.8l-7-9.05c-.21-.28-.26-.25-.1.06l5 9.72a1.86 1.86 0 0 0 .89.78z"/></g><path class="cls-75" d="M378.99 448.3l4.58-2.9 2.41 1.66 1.61 1.3-.3 8.2v2.8l-1.45-.56-6.85-10.5z"/><path class="cls-76" d="M383.62 459.25l-2.36-3.25-2.51-3.46a4.91 4.91 0 0 0-3.19-1.77h-.7a4.11 4.11 0 0 0-3.21 1.48l-2.8 3.77c-.66.89-1 .74-.66-.32l1.44-5.15a2.68 2.68 0 0 1 2.55-1.86l3.73.15a7.76 7.76 0 0 0 3.72-1l3.78-2.33a26.09 26.09 0 0 0 3.2-2.41l1.08-1c.82-.75 1.49-.45 1.49.66v8.58c0 1.11-.59 1.33-1.32.49l-2.64-3.05a2 2 0 0 0-2.84-.21l-.54.46a2.19 2.19 0 0 0-.31 2.92l3 4a2.23 2.23 0 0 0 2.91.53 1 1 0 0 1 1.7.94v7.57c0 1.11-.53 1.28-1.18.38z"/><path class="cls-10" d="M383.62 458.25l-2.36-3.25-2.51-3.46a4.91 4.91 0 0 0-3.19-1.77h-.7a4.11 4.11 0 0 0-3.21 1.48l-2.8 3.77c-.66.89-1 .74-.66-.32l1.44-5.15a2.68 2.68 0 0 1 2.55-1.86l3.73.15a7.76 7.76 0 0 0 3.72-1l3.78-2.33a26.09 26.09 0 0 0 3.2-2.41l1.08-1c.82-.75 1.49-.45 1.49.66v8.58c0 1.11-.59 1.33-1.32.49l-2.64-3.05a2 2 0 0 0-2.84-.21l-.54.46a2.19 2.19 0 0 0-.31 2.92l3 4a2.23 2.23 0 0 0 2.91.53 1 1 0 0 1 1.7.94v7.57c0 1.11-.53 1.28-1.18.38z"/><path class="cls-77" d="M383.62 458.25l-2.36-3.25-2.51-3.46a4.91 4.91 0 0 0-3.19-1.77h-.7a4.11 4.11 0 0 0-3.21 1.48l-2.8 3.77c-.66.89-1 .74-.66-.32l1.44-5.15a2.68 2.68 0 0 1 2.55-1.86l3.73.15a7.76 7.76 0 0 0 3.72-1l3.78-2.33a26.09 26.09 0 0 0 3.2-2.41l1.08-1c.82-.75 1.49-.45 1.49.66v8.58c0 1.11-.59 1.33-1.32.49l-2.64-3.05a2 2 0 0 0-2.84-.21l-.54.46a2.19 2.19 0 0 0-.31 2.92l3 4a2.23 2.23 0 0 0 2.91.53 1 1 0 0 1 1.7.94v7.57c0 1.11-.53 1.28-1.18.38z"/><path class="cls-12 cls-54" d="M379.57 450.94a5.88 5.88 0 0 0-3.81-2.17h.32a8.89 8.89 0 0 0 4.1-1.13l3.78-2.33a27.31 27.31 0 0 0 3.35-2.53l.88-.8v7.62l-2.19-2.53a3 3 0 0 0-4.26-.31l-.54.46a3.2 3.2 0 0 0-.46 4.29l3 4a3.22 3.22 0 0 0 2.57 1.26 3.14 3.14 0 0 0 1.68-.48l.17-.09a1.05 1.05 0 0 1 0 .16v6.48zm-9-1.19a1.69 1.69 0 0 1 1.5-1.12l2.27.09a5.15 5.15 0 0 0-3.53 1.87l-.77 1z"/><path class="cls-14" d="M389.67 466.87c0 .28-.11.3-.24.06l-6.34-11.65c-.13-.24-.1-.26.06 0l4.82 6.4a.36.36 0 0 0 .6 0l.79-1.07c.17-.22.3-.18.3.1v6.2zM389.67 449.12c0 .28-.12.31-.27.08l-.94-1.52a4.8 4.8 0 0 1-.42-.91l-.37-1.17a1.57 1.57 0 0 1 0-.94l1.75-4c.11-.25.2-.24.2 0v8.45z"/><g id="bg-5" data-name="bg"><path class="cls-60" d="M234.84 54.79h53.96v30.86h-53.96z"/><path class="cls-3" d="M234.84 54.79h53.96v30.86h-53.96z"/></g><path class="cls-78" d="M236.9 80.1V54.79h-2.8v31.48h52.98l1.76-1.73V54.79h-2.26V80.1H236.9z"/><g class="cls-79"><path class="cls-80" d="M269.34 76.97l3.48 1.48 4.98 10.22-10.53-4.97 2.07-6.73z"/><path class="cls-81" d="M280.44 49.59l-9.79 10.92-11.38-11.54 21.17.62z"/><path class="cls-82" d="M286.55 89.92a13.25 13.25 0 0 1-5.55-2.17l-8.3-6.2a9.44 9.44 0 0 1-3.1-4.88s-1.67-8.17-1.84-8.61a18.34 18.34 0 0 0-2.14-2.27c-1.25-1.16-2.21-2.91-2.13-3.89a17.88 17.88 0 0 1 1.39-4.61l3.23-7.29c.69-1.55.7-2.67 0-2.48s-1.78 1.64-2.44 3.21l-4 9.66a2.76 2.76 0 0 1-3.92 1.39L246 55.54a3.91 3.91 0 0 0-4.68.93l-.07.08a2 2 0 0 0 1 3.43l15.37 5.42a18.21 18.21 0 0 1 5.2 3.12l.53.48a7.86 7.86 0 0 1 2.24 5.18l-.07 4.82a29.36 29.36 0 0 1-.46 4.87c-.23 1-1.66 2.4-3.18 3.16l-4.34 2.18c-1.52.76-1.38 1.47.32 1.57l15.95.93c1.7.1 1.77-.26.16-.81l-2.27-.76a3 3 0 0 1-1.91-3.89 2 2 0 0 1 3.35-.86l5.48 4.8A8.62 8.62 0 0 0 284 92l10.82-.71c1.7-.11 1.7-.34 0-.52z"/><path class="cls-10" d="M286.55 88.37a13.25 13.25 0 0 1-5.55-2.16L272.7 80a9.44 9.44 0 0 1-3.1-4.88s-1.67-8.17-1.84-8.61a18.34 18.34 0 0 0-2.14-2.27c-1.25-1.16-2.21-2.91-2.13-3.89a17.88 17.88 0 0 1 1.39-4.61l3.23-7.26c.69-1.55.7-2.67 0-2.48s-1.78 1.64-2.44 3.21l-4 9.66a2.76 2.76 0 0 1-3.92 1.39L246 54a3.91 3.91 0 0 0-4.68.93l-.02.07a2 2 0 0 0 1 3.43l15.37 5.42a18.21 18.21 0 0 1 5.2 3.12l.51.46a7.86 7.86 0 0 1 2.24 5.18l-.07 4.8a29.36 29.36 0 0 1-.46 4.87c-.23 1-1.66 2.4-3.18 3.16l-4.34 2.18c-1.52.76-1.38 1.47.32 1.57l15.95.93c1.7.1 1.77-.26.16-.81l-2.27-.76a3 3 0 0 1-1.91-3.89 2 2 0 0 1 3.35-.86l5.48 4.8a8.62 8.62 0 0 0 5.35 1.85l10.82-.71c1.7-.11 1.7-.34 0-.52z"/><path class="cls-83" d="M286.55 88.37a13.25 13.25 0 0 1-5.55-2.16L272.7 80a9.44 9.44 0 0 1-3.1-4.88s-1.67-8.17-1.84-8.61a18.34 18.34 0 0 0-2.14-2.27c-1.25-1.16-2.21-2.91-2.13-3.89a17.88 17.88 0 0 1 1.39-4.61l3.23-7.26c.69-1.55.7-2.67 0-2.48s-1.78 1.64-2.44 3.21l-4 9.66a2.76 2.76 0 0 1-3.92 1.39L246 54a3.91 3.91 0 0 0-4.68.93l-.02.07a2 2 0 0 0 1 3.43l15.37 5.42a18.21 18.21 0 0 1 5.2 3.12l.51.46a7.86 7.86 0 0 1 2.24 5.18l-.07 4.8a29.36 29.36 0 0 1-.46 4.87c-.23 1-1.66 2.4-3.18 3.16l-4.34 2.18c-1.52.76-1.38 1.47.32 1.57l15.95.93c1.7.1 1.77-.26.16-.81l-2.27-.76a3 3 0 0 1-1.91-3.89 2 2 0 0 1 3.35-.86l5.48 4.8a8.62 8.62 0 0 0 5.35 1.85l10.82-.71c1.7-.11 1.7-.34 0-.52z"/><path class="cls-12 cls-54" d="M282.3 88.72a6.89 6.89 0 0 1-2.66-1.27l-2.54-2.23 3 2.22a12.13 12.13 0 0 0 2.2 1.28zm-21.67-.91l1.94-1c1.7-.85 3.61-2.56 4-4.19a30.54 30.54 0 0 0 .5-5.2l.07-4.8a9.32 9.32 0 0 0-2.74-6.35l-.51-.46a19.68 19.68 0 0 0-5.73-3.43L242.78 57a.54.54 0 0 1-.28-1l.07-.08a2.36 2.36 0 0 1 1.78-.77 2 2 0 0 1 1 .23L257 61.63a4.46 4.46 0 0 0 2.1.54A4.26 4.26 0 0 0 262 61a8.61 8.61 0 0 0 2.58 4.35c.74.69 1.52 1.48 1.78 1.79.19.75 1 4.73 1.74 8.26a11 11 0 0 0 3.69 5.81l.63.47a3.43 3.43 0 0 0-.78-.09 3.52 3.52 0 0 0-3.29 2.54 4.53 4.53 0 0 0 .2 3.52 4.66 4.66 0 0 0 .36.61z"/><path class="cls-14" d="M289.19 93.45c.34.12.36.08 0-.09l-7.77-4.23a3.73 3.73 0 0 1-1-.83l-7.19-9.3c-.22-.28-.27-.25-.1.06l5.17 10a1.92 1.92 0 0 0 .91.8z"/></g><g id="bg-6" data-name="bg"><path class="cls-84" d="M93.01 404.69h51.63v29.53H93.01z"/><path class="cls-3" d="M93.01 404.69h51.63v29.53H93.01z"/></g><g class="cls-85"><path class="cls-86" d="M144.2 429.47a4 4 0 0 0-1.81-2.39l-7.84-4.08a8.25 8.25 0 0 1-2.42-2.12l-.16-.22a7.05 7.05 0 0 0-2.47-2l-3.14-1.27c-.84-.35-.79-.72.12-.83l3.19-.38a9.9 9.9 0 0 0 3.08-1h.08a12.55 12.55 0 0 1 3.06-1.14l5.06-1a5.74 5.74 0 0 0 2.69-1.52 7.61 7.61 0 0 0 1.45-2.8v-.1c.21-.88.38-.86.37 0l-.07 9.19c0 .91-.43 1-.95.29l-1.44-2.29a2.73 2.73 0 0 0-2.56-1l-3.91.77a4 4 0 0 0-2.36 1.59 3.06 3.06 0 0 0-.15 2.53 5 5 0 0 0 2.09 2l5 2.36a2.13 2.13 0 0 0 2.49-.62l1.35-1.8c.55-.73.91-.58.8.32l-.92 7.83c-.11.9-.35.91-.54 0z"/><path class="cls-3" d="M144.2 427.81a4 4 0 0 0-1.81-2.39l-7.84-4.13a8.25 8.25 0 0 1-2.42-2.12L132 419a7.05 7.05 0 0 0-2.47-2l-3.14-1.27c-.84-.35-.79-.72.12-.83l3.19-.38a9.9 9.9 0 0 0 3.08-1h.08a12.55 12.55 0 0 1 3.06-1.14l5.06-1a5.74 5.74 0 0 0 2.69-1.52 7.61 7.61 0 0 0 1.45-2.8v-.1c.21-.88.38-.86.37 0l-.07 9.19c0 .91-.43 1-.95.29l-1.47-2.28a2.73 2.73 0 0 0-2.56-1l-3.91.77a4 4 0 0 0-2.36 1.59A3.06 3.06 0 0 0 134 418a5 5 0 0 0 2.09 2l5 2.36a2.13 2.13 0 0 0 2.49-.62l1.35-1.8c.55-.73.91-.58.8.32l-.92 7.83c-.11.9-.35.91-.54 0z"/><path class="cls-87" d="M144.2 427.81a4 4 0 0 0-1.81-2.39l-7.84-4.13a8.25 8.25 0 0 1-2.42-2.12L132 419a7.05 7.05 0 0 0-2.47-2l-3.14-1.27c-.84-.35-.79-.72.12-.83l3.19-.38a9.9 9.9 0 0 0 3.08-1h.08a12.55 12.55 0 0 1 3.06-1.14l5.06-1a5.74 5.74 0 0 0 2.69-1.52 7.61 7.61 0 0 0 1.45-2.8v-.1c.21-.88.38-.86.37 0l-.07 9.19c0 .91-.43 1-.95.29l-1.47-2.28a2.73 2.73 0 0 0-2.56-1l-3.91.77a4 4 0 0 0-2.36 1.59A3.06 3.06 0 0 0 134 418a5 5 0 0 0 2.09 2l5 2.36a2.13 2.13 0 0 0 2.49-.62l1.35-1.8c.55-.73.91-.58.8.32l-.92 7.83c-.11.9-.35.91-.54 0z"/><path class="cls-12 cls-13" d="M143.58 424.22a4.28 4.28 0 0 0-.42-.26 3.88 3.88 0 0 0 .51-.21zm-11.46-7.5a9.5 9.5 0 0 0-1.12-.83 12.94 12.94 0 0 0 1.34-.43 4.94 4.94 0 0 0-.22 1.26zm11.67-4.11a4.28 4.28 0 0 0-.6-.46c.21-.12.41-.24.61-.37v.84z"/></g><path class="cls-13" d="M144.89 420.51a2.5 2.5 0 0 1-.55 1.44l-1 1.08a.78.78 0 0 0 .09 1.13l.79.64a2 2 0 0 1 .64 1.35v2-8 .38zM144.89 404.71c0 .45 0 1.2-.05 1.65l-.21 3.39a1.42 1.42 0 0 1-.82 1.13l-1.69.67c-.42.17-.4.3.06.3h.12a2.37 2.37 0 0 1 1.42.57l.58.58a2.23 2.23 0 0 1 .6 1.4v.24-11.4 1.49z"/><path class="cls-88" d="M94.99 428.91v-24.22H92.3v30.12H143l1.68-1.65v-28.47h-2.16v24.22H94.99z"/><g class="cls-89"><path class="cls-90" d="M120.48 437.14a7.92 7.92 0 0 1-3.25-2.46l-4.9-6.91a11.73 11.73 0 0 0-3.08-2.82 8.87 8.87 0 0 1-2.85-3l-1.26-2.58c-.53-1-1.11-1-1.28.21l-.36 2.45a10.24 10.24 0 0 1-1.36 3.65 13.15 13.15 0 0 0-1.56 3.61l-1.08 4.41a4.11 4.11 0 0 1-2.56 2.67h-.1a42.48 42.48 0 0 1-4.16.94l-6.82 1.11c-1.16.19-1.15.34 0 .33l19.55-.09c1.18 0 1.3-.48.27-1.05l-2.5-1.4a3 3 0 0 1-1.37-3.12l.77-3.22a4.7 4.7 0 0 1 2.1-2.84 4.65 4.65 0 0 1 3.19-.15 6.4 6.4 0 0 1 2.66 2.47l2.62 4.55a2.82 2.82 0 0 1-.38 3.26c-.8.77-.48 1.4.69 1.4h9c1.18 0 1.23-.33.12-.72z"/><path class="cls-3" d="M120.48 435a7.92 7.92 0 0 1-3.25-2.46l-4.9-6.91a11.73 11.73 0 0 0-3.08-2.82 8.87 8.87 0 0 1-2.85-3l-1.26-2.58c-.53-1-1.11-1-1.28.21l-.36 2.45a10.24 10.24 0 0 1-1.36 3.65 13.15 13.15 0 0 0-1.56 3.61l-1.08 4.45a4.11 4.11 0 0 1-2.56 2.67h-.1a42.48 42.48 0 0 1-4.16.94l-6.82 1.11c-1.16.19-1.15.34 0 .33l19.55-.09c1.18 0 1.3-.48.27-1.05l-2.5-1.4a3 3 0 0 1-1.37-3.12l.77-3.22a4.7 4.7 0 0 1 2.1-2.84 4.65 4.65 0 0 1 3.19-.15 6.4 6.4 0 0 1 2.66 2.47l2.62 4.55a2.82 2.82 0 0 1-.38 3.26c-.8.77-.48 1.4.69 1.4h9c1.18 0 1.23-.33.12-.72z"/><path class="cls-91" d="M120.48 435a7.92 7.92 0 0 1-3.25-2.46l-4.9-6.91a11.73 11.73 0 0 0-3.08-2.82 8.87 8.87 0 0 1-2.85-3l-1.26-2.58c-.53-1-1.11-1-1.28.21l-.36 2.45a10.24 10.24 0 0 1-1.36 3.65 13.15 13.15 0 0 0-1.56 3.61l-1.08 4.45a4.11 4.11 0 0 1-2.56 2.67h-.1a42.48 42.48 0 0 1-4.16.94l-6.82 1.11c-1.16.19-1.15.34 0 .33l19.55-.09c1.18 0 1.3-.48.27-1.05l-2.5-1.4a3 3 0 0 1-1.37-3.12l.77-3.22a4.7 4.7 0 0 1 2.1-2.84 4.65 4.65 0 0 1 3.19-.15 6.4 6.4 0 0 1 2.66 2.47l2.62 4.55a2.82 2.82 0 0 1-.38 3.26c-.8.77-.48 1.4.69 1.4h9c1.18 0 1.23-.33.12-.72z"/><path class="cls-12 cls-13" d="M100.42 434.34l.09.14h-.21zm15.11 0c0-.13.05-.25.07-.38l.32.38h-.39zM105 422.63c.08-.23.16-.46.24-.68.14.19.3.38.46.57a6.83 6.83 0 0 0-.7.11z"/><path class="cls-13" d="M113.89 432.93c-.19-.41.14-.75.73-.75h1.28a2.33 2.33 0 0 1 1.69.87l.26.36a4.62 4.62 0 0 0 1.59 1.31l.43.19c.54.24.5.44-.09.44h-6.46c-.59 0-.7-.31-.25-.69l.35-.3a1.34 1.34 0 0 0 .47-1.43zM98.39 432.93a1.29 1.29 0 0 1 1.26-.75h1.15a1.47 1.47 0 0 1 1.34 1 2.14 2.14 0 0 0 1.29 1.35l1.41.44c.56.17.54.31 0 .31h-7.56c-.59 0-.7-.31-.25-.69l.35-.3a3.45 3.45 0 0 0 1.01-1.36z"/></g></g></g></svg>