<svg xmlns="http://www.w3.org/2000/svg" xmlns:xlink="http://www.w3.org/1999/xlink" viewBox="0 0 44 44"><defs><style>.cls-1{isolation:isolate}.cls-2,.cls-6{fill:#651928}.cls-3{fill:url(#linear-gradient)}.cls-4{opacity:.5;fill:url(#linear-gradient-2)}.cls-10,.cls-4,.cls-6,.cls-7,.cls-8{mix-blend-mode:darken}.cls-5{fill:url(#linear-gradient-3)}.cls-10,.cls-7{opacity:.4}.cls-7{fill:url(#linear-gradient-4)}.cls-9{fill:url(#linear-gradient-5)}.cls-10{fill:url(#linear-gradient-6)}</style><linearGradient id="linear-gradient" x1="22" y1="1.5" x2="22" y2="42.5" gradientUnits="userSpaceOnUse"><stop offset="0" stop-color="#963a4c"/><stop offset=".41" stop-color="#963a4c" stop-opacity=".99"/><stop offset=".56" stop-color="#963a4c" stop-opacity=".94"/><stop offset=".67" stop-color="#963a4c" stop-opacity=".86"/><stop offset=".76" stop-color="#963a4c" stop-opacity=".75"/><stop offset=".83" stop-color="#963a4c" stop-opacity=".6"/><stop offset=".9" stop-color="#963a4c" stop-opacity=".42"/><stop offset=".95" stop-color="#963a4c" stop-opacity=".21"/><stop offset="1" stop-color="#963a4c" stop-opacity="0"/></linearGradient><linearGradient id="linear-gradient-2" x1="22" y1="42" x2="22" y2="14" gradientUnits="userSpaceOnUse"><stop offset="0" stop-color="#651928"/><stop offset="1" stop-color="#651928" stop-opacity="0"/></linearGradient><linearGradient id="linear-gradient-3" x1="910.42" y1="2312.9" x2="910.42" y2="2335.83" gradientTransform="rotate(180 469.445 1177.97)" gradientUnits="userSpaceOnUse"><stop offset="0" stop-color="#695a6a"/><stop offset="1" stop-color="#695a6a" stop-opacity="0"/></linearGradient><linearGradient id="linear-gradient-4" x1="910.42" y1="2336.95" x2="910.42" y2="2314.02" gradientTransform="rotate(180 469.445 1177.97)" gradientUnits="userSpaceOnUse"><stop offset="0" stop-color="#322838" stop-opacity=".5"/><stop offset="1" stop-color="#322838"/></linearGradient><linearGradient id="linear-gradient-5" x1="978.73" y1="2332.05" x2="978.73" y2="2355.87" gradientTransform="translate(-961.64 -2328.38)" xlink:href="#linear-gradient-3"/><linearGradient id="linear-gradient-6" x1="978.73" y1="2354.71" x2="978.73" y2="2330.89" gradientTransform="translate(-961.64 -2328.38)" xlink:href="#linear-gradient-4"/></defs><title>Game 1.8 export</title><g class="cls-1"><g id="Red_stone_-_Alive" data-name="Red stone - Alive"><rect class="cls-2" x="2" y="2" width="40" height="40" rx="3" ry="3"/><rect class="cls-3" x="1.5" y="1.5" width="41" height="41" rx="3.5" ry="3.5"/><path class="cls-2" d="M39 2a3 3 0 0 1 3 3v34a3 3 0 0 1-3 3H5a3 3 0 0 1-3-3V5a3 3 0 0 1 3-3h34m0-1H5a4 4 0 0 0-4 4v34a4 4 0 0 0 4 4h34a4 4 0 0 0 4-4V5a4 4 0 0 0-4-4z"/><path class="cls-4" d="M4 32a2.94 2.94 0 0 0 3 3h30a2.76 2.76 0 0 0 3-3V14l2 3v22a3 3 0 0 1-3 3H5a3 3 0 0 1-3-3V17l2-3v18z"/><path class="cls-5" d="M34.79 40.19A35.68 35.68 0 0 1 31 37.86l-1.47-1.06a4.5 4.5 0 0 1-1.66-3.54s.2-3 .2-3.26c0-.08 2-2 2-2a3.05 3.05 0 0 0 .49-3.5l-2.09-3.58c-.59-1.08-.74-1-.33.15l.93 2.65a3.27 3.27 0 0 1-.46 3.21 7.26 7.26 0 0 1-3.42 1.38l-2.19.22a5.44 5.44 0 0 1-3.85-1.25l-.47-.44c-.9-.84-1.18-.63-.62.47l.71 1.39A3.41 3.41 0 0 0 22 30.41l2.26-.29A1.3 1.3 0 0 1 25.82 32l-2.32 7.08a4.89 4.89 0 0 1-2.82 2.8l-1.55.49c-1.13.37-1.13.63.1.63h7.3c1.23 0 1.42-.59.42-1.31l-.21-.15a1.85 1.85 0 0 1-.64-2.66 2.23 2.23 0 0 1 3 0l1.88 1.42c1 .74 1.52 1.65 1.21 2s.38.7 1.61.7h4.31c1.23 0 1.34-.46.25-1z"/><path class="cls-6" d="M34.79 39.07A35.68 35.68 0 0 1 31 36.74l-1.47-1.06a4.5 4.5 0 0 1-1.66-3.54s.2-3 .2-3.26c0-.08 2-2 2-2a3.05 3.05 0 0 0 .49-3.5l-2.09-3.58c-.59-1.08-.74-1-.33.15l.93 2.65a3.27 3.27 0 0 1-.46 3.21 7.26 7.26 0 0 1-3.42 1.38l-2.19.23a5.44 5.44 0 0 1-3.85-1.25l-.47-.44c-.9-.84-1.18-.63-.62.47l.71 1.39a3.41 3.41 0 0 0 3.23 1.7l2.3-.29a1.3 1.3 0 0 1 1.52 1.84L23.5 38a4.89 4.89 0 0 1-2.82 2.8l-1.55.49c-1.17.37-1.12.67.1.67h7.3c1.23 0 1.42-.59.42-1.31l-.21-.15a1.85 1.85 0 0 1-.64-2.66 2.23 2.23 0 0 1 3 0l1.88 1.42c1 .74 1.52 1.65 1.21 2s.43.68 1.65.68h4.31c1.23 0 1.34-.46.25-1z"/><path class="cls-7" d="M34.79 39.07A35.68 35.68 0 0 1 31 36.74l-1.47-1.06a4.5 4.5 0 0 1-1.66-3.54s.2-3 .2-3.26c0-.08 2-2 2-2a3.05 3.05 0 0 0 .49-3.5l-2.09-3.58c-.59-1.08-.74-1-.33.15l.93 2.65a3.27 3.27 0 0 1-.46 3.21 7.26 7.26 0 0 1-3.42 1.38l-2.19.23a5.44 5.44 0 0 1-3.85-1.25l-.47-.44c-.9-.84-1.18-.63-.62.47l.71 1.39a3.41 3.41 0 0 0 3.23 1.7l2.3-.29a1.3 1.3 0 0 1 1.52 1.84L23.5 38a4.89 4.89 0 0 1-2.82 2.8l-1.55.49c-1.17.37-1.12.67.1.67h7.3c1.23 0 1.42-.59.42-1.31l-.21-.15a1.85 1.85 0 0 1-.64-2.66 2.23 2.23 0 0 1 3 0l1.88 1.42c1 .74 1.52 1.65 1.21 2s.43.68 1.65.68h4.31c1.23 0 1.34-.46.25-1z"/><path class="cls-8 cls-2" d="M33.8 40.81h-.46a3.32 3.32 0 0 0-1-1.83c.7.43 1.41.84 2 1.13l1.45.75H33.8zm-11 0a5.78 5.78 0 0 0 1.77-2.5l2.24-6.88v.63a5.62 5.62 0 0 0 1.77 4.23 3.64 3.64 0 0 0-1.06-.16 2.85 2.85 0 0 0-2.2.95 2.55 2.55 0 0 0-.6 2 3.21 3.21 0 0 0 .8 1.74h-2.73zm4.14-11.36a2.28 2.28 0 0 0-.32-.63 2.22 2.22 0 0 0-.75-.65 9.5 9.5 0 0 0 1.89-.6c-.76.81-.76.93-.76 1.31 0 .06-.06.27-.08.57z"/><path class="cls-6" d="M41.64 41.72c.61-.06.61-.11 0-.11h-1a4.83 4.83 0 0 1-2.07-.61l-7.94-4.7c-.53-.31-.63-.19-.22.27l2.51 2.82a2.12 2.12 0 0 1 .38 1.89l-.07.19a.66.66 0 0 0 .75.95zM27.65 41.89c.61 0 .71-.26.21-.62l-1.4-1a2.16 2.16 0 0 1-.8-1.76l.12-1.23a3.06 3.06 0 0 0-.06-1.28 1.11 1.11 0 0 0-.69.79l-1.46 2.75A3 3 0 0 1 22 40.76l-2 .56c-.59.16-.58.31 0 .33z"/><path class="cls-9" d="M10.52 6.64a37.07 37.07 0 0 1 3.94 2.42l1.54 1.1a4.68 4.68 0 0 1 1.72 3.67s-.21 3.11-.21 3.39c0 .08-2.07 2.11-2.07 2.11a3.17 3.17 0 0 0-.52 3.67l2.17 3.72c.61 1.12.77 1 .34-.15l-1-2.75a3.4 3.4 0 0 1 .48-3.34A7.54 7.54 0 0 1 20.5 19l2.22-.27a5.65 5.65 0 0 1 4 1.3l.49.46c.93.87 1.22.65.64-.48l-.73-1.44a3.54 3.54 0 0 0-3.35-1.77l-2.35.3a1.36 1.36 0 0 1-1.58-1.91l2.41-7.4a5.08 5.08 0 0 1 2.93-2.9l1.61-.51C28 4 28 3.67 26.68 3.67H19.1c-1.28 0-1.47.61-.44 1.36l.22.16a1.92 1.92 0 0 1 .66 2.76 2.31 2.31 0 0 1-3.07 0l-2-1.47c-1-.77-1.58-1.71-1.25-2.1s-.44-.71-1.72-.71H7.07c-1.28 0-1.39.48-.26 1.06z"/><path class="cls-6" d="M10.52 5.48a37.07 37.07 0 0 1 3.94 2.42L16 9a4.68 4.68 0 0 1 1.72 3.67s-.21 3.11-.21 3.39c0 .08-2.07 2.11-2.07 2.11a3.17 3.17 0 0 0-.51 3.63l2.17 3.72c.61 1.12.77 1 .34-.15l-1-2.75a3.4 3.4 0 0 1 .48-3.34 7.54 7.54 0 0 1 3.55-1.43l2.22-.27a5.65 5.65 0 0 1 4 1.3l.49.46c.93.87 1.22.65.64-.48l-.73-1.44a3.54 3.54 0 0 0-3.35-1.77l-2.35.3A1.36 1.36 0 0 1 19.84 14l2.41-7.4a5.08 5.08 0 0 1 2.93-2.9l1.61-.51c1.21-.36 1.21-.68-.11-.68H19.1c-1.28 0-1.47.61-.44 1.36l.22.13a1.92 1.92 0 0 1 .66 2.76 2.31 2.31 0 0 1-3.07 0l-2-1.47c-1-.77-1.58-1.71-1.25-2.1s-.44-.71-1.72-.71H7.07c-1.28 0-1.39.48-.26 1.06z"/><path class="cls-10" d="M10.52 5.48a37.07 37.07 0 0 1 3.94 2.42L16 9a4.68 4.68 0 0 1 1.72 3.67s-.21 3.11-.21 3.39c0 .08-2.07 2.11-2.07 2.11a3.17 3.17 0 0 0-.51 3.63l2.17 3.72c.61 1.12.77 1 .34-.15l-1-2.75a3.4 3.4 0 0 1 .48-3.34 7.54 7.54 0 0 1 3.55-1.43l2.22-.27a5.65 5.65 0 0 1 4 1.3l.49.46c.93.87 1.22.65.64-.48l-.73-1.44a3.54 3.54 0 0 0-3.35-1.77l-2.35.3A1.36 1.36 0 0 1 19.84 14l2.41-7.4a5.08 5.08 0 0 1 2.93-2.9l1.61-.51c1.21-.36 1.21-.68-.11-.68H19.1c-1.28 0-1.47.61-.44 1.36l.22.13a1.92 1.92 0 0 1 .66 2.76 2.31 2.31 0 0 1-3.07 0l-2-1.47c-1-.77-1.58-1.71-1.25-2.1s-.44-.71-1.72-.71H7.07c-1.28 0-1.39.48-.26 1.06z"/><path class="cls-8 cls-2" d="M17.84 17.42c.82-.84.82-1 .82-1.35v-.6a2.35 2.35 0 0 0 .33.65 2.31 2.31 0 0 0 .78.68 9.84 9.84 0 0 0-1.93.62zm1-4.67A5.85 5.85 0 0 0 17 8.36a3.77 3.77 0 0 0 1.1.17 3 3 0 0 0 2.29-1A2.65 2.65 0 0 0 21 5.48a3.33 3.33 0 0 0-.83-1.8H23a6 6 0 0 0-1.84 2.6l-2.33 7.14zm-5.75-7.13c-.73-.45-1.46-.87-2-1.17l-1.55-.78h2.48a3.45 3.45 0 0 0 1.07 1.95z"/><path class="cls-6" d="M3.4 2.73c-.63.06-.63.11 0 .11h1a5 5 0 0 1 2.16.59l8.24 4.88c.55.32.65.2.23-.28L12.46 5.1a2.2 2.2 0 0 1-.39-2l.07-.2a.69.69 0 0 0-.78-1zM17.94 2.55c-.64 0-.74.27-.22.64l1.46 1.05A2.24 2.24 0 0 1 20 6.07l-.12 1.28a3.18 3.18 0 0 0 .06 1.36 1.15 1.15 0 0 0 .72-.82L22.18 5a3.07 3.07 0 0 1 1.66-1.33L26 3.14c.62-.17.6-.32 0-.34z"/></g></g></svg>