<svg xmlns="http://www.w3.org/2000/svg" viewBox="0 0 44 44"><defs><style>.cls-1{isolation:isolate}.cls-2{fill:#193364}.cls-3{fill:url(#linear-gradient)}.cls-4{opacity:.5;mix-blend-mode:darken;fill:url(#linear-gradient-2)}</style><linearGradient id="linear-gradient" x1="22" y1="1.5" x2="22" y2="42.5" gradientUnits="userSpaceOnUse"><stop offset="0" stop-color="#4469af"/><stop offset=".4" stop-color="#4469af" stop-opacity=".99"/><stop offset=".55" stop-color="#4469af" stop-opacity=".95"/><stop offset=".65" stop-color="#4469af" stop-opacity=".88"/><stop offset=".73" stop-color="#4469af" stop-opacity=".79"/><stop offset=".8" stop-color="#4469af" stop-opacity=".66"/><stop offset=".87" stop-color="#4469af" stop-opacity=".51"/><stop offset=".93" stop-color="#4469af" stop-opacity=".32"/><stop offset=".98" stop-color="#4469af" stop-opacity=".11"/><stop offset="1" stop-color="#4469af" stop-opacity="0"/></linearGradient><linearGradient id="linear-gradient-2" x1="22" y1="42" x2="22" y2="14" gradientUnits="userSpaceOnUse"><stop offset="0" stop-color="#193364"/><stop offset="1" stop-color="#193364" stop-opacity="0"/></linearGradient></defs><title>Game 1.8 export</title><g class="cls-1"><g id="Blue_stone_-_Alive" data-name="Blue stone - Alive"><rect class="cls-2" x="2" y="2" width="40" height="40" rx="3" ry="3"/><rect class="cls-3" x="1.5" y="1.5" width="41" height="41" rx="3.5" ry="3.5"/><path class="cls-2" d="M39 2a3 3 0 0 1 3 3v34a3 3 0 0 1-3 3H5a3 3 0 0 1-3-3V5a3 3 0 0 1 3-3h34m0-1H5a4 4 0 0 0-4 4v34a4 4 0 0 0 4 4h34a4 4 0 0 0 4-4V5a4 4 0 0 0-4-4z"/><path class="cls-4" d="M4 32a2.94 2.94 0 0 0 3 3h30a2.76 2.76 0 0 0 3-3V14l2 3v22a3 3 0 0 1-3 3H5a3 3 0 0 1-3-3V17l2-3v18z"/></g></g></svg>